%TF.GenerationSoftware,KiCad,Pcbnew,5.1.8-db9833491~88~ubuntu20.04.1*%
%TF.CreationDate,2020-12-22T00:38:32+08:00*%
%TF.ProjectId,Ingress_BioCard,496e6772-6573-4735-9f42-696f43617264,1.0*%
%TF.SameCoordinates,Original*%
%TF.FileFunction,Paste,Bot*%
%TF.FilePolarity,Positive*%
%FSLAX46Y46*%
G04 Gerber Fmt 4.6, Leading zero omitted, Abs format (unit mm)*
G04 Created by KiCad (PCBNEW 5.1.8-db9833491~88~ubuntu20.04.1) date 2020-12-22 00:38:32*
%MOMM*%
%LPD*%
G01*
G04 APERTURE LIST*
%ADD10C,0.500000*%
%ADD11C,0.200000*%
%ADD12C,0.750000*%
%ADD13C,0.250000*%
%ADD14C,0.100000*%
%ADD15C,1.730000*%
%ADD16R,1.300000X0.900000*%
%ADD17R,2.000000X1.500000*%
%ADD18R,2.000000X3.800000*%
%ADD19R,1.060000X0.400000*%
%ADD20R,1.060000X0.650000*%
%ADD21R,0.900000X0.800000*%
%ADD22R,0.900000X1.200000*%
%ADD23R,0.600000X0.450000*%
%ADD24R,0.600000X0.700000*%
%ADD25R,0.360000X0.250000*%
%ADD26R,2.500000X3.300000*%
%ADD27R,2.500000X2.300000*%
%ADD28R,2.500000X1.800000*%
%ADD29R,0.550000X1.600000*%
%ADD30R,1.600000X0.550000*%
G04 APERTURE END LIST*
%TO.C,4020R*%
G36*
G01*
X147585000Y-108064000D02*
X147585000Y-103264000D01*
G75*
G02*
X147835000Y-103014000I250000J0D01*
G01*
X148810000Y-103014000D01*
G75*
G02*
X149060000Y-103264000I0J-250000D01*
G01*
X149060000Y-108064000D01*
G75*
G02*
X148810000Y-108314000I-250000J0D01*
G01*
X147835000Y-108314000D01*
G75*
G02*
X147585000Y-108064000I0J250000D01*
G01*
G37*
G36*
G01*
X137960000Y-108064000D02*
X137960000Y-103264000D01*
G75*
G02*
X138210000Y-103014000I250000J0D01*
G01*
X139185000Y-103014000D01*
G75*
G02*
X139435000Y-103264000I0J-250000D01*
G01*
X139435000Y-108064000D01*
G75*
G02*
X139185000Y-108314000I-250000J0D01*
G01*
X138210000Y-108314000D01*
G75*
G02*
X137960000Y-108064000I0J250000D01*
G01*
G37*
%TD*%
D10*
%TO.C,BGA64*%
X117570000Y-123196000D03*
X116770000Y-123196000D03*
X119170000Y-117596000D03*
X118370000Y-118396000D03*
X118370000Y-117596000D03*
X118370000Y-116796000D03*
X117570000Y-116796000D03*
X117570000Y-117596000D03*
X119170000Y-116796000D03*
X119170000Y-123996000D03*
X118370000Y-123996000D03*
X117570000Y-123996000D03*
X116770000Y-123996000D03*
X116770000Y-117596000D03*
X115970000Y-117596000D03*
X115190000Y-117606000D03*
X112770000Y-123196000D03*
X113570000Y-123196000D03*
X114370000Y-123196000D03*
X115170000Y-123196000D03*
X119170000Y-123196000D03*
X119170000Y-118396000D03*
X118370000Y-119196000D03*
X116770000Y-116796000D03*
X114370000Y-116796000D03*
X115170000Y-116796000D03*
X115970000Y-116796000D03*
X112770000Y-117596000D03*
X111970000Y-117596000D03*
X112770000Y-119196000D03*
X112770000Y-119996000D03*
X112770000Y-120796000D03*
X112770000Y-121596000D03*
X112770000Y-122396000D03*
X118370000Y-122396000D03*
X119170000Y-122396000D03*
X119170000Y-121596000D03*
X119170000Y-120796000D03*
X118370000Y-120796000D03*
X118370000Y-121596000D03*
X115970000Y-123196000D03*
X118370000Y-123196000D03*
X119170000Y-119196000D03*
X118370000Y-119996000D03*
X119170000Y-119996000D03*
X114370000Y-117596000D03*
X113570000Y-117596000D03*
X113570000Y-116796000D03*
X112770000Y-116796000D03*
X111970000Y-116796000D03*
X112770000Y-118396000D03*
X111970000Y-118396000D03*
X111970000Y-119196000D03*
X111970000Y-119996000D03*
X111970000Y-120796000D03*
X111970000Y-121596000D03*
X111970000Y-122396000D03*
X111970000Y-123196000D03*
X115970000Y-123996000D03*
X115170000Y-123996000D03*
X114370000Y-123996000D03*
X113570000Y-123996000D03*
X112770000Y-123996000D03*
X111970000Y-123996000D03*
%TD*%
D11*
%TO.C,BGA36*%
X125206000Y-105426000D03*
X125206000Y-105826000D03*
X125206000Y-106226000D03*
X125206000Y-106626000D03*
X125206000Y-107026000D03*
X125206000Y-107426000D03*
X124806000Y-105426000D03*
X124806000Y-105826000D03*
X124806000Y-106226000D03*
X124806000Y-106626000D03*
X124806000Y-107026000D03*
X124806000Y-107426000D03*
X124406000Y-105426000D03*
X124406000Y-105826000D03*
X124406000Y-106226000D03*
X124406000Y-106626000D03*
X124406000Y-107026000D03*
X124406000Y-107426000D03*
X124006000Y-105426000D03*
X124006000Y-105826000D03*
X124006000Y-106226000D03*
X124006000Y-106626000D03*
X124006000Y-107026000D03*
X124006000Y-107426000D03*
X123606000Y-105426000D03*
X123606000Y-105826000D03*
X123606000Y-106226000D03*
X123606000Y-106626000D03*
X123606000Y-107026000D03*
X123606000Y-107426000D03*
X123206000Y-105426000D03*
X123206000Y-105826000D03*
X123206000Y-106226000D03*
X123206000Y-106626000D03*
X123206000Y-107026000D03*
X123206000Y-107426000D03*
%TD*%
D12*
%TO.C,BGA25*%
X113030000Y-110998000D03*
X113030000Y-109728000D03*
X113030000Y-108458000D03*
X113030000Y-107188000D03*
X113030000Y-105918000D03*
X114300000Y-110998000D03*
X114300000Y-109728000D03*
X114300000Y-108458000D03*
X114300000Y-107188000D03*
X114300000Y-105918000D03*
X115570000Y-110998000D03*
X115570000Y-109728000D03*
X115570000Y-108458000D03*
X115570000Y-107188000D03*
X115570000Y-105918000D03*
X116840000Y-110998000D03*
X116840000Y-109728000D03*
X116840000Y-108458000D03*
X116840000Y-107188000D03*
X116840000Y-105918000D03*
X118110000Y-110998000D03*
X118110000Y-109728000D03*
X118110000Y-108458000D03*
X118110000Y-107188000D03*
X118110000Y-105918000D03*
%TD*%
D13*
%TO.C,BGA9*%
X131310000Y-106926000D03*
X130810000Y-106926000D03*
X130310000Y-106926000D03*
X131310000Y-106426000D03*
X130810000Y-106426000D03*
X130310000Y-106426000D03*
X131310000Y-105926000D03*
X130810000Y-105926000D03*
X130310000Y-105926000D03*
%TD*%
D14*
%TO.C,SMA Amphenol*%
G36*
X102361000Y-100903000D02*
G01*
X100451000Y-100903000D01*
X100306000Y-100728000D01*
X100166000Y-100588000D01*
X100011000Y-100463000D01*
X99841000Y-100353000D01*
X99666000Y-100258000D01*
X99481000Y-100183000D01*
X99286000Y-100128000D01*
X99086000Y-100088000D01*
X98891000Y-100073000D01*
X98721000Y-100073000D01*
X98526000Y-100088000D01*
X98326000Y-100128000D01*
X98131000Y-100183000D01*
X97946000Y-100258000D01*
X97771000Y-100353000D01*
X97601000Y-100463000D01*
X97446000Y-100588000D01*
X97306000Y-100728000D01*
X97161000Y-100903000D01*
X95251000Y-100903000D01*
X95251000Y-98553000D01*
X102361000Y-98553000D01*
X102361000Y-100903000D01*
G37*
G36*
X95251000Y-103313000D02*
G01*
X97161000Y-103313000D01*
X97306000Y-103488000D01*
X97446000Y-103628000D01*
X97601000Y-103753000D01*
X97771000Y-103863000D01*
X97946000Y-103958000D01*
X98131000Y-104033000D01*
X98326000Y-104088000D01*
X98526000Y-104128000D01*
X98721000Y-104143000D01*
X98891000Y-104143000D01*
X99086000Y-104128000D01*
X99286000Y-104088000D01*
X99481000Y-104033000D01*
X99666000Y-103958000D01*
X99841000Y-103863000D01*
X100011000Y-103753000D01*
X100166000Y-103628000D01*
X100306000Y-103488000D01*
X100451000Y-103313000D01*
X102361000Y-103313000D01*
X102361000Y-105663000D01*
X95251000Y-105663000D01*
X95251000Y-103313000D01*
G37*
D15*
X98806000Y-102108000D03*
%TD*%
D14*
%TO.C,SOT89*%
G36*
X125363000Y-97640500D02*
G01*
X122238000Y-97640500D01*
X122238000Y-97224000D01*
X120763000Y-97224000D01*
X120763000Y-96324000D01*
X122238000Y-96324000D01*
X122238000Y-95907500D01*
X125363000Y-95907500D01*
X125363000Y-97640500D01*
G37*
D16*
X121413000Y-95274000D03*
X121413000Y-98274000D03*
%TD*%
D17*
%TO.C,SOT223*%
X112293000Y-98439000D03*
X112293000Y-93839000D03*
X112293000Y-96139000D03*
D18*
X118593000Y-96139000D03*
%TD*%
D19*
%TO.C,SOT238*%
X116543000Y-90134000D03*
X116543000Y-89484000D03*
X116543000Y-88824000D03*
X116543000Y-88174000D03*
X114343000Y-88174000D03*
X114343000Y-88824000D03*
X114343000Y-89484000D03*
X114343000Y-90134000D03*
%TD*%
D20*
%TO.C,SOT236*%
X124798000Y-89154000D03*
X124798000Y-90104000D03*
X124798000Y-88204000D03*
X122598000Y-88204000D03*
X122598000Y-89154000D03*
X122598000Y-90104000D03*
%TD*%
%TO.C,SOT235*%
X129878000Y-97724000D03*
X129878000Y-95824000D03*
X127678000Y-95824000D03*
X127678000Y-96774000D03*
X127678000Y-97724000D03*
%TD*%
D21*
%TO.C,SOT23*%
X130413000Y-89154000D03*
X128413000Y-88204000D03*
X128413000Y-90104000D03*
%TD*%
%TO.C,TSSOP24*%
G36*
G01*
X93057000Y-125198500D02*
X93057000Y-125073500D01*
G75*
G02*
X93119500Y-125011000I62500J0D01*
G01*
X94469500Y-125011000D01*
G75*
G02*
X94532000Y-125073500I0J-62500D01*
G01*
X94532000Y-125198500D01*
G75*
G02*
X94469500Y-125261000I-62500J0D01*
G01*
X93119500Y-125261000D01*
G75*
G02*
X93057000Y-125198500I0J62500D01*
G01*
G37*
G36*
G01*
X93057000Y-124798500D02*
X93057000Y-124673500D01*
G75*
G02*
X93119500Y-124611000I62500J0D01*
G01*
X94469500Y-124611000D01*
G75*
G02*
X94532000Y-124673500I0J-62500D01*
G01*
X94532000Y-124798500D01*
G75*
G02*
X94469500Y-124861000I-62500J0D01*
G01*
X93119500Y-124861000D01*
G75*
G02*
X93057000Y-124798500I0J62500D01*
G01*
G37*
G36*
G01*
X93057000Y-124398500D02*
X93057000Y-124273500D01*
G75*
G02*
X93119500Y-124211000I62500J0D01*
G01*
X94469500Y-124211000D01*
G75*
G02*
X94532000Y-124273500I0J-62500D01*
G01*
X94532000Y-124398500D01*
G75*
G02*
X94469500Y-124461000I-62500J0D01*
G01*
X93119500Y-124461000D01*
G75*
G02*
X93057000Y-124398500I0J62500D01*
G01*
G37*
G36*
G01*
X93057000Y-123998500D02*
X93057000Y-123873500D01*
G75*
G02*
X93119500Y-123811000I62500J0D01*
G01*
X94469500Y-123811000D01*
G75*
G02*
X94532000Y-123873500I0J-62500D01*
G01*
X94532000Y-123998500D01*
G75*
G02*
X94469500Y-124061000I-62500J0D01*
G01*
X93119500Y-124061000D01*
G75*
G02*
X93057000Y-123998500I0J62500D01*
G01*
G37*
G36*
G01*
X93057000Y-123598500D02*
X93057000Y-123473500D01*
G75*
G02*
X93119500Y-123411000I62500J0D01*
G01*
X94469500Y-123411000D01*
G75*
G02*
X94532000Y-123473500I0J-62500D01*
G01*
X94532000Y-123598500D01*
G75*
G02*
X94469500Y-123661000I-62500J0D01*
G01*
X93119500Y-123661000D01*
G75*
G02*
X93057000Y-123598500I0J62500D01*
G01*
G37*
G36*
G01*
X93057000Y-123198500D02*
X93057000Y-123073500D01*
G75*
G02*
X93119500Y-123011000I62500J0D01*
G01*
X94469500Y-123011000D01*
G75*
G02*
X94532000Y-123073500I0J-62500D01*
G01*
X94532000Y-123198500D01*
G75*
G02*
X94469500Y-123261000I-62500J0D01*
G01*
X93119500Y-123261000D01*
G75*
G02*
X93057000Y-123198500I0J62500D01*
G01*
G37*
G36*
G01*
X93057000Y-122798500D02*
X93057000Y-122673500D01*
G75*
G02*
X93119500Y-122611000I62500J0D01*
G01*
X94469500Y-122611000D01*
G75*
G02*
X94532000Y-122673500I0J-62500D01*
G01*
X94532000Y-122798500D01*
G75*
G02*
X94469500Y-122861000I-62500J0D01*
G01*
X93119500Y-122861000D01*
G75*
G02*
X93057000Y-122798500I0J62500D01*
G01*
G37*
G36*
G01*
X93057000Y-122398500D02*
X93057000Y-122273500D01*
G75*
G02*
X93119500Y-122211000I62500J0D01*
G01*
X94469500Y-122211000D01*
G75*
G02*
X94532000Y-122273500I0J-62500D01*
G01*
X94532000Y-122398500D01*
G75*
G02*
X94469500Y-122461000I-62500J0D01*
G01*
X93119500Y-122461000D01*
G75*
G02*
X93057000Y-122398500I0J62500D01*
G01*
G37*
G36*
G01*
X93057000Y-121998500D02*
X93057000Y-121873500D01*
G75*
G02*
X93119500Y-121811000I62500J0D01*
G01*
X94469500Y-121811000D01*
G75*
G02*
X94532000Y-121873500I0J-62500D01*
G01*
X94532000Y-121998500D01*
G75*
G02*
X94469500Y-122061000I-62500J0D01*
G01*
X93119500Y-122061000D01*
G75*
G02*
X93057000Y-121998500I0J62500D01*
G01*
G37*
G36*
G01*
X93057000Y-121598500D02*
X93057000Y-121473500D01*
G75*
G02*
X93119500Y-121411000I62500J0D01*
G01*
X94469500Y-121411000D01*
G75*
G02*
X94532000Y-121473500I0J-62500D01*
G01*
X94532000Y-121598500D01*
G75*
G02*
X94469500Y-121661000I-62500J0D01*
G01*
X93119500Y-121661000D01*
G75*
G02*
X93057000Y-121598500I0J62500D01*
G01*
G37*
G36*
G01*
X93057000Y-121198500D02*
X93057000Y-121073500D01*
G75*
G02*
X93119500Y-121011000I62500J0D01*
G01*
X94469500Y-121011000D01*
G75*
G02*
X94532000Y-121073500I0J-62500D01*
G01*
X94532000Y-121198500D01*
G75*
G02*
X94469500Y-121261000I-62500J0D01*
G01*
X93119500Y-121261000D01*
G75*
G02*
X93057000Y-121198500I0J62500D01*
G01*
G37*
G36*
G01*
X93057000Y-120798500D02*
X93057000Y-120673500D01*
G75*
G02*
X93119500Y-120611000I62500J0D01*
G01*
X94469500Y-120611000D01*
G75*
G02*
X94532000Y-120673500I0J-62500D01*
G01*
X94532000Y-120798500D01*
G75*
G02*
X94469500Y-120861000I-62500J0D01*
G01*
X93119500Y-120861000D01*
G75*
G02*
X93057000Y-120798500I0J62500D01*
G01*
G37*
G36*
G01*
X87332000Y-120798500D02*
X87332000Y-120673500D01*
G75*
G02*
X87394500Y-120611000I62500J0D01*
G01*
X88744500Y-120611000D01*
G75*
G02*
X88807000Y-120673500I0J-62500D01*
G01*
X88807000Y-120798500D01*
G75*
G02*
X88744500Y-120861000I-62500J0D01*
G01*
X87394500Y-120861000D01*
G75*
G02*
X87332000Y-120798500I0J62500D01*
G01*
G37*
G36*
G01*
X87332000Y-121198500D02*
X87332000Y-121073500D01*
G75*
G02*
X87394500Y-121011000I62500J0D01*
G01*
X88744500Y-121011000D01*
G75*
G02*
X88807000Y-121073500I0J-62500D01*
G01*
X88807000Y-121198500D01*
G75*
G02*
X88744500Y-121261000I-62500J0D01*
G01*
X87394500Y-121261000D01*
G75*
G02*
X87332000Y-121198500I0J62500D01*
G01*
G37*
G36*
G01*
X87332000Y-121598500D02*
X87332000Y-121473500D01*
G75*
G02*
X87394500Y-121411000I62500J0D01*
G01*
X88744500Y-121411000D01*
G75*
G02*
X88807000Y-121473500I0J-62500D01*
G01*
X88807000Y-121598500D01*
G75*
G02*
X88744500Y-121661000I-62500J0D01*
G01*
X87394500Y-121661000D01*
G75*
G02*
X87332000Y-121598500I0J62500D01*
G01*
G37*
G36*
G01*
X87332000Y-121998500D02*
X87332000Y-121873500D01*
G75*
G02*
X87394500Y-121811000I62500J0D01*
G01*
X88744500Y-121811000D01*
G75*
G02*
X88807000Y-121873500I0J-62500D01*
G01*
X88807000Y-121998500D01*
G75*
G02*
X88744500Y-122061000I-62500J0D01*
G01*
X87394500Y-122061000D01*
G75*
G02*
X87332000Y-121998500I0J62500D01*
G01*
G37*
G36*
G01*
X87332000Y-122398500D02*
X87332000Y-122273500D01*
G75*
G02*
X87394500Y-122211000I62500J0D01*
G01*
X88744500Y-122211000D01*
G75*
G02*
X88807000Y-122273500I0J-62500D01*
G01*
X88807000Y-122398500D01*
G75*
G02*
X88744500Y-122461000I-62500J0D01*
G01*
X87394500Y-122461000D01*
G75*
G02*
X87332000Y-122398500I0J62500D01*
G01*
G37*
G36*
G01*
X87332000Y-122798500D02*
X87332000Y-122673500D01*
G75*
G02*
X87394500Y-122611000I62500J0D01*
G01*
X88744500Y-122611000D01*
G75*
G02*
X88807000Y-122673500I0J-62500D01*
G01*
X88807000Y-122798500D01*
G75*
G02*
X88744500Y-122861000I-62500J0D01*
G01*
X87394500Y-122861000D01*
G75*
G02*
X87332000Y-122798500I0J62500D01*
G01*
G37*
G36*
G01*
X87332000Y-123198500D02*
X87332000Y-123073500D01*
G75*
G02*
X87394500Y-123011000I62500J0D01*
G01*
X88744500Y-123011000D01*
G75*
G02*
X88807000Y-123073500I0J-62500D01*
G01*
X88807000Y-123198500D01*
G75*
G02*
X88744500Y-123261000I-62500J0D01*
G01*
X87394500Y-123261000D01*
G75*
G02*
X87332000Y-123198500I0J62500D01*
G01*
G37*
G36*
G01*
X87332000Y-123598500D02*
X87332000Y-123473500D01*
G75*
G02*
X87394500Y-123411000I62500J0D01*
G01*
X88744500Y-123411000D01*
G75*
G02*
X88807000Y-123473500I0J-62500D01*
G01*
X88807000Y-123598500D01*
G75*
G02*
X88744500Y-123661000I-62500J0D01*
G01*
X87394500Y-123661000D01*
G75*
G02*
X87332000Y-123598500I0J62500D01*
G01*
G37*
G36*
G01*
X87332000Y-123998500D02*
X87332000Y-123873500D01*
G75*
G02*
X87394500Y-123811000I62500J0D01*
G01*
X88744500Y-123811000D01*
G75*
G02*
X88807000Y-123873500I0J-62500D01*
G01*
X88807000Y-123998500D01*
G75*
G02*
X88744500Y-124061000I-62500J0D01*
G01*
X87394500Y-124061000D01*
G75*
G02*
X87332000Y-123998500I0J62500D01*
G01*
G37*
G36*
G01*
X87332000Y-124398500D02*
X87332000Y-124273500D01*
G75*
G02*
X87394500Y-124211000I62500J0D01*
G01*
X88744500Y-124211000D01*
G75*
G02*
X88807000Y-124273500I0J-62500D01*
G01*
X88807000Y-124398500D01*
G75*
G02*
X88744500Y-124461000I-62500J0D01*
G01*
X87394500Y-124461000D01*
G75*
G02*
X87332000Y-124398500I0J62500D01*
G01*
G37*
G36*
G01*
X87332000Y-124798500D02*
X87332000Y-124673500D01*
G75*
G02*
X87394500Y-124611000I62500J0D01*
G01*
X88744500Y-124611000D01*
G75*
G02*
X88807000Y-124673500I0J-62500D01*
G01*
X88807000Y-124798500D01*
G75*
G02*
X88744500Y-124861000I-62500J0D01*
G01*
X87394500Y-124861000D01*
G75*
G02*
X87332000Y-124798500I0J62500D01*
G01*
G37*
G36*
G01*
X87332000Y-125198500D02*
X87332000Y-125073500D01*
G75*
G02*
X87394500Y-125011000I62500J0D01*
G01*
X88744500Y-125011000D01*
G75*
G02*
X88807000Y-125073500I0J-62500D01*
G01*
X88807000Y-125198500D01*
G75*
G02*
X88744500Y-125261000I-62500J0D01*
G01*
X87394500Y-125261000D01*
G75*
G02*
X87332000Y-125198500I0J62500D01*
G01*
G37*
%TD*%
%TO.C,TSSOP20*%
G36*
G01*
X104487000Y-125261000D02*
X104487000Y-125111000D01*
G75*
G02*
X104562000Y-125036000I75000J0D01*
G01*
X105887000Y-125036000D01*
G75*
G02*
X105962000Y-125111000I0J-75000D01*
G01*
X105962000Y-125261000D01*
G75*
G02*
X105887000Y-125336000I-75000J0D01*
G01*
X104562000Y-125336000D01*
G75*
G02*
X104487000Y-125261000I0J75000D01*
G01*
G37*
G36*
G01*
X104487000Y-124761000D02*
X104487000Y-124611000D01*
G75*
G02*
X104562000Y-124536000I75000J0D01*
G01*
X105887000Y-124536000D01*
G75*
G02*
X105962000Y-124611000I0J-75000D01*
G01*
X105962000Y-124761000D01*
G75*
G02*
X105887000Y-124836000I-75000J0D01*
G01*
X104562000Y-124836000D01*
G75*
G02*
X104487000Y-124761000I0J75000D01*
G01*
G37*
G36*
G01*
X104487000Y-124261000D02*
X104487000Y-124111000D01*
G75*
G02*
X104562000Y-124036000I75000J0D01*
G01*
X105887000Y-124036000D01*
G75*
G02*
X105962000Y-124111000I0J-75000D01*
G01*
X105962000Y-124261000D01*
G75*
G02*
X105887000Y-124336000I-75000J0D01*
G01*
X104562000Y-124336000D01*
G75*
G02*
X104487000Y-124261000I0J75000D01*
G01*
G37*
G36*
G01*
X104487000Y-123761000D02*
X104487000Y-123611000D01*
G75*
G02*
X104562000Y-123536000I75000J0D01*
G01*
X105887000Y-123536000D01*
G75*
G02*
X105962000Y-123611000I0J-75000D01*
G01*
X105962000Y-123761000D01*
G75*
G02*
X105887000Y-123836000I-75000J0D01*
G01*
X104562000Y-123836000D01*
G75*
G02*
X104487000Y-123761000I0J75000D01*
G01*
G37*
G36*
G01*
X104487000Y-123261000D02*
X104487000Y-123111000D01*
G75*
G02*
X104562000Y-123036000I75000J0D01*
G01*
X105887000Y-123036000D01*
G75*
G02*
X105962000Y-123111000I0J-75000D01*
G01*
X105962000Y-123261000D01*
G75*
G02*
X105887000Y-123336000I-75000J0D01*
G01*
X104562000Y-123336000D01*
G75*
G02*
X104487000Y-123261000I0J75000D01*
G01*
G37*
G36*
G01*
X104487000Y-122761000D02*
X104487000Y-122611000D01*
G75*
G02*
X104562000Y-122536000I75000J0D01*
G01*
X105887000Y-122536000D01*
G75*
G02*
X105962000Y-122611000I0J-75000D01*
G01*
X105962000Y-122761000D01*
G75*
G02*
X105887000Y-122836000I-75000J0D01*
G01*
X104562000Y-122836000D01*
G75*
G02*
X104487000Y-122761000I0J75000D01*
G01*
G37*
G36*
G01*
X104487000Y-122261000D02*
X104487000Y-122111000D01*
G75*
G02*
X104562000Y-122036000I75000J0D01*
G01*
X105887000Y-122036000D01*
G75*
G02*
X105962000Y-122111000I0J-75000D01*
G01*
X105962000Y-122261000D01*
G75*
G02*
X105887000Y-122336000I-75000J0D01*
G01*
X104562000Y-122336000D01*
G75*
G02*
X104487000Y-122261000I0J75000D01*
G01*
G37*
G36*
G01*
X104487000Y-121761000D02*
X104487000Y-121611000D01*
G75*
G02*
X104562000Y-121536000I75000J0D01*
G01*
X105887000Y-121536000D01*
G75*
G02*
X105962000Y-121611000I0J-75000D01*
G01*
X105962000Y-121761000D01*
G75*
G02*
X105887000Y-121836000I-75000J0D01*
G01*
X104562000Y-121836000D01*
G75*
G02*
X104487000Y-121761000I0J75000D01*
G01*
G37*
G36*
G01*
X104487000Y-121261000D02*
X104487000Y-121111000D01*
G75*
G02*
X104562000Y-121036000I75000J0D01*
G01*
X105887000Y-121036000D01*
G75*
G02*
X105962000Y-121111000I0J-75000D01*
G01*
X105962000Y-121261000D01*
G75*
G02*
X105887000Y-121336000I-75000J0D01*
G01*
X104562000Y-121336000D01*
G75*
G02*
X104487000Y-121261000I0J75000D01*
G01*
G37*
G36*
G01*
X104487000Y-120761000D02*
X104487000Y-120611000D01*
G75*
G02*
X104562000Y-120536000I75000J0D01*
G01*
X105887000Y-120536000D01*
G75*
G02*
X105962000Y-120611000I0J-75000D01*
G01*
X105962000Y-120761000D01*
G75*
G02*
X105887000Y-120836000I-75000J0D01*
G01*
X104562000Y-120836000D01*
G75*
G02*
X104487000Y-120761000I0J75000D01*
G01*
G37*
G36*
G01*
X98762000Y-120761000D02*
X98762000Y-120611000D01*
G75*
G02*
X98837000Y-120536000I75000J0D01*
G01*
X100162000Y-120536000D01*
G75*
G02*
X100237000Y-120611000I0J-75000D01*
G01*
X100237000Y-120761000D01*
G75*
G02*
X100162000Y-120836000I-75000J0D01*
G01*
X98837000Y-120836000D01*
G75*
G02*
X98762000Y-120761000I0J75000D01*
G01*
G37*
G36*
G01*
X98762000Y-121261000D02*
X98762000Y-121111000D01*
G75*
G02*
X98837000Y-121036000I75000J0D01*
G01*
X100162000Y-121036000D01*
G75*
G02*
X100237000Y-121111000I0J-75000D01*
G01*
X100237000Y-121261000D01*
G75*
G02*
X100162000Y-121336000I-75000J0D01*
G01*
X98837000Y-121336000D01*
G75*
G02*
X98762000Y-121261000I0J75000D01*
G01*
G37*
G36*
G01*
X98762000Y-121761000D02*
X98762000Y-121611000D01*
G75*
G02*
X98837000Y-121536000I75000J0D01*
G01*
X100162000Y-121536000D01*
G75*
G02*
X100237000Y-121611000I0J-75000D01*
G01*
X100237000Y-121761000D01*
G75*
G02*
X100162000Y-121836000I-75000J0D01*
G01*
X98837000Y-121836000D01*
G75*
G02*
X98762000Y-121761000I0J75000D01*
G01*
G37*
G36*
G01*
X98762000Y-122261000D02*
X98762000Y-122111000D01*
G75*
G02*
X98837000Y-122036000I75000J0D01*
G01*
X100162000Y-122036000D01*
G75*
G02*
X100237000Y-122111000I0J-75000D01*
G01*
X100237000Y-122261000D01*
G75*
G02*
X100162000Y-122336000I-75000J0D01*
G01*
X98837000Y-122336000D01*
G75*
G02*
X98762000Y-122261000I0J75000D01*
G01*
G37*
G36*
G01*
X98762000Y-122761000D02*
X98762000Y-122611000D01*
G75*
G02*
X98837000Y-122536000I75000J0D01*
G01*
X100162000Y-122536000D01*
G75*
G02*
X100237000Y-122611000I0J-75000D01*
G01*
X100237000Y-122761000D01*
G75*
G02*
X100162000Y-122836000I-75000J0D01*
G01*
X98837000Y-122836000D01*
G75*
G02*
X98762000Y-122761000I0J75000D01*
G01*
G37*
G36*
G01*
X98762000Y-123261000D02*
X98762000Y-123111000D01*
G75*
G02*
X98837000Y-123036000I75000J0D01*
G01*
X100162000Y-123036000D01*
G75*
G02*
X100237000Y-123111000I0J-75000D01*
G01*
X100237000Y-123261000D01*
G75*
G02*
X100162000Y-123336000I-75000J0D01*
G01*
X98837000Y-123336000D01*
G75*
G02*
X98762000Y-123261000I0J75000D01*
G01*
G37*
G36*
G01*
X98762000Y-123761000D02*
X98762000Y-123611000D01*
G75*
G02*
X98837000Y-123536000I75000J0D01*
G01*
X100162000Y-123536000D01*
G75*
G02*
X100237000Y-123611000I0J-75000D01*
G01*
X100237000Y-123761000D01*
G75*
G02*
X100162000Y-123836000I-75000J0D01*
G01*
X98837000Y-123836000D01*
G75*
G02*
X98762000Y-123761000I0J75000D01*
G01*
G37*
G36*
G01*
X98762000Y-124261000D02*
X98762000Y-124111000D01*
G75*
G02*
X98837000Y-124036000I75000J0D01*
G01*
X100162000Y-124036000D01*
G75*
G02*
X100237000Y-124111000I0J-75000D01*
G01*
X100237000Y-124261000D01*
G75*
G02*
X100162000Y-124336000I-75000J0D01*
G01*
X98837000Y-124336000D01*
G75*
G02*
X98762000Y-124261000I0J75000D01*
G01*
G37*
G36*
G01*
X98762000Y-124761000D02*
X98762000Y-124611000D01*
G75*
G02*
X98837000Y-124536000I75000J0D01*
G01*
X100162000Y-124536000D01*
G75*
G02*
X100237000Y-124611000I0J-75000D01*
G01*
X100237000Y-124761000D01*
G75*
G02*
X100162000Y-124836000I-75000J0D01*
G01*
X98837000Y-124836000D01*
G75*
G02*
X98762000Y-124761000I0J75000D01*
G01*
G37*
G36*
G01*
X98762000Y-125261000D02*
X98762000Y-125111000D01*
G75*
G02*
X98837000Y-125036000I75000J0D01*
G01*
X100162000Y-125036000D01*
G75*
G02*
X100237000Y-125111000I0J-75000D01*
G01*
X100237000Y-125261000D01*
G75*
G02*
X100162000Y-125336000I-75000J0D01*
G01*
X98837000Y-125336000D01*
G75*
G02*
X98762000Y-125261000I0J75000D01*
G01*
G37*
%TD*%
%TO.C,TSSOP16*%
G36*
G01*
X93057000Y-117691000D02*
X93057000Y-117491000D01*
G75*
G02*
X93157000Y-117391000I100000J0D01*
G01*
X94432000Y-117391000D01*
G75*
G02*
X94532000Y-117491000I0J-100000D01*
G01*
X94532000Y-117691000D01*
G75*
G02*
X94432000Y-117791000I-100000J0D01*
G01*
X93157000Y-117791000D01*
G75*
G02*
X93057000Y-117691000I0J100000D01*
G01*
G37*
G36*
G01*
X93057000Y-117041000D02*
X93057000Y-116841000D01*
G75*
G02*
X93157000Y-116741000I100000J0D01*
G01*
X94432000Y-116741000D01*
G75*
G02*
X94532000Y-116841000I0J-100000D01*
G01*
X94532000Y-117041000D01*
G75*
G02*
X94432000Y-117141000I-100000J0D01*
G01*
X93157000Y-117141000D01*
G75*
G02*
X93057000Y-117041000I0J100000D01*
G01*
G37*
G36*
G01*
X93057000Y-116391000D02*
X93057000Y-116191000D01*
G75*
G02*
X93157000Y-116091000I100000J0D01*
G01*
X94432000Y-116091000D01*
G75*
G02*
X94532000Y-116191000I0J-100000D01*
G01*
X94532000Y-116391000D01*
G75*
G02*
X94432000Y-116491000I-100000J0D01*
G01*
X93157000Y-116491000D01*
G75*
G02*
X93057000Y-116391000I0J100000D01*
G01*
G37*
G36*
G01*
X93057000Y-115741000D02*
X93057000Y-115541000D01*
G75*
G02*
X93157000Y-115441000I100000J0D01*
G01*
X94432000Y-115441000D01*
G75*
G02*
X94532000Y-115541000I0J-100000D01*
G01*
X94532000Y-115741000D01*
G75*
G02*
X94432000Y-115841000I-100000J0D01*
G01*
X93157000Y-115841000D01*
G75*
G02*
X93057000Y-115741000I0J100000D01*
G01*
G37*
G36*
G01*
X93057000Y-115091000D02*
X93057000Y-114891000D01*
G75*
G02*
X93157000Y-114791000I100000J0D01*
G01*
X94432000Y-114791000D01*
G75*
G02*
X94532000Y-114891000I0J-100000D01*
G01*
X94532000Y-115091000D01*
G75*
G02*
X94432000Y-115191000I-100000J0D01*
G01*
X93157000Y-115191000D01*
G75*
G02*
X93057000Y-115091000I0J100000D01*
G01*
G37*
G36*
G01*
X93057000Y-114441000D02*
X93057000Y-114241000D01*
G75*
G02*
X93157000Y-114141000I100000J0D01*
G01*
X94432000Y-114141000D01*
G75*
G02*
X94532000Y-114241000I0J-100000D01*
G01*
X94532000Y-114441000D01*
G75*
G02*
X94432000Y-114541000I-100000J0D01*
G01*
X93157000Y-114541000D01*
G75*
G02*
X93057000Y-114441000I0J100000D01*
G01*
G37*
G36*
G01*
X93057000Y-113791000D02*
X93057000Y-113591000D01*
G75*
G02*
X93157000Y-113491000I100000J0D01*
G01*
X94432000Y-113491000D01*
G75*
G02*
X94532000Y-113591000I0J-100000D01*
G01*
X94532000Y-113791000D01*
G75*
G02*
X94432000Y-113891000I-100000J0D01*
G01*
X93157000Y-113891000D01*
G75*
G02*
X93057000Y-113791000I0J100000D01*
G01*
G37*
G36*
G01*
X93057000Y-113141000D02*
X93057000Y-112941000D01*
G75*
G02*
X93157000Y-112841000I100000J0D01*
G01*
X94432000Y-112841000D01*
G75*
G02*
X94532000Y-112941000I0J-100000D01*
G01*
X94532000Y-113141000D01*
G75*
G02*
X94432000Y-113241000I-100000J0D01*
G01*
X93157000Y-113241000D01*
G75*
G02*
X93057000Y-113141000I0J100000D01*
G01*
G37*
G36*
G01*
X87332000Y-113141000D02*
X87332000Y-112941000D01*
G75*
G02*
X87432000Y-112841000I100000J0D01*
G01*
X88707000Y-112841000D01*
G75*
G02*
X88807000Y-112941000I0J-100000D01*
G01*
X88807000Y-113141000D01*
G75*
G02*
X88707000Y-113241000I-100000J0D01*
G01*
X87432000Y-113241000D01*
G75*
G02*
X87332000Y-113141000I0J100000D01*
G01*
G37*
G36*
G01*
X87332000Y-113791000D02*
X87332000Y-113591000D01*
G75*
G02*
X87432000Y-113491000I100000J0D01*
G01*
X88707000Y-113491000D01*
G75*
G02*
X88807000Y-113591000I0J-100000D01*
G01*
X88807000Y-113791000D01*
G75*
G02*
X88707000Y-113891000I-100000J0D01*
G01*
X87432000Y-113891000D01*
G75*
G02*
X87332000Y-113791000I0J100000D01*
G01*
G37*
G36*
G01*
X87332000Y-114441000D02*
X87332000Y-114241000D01*
G75*
G02*
X87432000Y-114141000I100000J0D01*
G01*
X88707000Y-114141000D01*
G75*
G02*
X88807000Y-114241000I0J-100000D01*
G01*
X88807000Y-114441000D01*
G75*
G02*
X88707000Y-114541000I-100000J0D01*
G01*
X87432000Y-114541000D01*
G75*
G02*
X87332000Y-114441000I0J100000D01*
G01*
G37*
G36*
G01*
X87332000Y-115091000D02*
X87332000Y-114891000D01*
G75*
G02*
X87432000Y-114791000I100000J0D01*
G01*
X88707000Y-114791000D01*
G75*
G02*
X88807000Y-114891000I0J-100000D01*
G01*
X88807000Y-115091000D01*
G75*
G02*
X88707000Y-115191000I-100000J0D01*
G01*
X87432000Y-115191000D01*
G75*
G02*
X87332000Y-115091000I0J100000D01*
G01*
G37*
G36*
G01*
X87332000Y-115741000D02*
X87332000Y-115541000D01*
G75*
G02*
X87432000Y-115441000I100000J0D01*
G01*
X88707000Y-115441000D01*
G75*
G02*
X88807000Y-115541000I0J-100000D01*
G01*
X88807000Y-115741000D01*
G75*
G02*
X88707000Y-115841000I-100000J0D01*
G01*
X87432000Y-115841000D01*
G75*
G02*
X87332000Y-115741000I0J100000D01*
G01*
G37*
G36*
G01*
X87332000Y-116391000D02*
X87332000Y-116191000D01*
G75*
G02*
X87432000Y-116091000I100000J0D01*
G01*
X88707000Y-116091000D01*
G75*
G02*
X88807000Y-116191000I0J-100000D01*
G01*
X88807000Y-116391000D01*
G75*
G02*
X88707000Y-116491000I-100000J0D01*
G01*
X87432000Y-116491000D01*
G75*
G02*
X87332000Y-116391000I0J100000D01*
G01*
G37*
G36*
G01*
X87332000Y-117041000D02*
X87332000Y-116841000D01*
G75*
G02*
X87432000Y-116741000I100000J0D01*
G01*
X88707000Y-116741000D01*
G75*
G02*
X88807000Y-116841000I0J-100000D01*
G01*
X88807000Y-117041000D01*
G75*
G02*
X88707000Y-117141000I-100000J0D01*
G01*
X87432000Y-117141000D01*
G75*
G02*
X87332000Y-117041000I0J100000D01*
G01*
G37*
G36*
G01*
X87332000Y-117691000D02*
X87332000Y-117491000D01*
G75*
G02*
X87432000Y-117391000I100000J0D01*
G01*
X88707000Y-117391000D01*
G75*
G02*
X88807000Y-117491000I0J-100000D01*
G01*
X88807000Y-117691000D01*
G75*
G02*
X88707000Y-117791000I-100000J0D01*
G01*
X87432000Y-117791000D01*
G75*
G02*
X87332000Y-117691000I0J100000D01*
G01*
G37*
%TD*%
%TO.C,TSSOP14*%
G36*
G01*
X104487000Y-117366000D02*
X104487000Y-117166000D01*
G75*
G02*
X104587000Y-117066000I100000J0D01*
G01*
X105862000Y-117066000D01*
G75*
G02*
X105962000Y-117166000I0J-100000D01*
G01*
X105962000Y-117366000D01*
G75*
G02*
X105862000Y-117466000I-100000J0D01*
G01*
X104587000Y-117466000D01*
G75*
G02*
X104487000Y-117366000I0J100000D01*
G01*
G37*
G36*
G01*
X104487000Y-116716000D02*
X104487000Y-116516000D01*
G75*
G02*
X104587000Y-116416000I100000J0D01*
G01*
X105862000Y-116416000D01*
G75*
G02*
X105962000Y-116516000I0J-100000D01*
G01*
X105962000Y-116716000D01*
G75*
G02*
X105862000Y-116816000I-100000J0D01*
G01*
X104587000Y-116816000D01*
G75*
G02*
X104487000Y-116716000I0J100000D01*
G01*
G37*
G36*
G01*
X104487000Y-116066000D02*
X104487000Y-115866000D01*
G75*
G02*
X104587000Y-115766000I100000J0D01*
G01*
X105862000Y-115766000D01*
G75*
G02*
X105962000Y-115866000I0J-100000D01*
G01*
X105962000Y-116066000D01*
G75*
G02*
X105862000Y-116166000I-100000J0D01*
G01*
X104587000Y-116166000D01*
G75*
G02*
X104487000Y-116066000I0J100000D01*
G01*
G37*
G36*
G01*
X104487000Y-115416000D02*
X104487000Y-115216000D01*
G75*
G02*
X104587000Y-115116000I100000J0D01*
G01*
X105862000Y-115116000D01*
G75*
G02*
X105962000Y-115216000I0J-100000D01*
G01*
X105962000Y-115416000D01*
G75*
G02*
X105862000Y-115516000I-100000J0D01*
G01*
X104587000Y-115516000D01*
G75*
G02*
X104487000Y-115416000I0J100000D01*
G01*
G37*
G36*
G01*
X104487000Y-114766000D02*
X104487000Y-114566000D01*
G75*
G02*
X104587000Y-114466000I100000J0D01*
G01*
X105862000Y-114466000D01*
G75*
G02*
X105962000Y-114566000I0J-100000D01*
G01*
X105962000Y-114766000D01*
G75*
G02*
X105862000Y-114866000I-100000J0D01*
G01*
X104587000Y-114866000D01*
G75*
G02*
X104487000Y-114766000I0J100000D01*
G01*
G37*
G36*
G01*
X104487000Y-114116000D02*
X104487000Y-113916000D01*
G75*
G02*
X104587000Y-113816000I100000J0D01*
G01*
X105862000Y-113816000D01*
G75*
G02*
X105962000Y-113916000I0J-100000D01*
G01*
X105962000Y-114116000D01*
G75*
G02*
X105862000Y-114216000I-100000J0D01*
G01*
X104587000Y-114216000D01*
G75*
G02*
X104487000Y-114116000I0J100000D01*
G01*
G37*
G36*
G01*
X104487000Y-113466000D02*
X104487000Y-113266000D01*
G75*
G02*
X104587000Y-113166000I100000J0D01*
G01*
X105862000Y-113166000D01*
G75*
G02*
X105962000Y-113266000I0J-100000D01*
G01*
X105962000Y-113466000D01*
G75*
G02*
X105862000Y-113566000I-100000J0D01*
G01*
X104587000Y-113566000D01*
G75*
G02*
X104487000Y-113466000I0J100000D01*
G01*
G37*
G36*
G01*
X98762000Y-113466000D02*
X98762000Y-113266000D01*
G75*
G02*
X98862000Y-113166000I100000J0D01*
G01*
X100137000Y-113166000D01*
G75*
G02*
X100237000Y-113266000I0J-100000D01*
G01*
X100237000Y-113466000D01*
G75*
G02*
X100137000Y-113566000I-100000J0D01*
G01*
X98862000Y-113566000D01*
G75*
G02*
X98762000Y-113466000I0J100000D01*
G01*
G37*
G36*
G01*
X98762000Y-114116000D02*
X98762000Y-113916000D01*
G75*
G02*
X98862000Y-113816000I100000J0D01*
G01*
X100137000Y-113816000D01*
G75*
G02*
X100237000Y-113916000I0J-100000D01*
G01*
X100237000Y-114116000D01*
G75*
G02*
X100137000Y-114216000I-100000J0D01*
G01*
X98862000Y-114216000D01*
G75*
G02*
X98762000Y-114116000I0J100000D01*
G01*
G37*
G36*
G01*
X98762000Y-114766000D02*
X98762000Y-114566000D01*
G75*
G02*
X98862000Y-114466000I100000J0D01*
G01*
X100137000Y-114466000D01*
G75*
G02*
X100237000Y-114566000I0J-100000D01*
G01*
X100237000Y-114766000D01*
G75*
G02*
X100137000Y-114866000I-100000J0D01*
G01*
X98862000Y-114866000D01*
G75*
G02*
X98762000Y-114766000I0J100000D01*
G01*
G37*
G36*
G01*
X98762000Y-115416000D02*
X98762000Y-115216000D01*
G75*
G02*
X98862000Y-115116000I100000J0D01*
G01*
X100137000Y-115116000D01*
G75*
G02*
X100237000Y-115216000I0J-100000D01*
G01*
X100237000Y-115416000D01*
G75*
G02*
X100137000Y-115516000I-100000J0D01*
G01*
X98862000Y-115516000D01*
G75*
G02*
X98762000Y-115416000I0J100000D01*
G01*
G37*
G36*
G01*
X98762000Y-116066000D02*
X98762000Y-115866000D01*
G75*
G02*
X98862000Y-115766000I100000J0D01*
G01*
X100137000Y-115766000D01*
G75*
G02*
X100237000Y-115866000I0J-100000D01*
G01*
X100237000Y-116066000D01*
G75*
G02*
X100137000Y-116166000I-100000J0D01*
G01*
X98862000Y-116166000D01*
G75*
G02*
X98762000Y-116066000I0J100000D01*
G01*
G37*
G36*
G01*
X98762000Y-116716000D02*
X98762000Y-116516000D01*
G75*
G02*
X98862000Y-116416000I100000J0D01*
G01*
X100137000Y-116416000D01*
G75*
G02*
X100237000Y-116516000I0J-100000D01*
G01*
X100237000Y-116716000D01*
G75*
G02*
X100137000Y-116816000I-100000J0D01*
G01*
X98862000Y-116816000D01*
G75*
G02*
X98762000Y-116716000I0J100000D01*
G01*
G37*
G36*
G01*
X98762000Y-117366000D02*
X98762000Y-117166000D01*
G75*
G02*
X98862000Y-117066000I100000J0D01*
G01*
X100137000Y-117066000D01*
G75*
G02*
X100237000Y-117166000I0J-100000D01*
G01*
X100237000Y-117366000D01*
G75*
G02*
X100137000Y-117466000I-100000J0D01*
G01*
X98862000Y-117466000D01*
G75*
G02*
X98762000Y-117366000I0J100000D01*
G01*
G37*
%TD*%
D22*
%TO.C,SOD123*%
X148970000Y-124460000D03*
X145670000Y-124460000D03*
%TD*%
D23*
%TO.C,SOD323*%
X148370000Y-120650000D03*
X146270000Y-120650000D03*
%TD*%
D24*
%TO.C,SOD523*%
X146620000Y-117602000D03*
X148020000Y-117602000D03*
%TD*%
D25*
%TO.C,SOD923*%
X147740000Y-114808000D03*
X146900000Y-114808000D03*
%TD*%
D26*
%TO.C,SMC*%
X133194000Y-120142000D03*
X126394000Y-120142000D03*
%TD*%
D27*
%TO.C,SMB*%
X141342000Y-123190000D03*
X137042000Y-123190000D03*
%TD*%
D28*
%TO.C,SMA*%
X140938000Y-116078000D03*
X136938000Y-116078000D03*
%TD*%
%TO.C,2010R*%
G36*
G01*
X149274000Y-99373000D02*
X149274000Y-97223000D01*
G75*
G02*
X149524000Y-96973000I250000J0D01*
G01*
X150249000Y-96973000D01*
G75*
G02*
X150499000Y-97223000I0J-250000D01*
G01*
X150499000Y-99373000D01*
G75*
G02*
X150249000Y-99623000I-250000J0D01*
G01*
X149524000Y-99623000D01*
G75*
G02*
X149274000Y-99373000I0J250000D01*
G01*
G37*
G36*
G01*
X144649000Y-99373000D02*
X144649000Y-97223000D01*
G75*
G02*
X144899000Y-96973000I250000J0D01*
G01*
X145624000Y-96973000D01*
G75*
G02*
X145874000Y-97223000I0J-250000D01*
G01*
X145874000Y-99373000D01*
G75*
G02*
X145624000Y-99623000I-250000J0D01*
G01*
X144899000Y-99623000D01*
G75*
G02*
X144649000Y-99373000I0J250000D01*
G01*
G37*
%TD*%
%TO.C,1210R*%
G36*
G01*
X139330000Y-93277001D02*
X139330000Y-91126999D01*
G75*
G02*
X139579999Y-90877000I249999J0D01*
G01*
X140205001Y-90877000D01*
G75*
G02*
X140455000Y-91126999I0J-249999D01*
G01*
X140455000Y-93277001D01*
G75*
G02*
X140205001Y-93527000I-249999J0D01*
G01*
X139579999Y-93527000D01*
G75*
G02*
X139330000Y-93277001I0J249999D01*
G01*
G37*
G36*
G01*
X136405000Y-93277001D02*
X136405000Y-91126999D01*
G75*
G02*
X136654999Y-90877000I249999J0D01*
G01*
X137280001Y-90877000D01*
G75*
G02*
X137530000Y-91126999I0J-249999D01*
G01*
X137530000Y-93277001D01*
G75*
G02*
X137280001Y-93527000I-249999J0D01*
G01*
X136654999Y-93527000D01*
G75*
G02*
X136405000Y-93277001I0J249999D01*
G01*
G37*
%TD*%
%TO.C,LQFP32*%
G36*
G01*
X81920000Y-94528000D02*
X81920000Y-93178000D01*
G75*
G02*
X81995000Y-93103000I75000J0D01*
G01*
X82145000Y-93103000D01*
G75*
G02*
X82220000Y-93178000I0J-75000D01*
G01*
X82220000Y-94528000D01*
G75*
G02*
X82145000Y-94603000I-75000J0D01*
G01*
X81995000Y-94603000D01*
G75*
G02*
X81920000Y-94528000I0J75000D01*
G01*
G37*
G36*
G01*
X82420000Y-94528000D02*
X82420000Y-93178000D01*
G75*
G02*
X82495000Y-93103000I75000J0D01*
G01*
X82645000Y-93103000D01*
G75*
G02*
X82720000Y-93178000I0J-75000D01*
G01*
X82720000Y-94528000D01*
G75*
G02*
X82645000Y-94603000I-75000J0D01*
G01*
X82495000Y-94603000D01*
G75*
G02*
X82420000Y-94528000I0J75000D01*
G01*
G37*
G36*
G01*
X82920000Y-94528000D02*
X82920000Y-93178000D01*
G75*
G02*
X82995000Y-93103000I75000J0D01*
G01*
X83145000Y-93103000D01*
G75*
G02*
X83220000Y-93178000I0J-75000D01*
G01*
X83220000Y-94528000D01*
G75*
G02*
X83145000Y-94603000I-75000J0D01*
G01*
X82995000Y-94603000D01*
G75*
G02*
X82920000Y-94528000I0J75000D01*
G01*
G37*
G36*
G01*
X83420000Y-94528000D02*
X83420000Y-93178000D01*
G75*
G02*
X83495000Y-93103000I75000J0D01*
G01*
X83645000Y-93103000D01*
G75*
G02*
X83720000Y-93178000I0J-75000D01*
G01*
X83720000Y-94528000D01*
G75*
G02*
X83645000Y-94603000I-75000J0D01*
G01*
X83495000Y-94603000D01*
G75*
G02*
X83420000Y-94528000I0J75000D01*
G01*
G37*
G36*
G01*
X83920000Y-94528000D02*
X83920000Y-93178000D01*
G75*
G02*
X83995000Y-93103000I75000J0D01*
G01*
X84145000Y-93103000D01*
G75*
G02*
X84220000Y-93178000I0J-75000D01*
G01*
X84220000Y-94528000D01*
G75*
G02*
X84145000Y-94603000I-75000J0D01*
G01*
X83995000Y-94603000D01*
G75*
G02*
X83920000Y-94528000I0J75000D01*
G01*
G37*
G36*
G01*
X84420000Y-94528000D02*
X84420000Y-93178000D01*
G75*
G02*
X84495000Y-93103000I75000J0D01*
G01*
X84645000Y-93103000D01*
G75*
G02*
X84720000Y-93178000I0J-75000D01*
G01*
X84720000Y-94528000D01*
G75*
G02*
X84645000Y-94603000I-75000J0D01*
G01*
X84495000Y-94603000D01*
G75*
G02*
X84420000Y-94528000I0J75000D01*
G01*
G37*
G36*
G01*
X84920000Y-94528000D02*
X84920000Y-93178000D01*
G75*
G02*
X84995000Y-93103000I75000J0D01*
G01*
X85145000Y-93103000D01*
G75*
G02*
X85220000Y-93178000I0J-75000D01*
G01*
X85220000Y-94528000D01*
G75*
G02*
X85145000Y-94603000I-75000J0D01*
G01*
X84995000Y-94603000D01*
G75*
G02*
X84920000Y-94528000I0J75000D01*
G01*
G37*
G36*
G01*
X85420000Y-94528000D02*
X85420000Y-93178000D01*
G75*
G02*
X85495000Y-93103000I75000J0D01*
G01*
X85645000Y-93103000D01*
G75*
G02*
X85720000Y-93178000I0J-75000D01*
G01*
X85720000Y-94528000D01*
G75*
G02*
X85645000Y-94603000I-75000J0D01*
G01*
X85495000Y-94603000D01*
G75*
G02*
X85420000Y-94528000I0J75000D01*
G01*
G37*
G36*
G01*
X86245000Y-92503000D02*
X86245000Y-92353000D01*
G75*
G02*
X86320000Y-92278000I75000J0D01*
G01*
X87670000Y-92278000D01*
G75*
G02*
X87745000Y-92353000I0J-75000D01*
G01*
X87745000Y-92503000D01*
G75*
G02*
X87670000Y-92578000I-75000J0D01*
G01*
X86320000Y-92578000D01*
G75*
G02*
X86245000Y-92503000I0J75000D01*
G01*
G37*
G36*
G01*
X86245000Y-92003000D02*
X86245000Y-91853000D01*
G75*
G02*
X86320000Y-91778000I75000J0D01*
G01*
X87670000Y-91778000D01*
G75*
G02*
X87745000Y-91853000I0J-75000D01*
G01*
X87745000Y-92003000D01*
G75*
G02*
X87670000Y-92078000I-75000J0D01*
G01*
X86320000Y-92078000D01*
G75*
G02*
X86245000Y-92003000I0J75000D01*
G01*
G37*
G36*
G01*
X86245000Y-91503000D02*
X86245000Y-91353000D01*
G75*
G02*
X86320000Y-91278000I75000J0D01*
G01*
X87670000Y-91278000D01*
G75*
G02*
X87745000Y-91353000I0J-75000D01*
G01*
X87745000Y-91503000D01*
G75*
G02*
X87670000Y-91578000I-75000J0D01*
G01*
X86320000Y-91578000D01*
G75*
G02*
X86245000Y-91503000I0J75000D01*
G01*
G37*
G36*
G01*
X86245000Y-91003000D02*
X86245000Y-90853000D01*
G75*
G02*
X86320000Y-90778000I75000J0D01*
G01*
X87670000Y-90778000D01*
G75*
G02*
X87745000Y-90853000I0J-75000D01*
G01*
X87745000Y-91003000D01*
G75*
G02*
X87670000Y-91078000I-75000J0D01*
G01*
X86320000Y-91078000D01*
G75*
G02*
X86245000Y-91003000I0J75000D01*
G01*
G37*
G36*
G01*
X86245000Y-90503000D02*
X86245000Y-90353000D01*
G75*
G02*
X86320000Y-90278000I75000J0D01*
G01*
X87670000Y-90278000D01*
G75*
G02*
X87745000Y-90353000I0J-75000D01*
G01*
X87745000Y-90503000D01*
G75*
G02*
X87670000Y-90578000I-75000J0D01*
G01*
X86320000Y-90578000D01*
G75*
G02*
X86245000Y-90503000I0J75000D01*
G01*
G37*
G36*
G01*
X86245000Y-90003000D02*
X86245000Y-89853000D01*
G75*
G02*
X86320000Y-89778000I75000J0D01*
G01*
X87670000Y-89778000D01*
G75*
G02*
X87745000Y-89853000I0J-75000D01*
G01*
X87745000Y-90003000D01*
G75*
G02*
X87670000Y-90078000I-75000J0D01*
G01*
X86320000Y-90078000D01*
G75*
G02*
X86245000Y-90003000I0J75000D01*
G01*
G37*
G36*
G01*
X86245000Y-89503000D02*
X86245000Y-89353000D01*
G75*
G02*
X86320000Y-89278000I75000J0D01*
G01*
X87670000Y-89278000D01*
G75*
G02*
X87745000Y-89353000I0J-75000D01*
G01*
X87745000Y-89503000D01*
G75*
G02*
X87670000Y-89578000I-75000J0D01*
G01*
X86320000Y-89578000D01*
G75*
G02*
X86245000Y-89503000I0J75000D01*
G01*
G37*
G36*
G01*
X86245000Y-89003000D02*
X86245000Y-88853000D01*
G75*
G02*
X86320000Y-88778000I75000J0D01*
G01*
X87670000Y-88778000D01*
G75*
G02*
X87745000Y-88853000I0J-75000D01*
G01*
X87745000Y-89003000D01*
G75*
G02*
X87670000Y-89078000I-75000J0D01*
G01*
X86320000Y-89078000D01*
G75*
G02*
X86245000Y-89003000I0J75000D01*
G01*
G37*
G36*
G01*
X85420000Y-88178000D02*
X85420000Y-86828000D01*
G75*
G02*
X85495000Y-86753000I75000J0D01*
G01*
X85645000Y-86753000D01*
G75*
G02*
X85720000Y-86828000I0J-75000D01*
G01*
X85720000Y-88178000D01*
G75*
G02*
X85645000Y-88253000I-75000J0D01*
G01*
X85495000Y-88253000D01*
G75*
G02*
X85420000Y-88178000I0J75000D01*
G01*
G37*
G36*
G01*
X84920000Y-88178000D02*
X84920000Y-86828000D01*
G75*
G02*
X84995000Y-86753000I75000J0D01*
G01*
X85145000Y-86753000D01*
G75*
G02*
X85220000Y-86828000I0J-75000D01*
G01*
X85220000Y-88178000D01*
G75*
G02*
X85145000Y-88253000I-75000J0D01*
G01*
X84995000Y-88253000D01*
G75*
G02*
X84920000Y-88178000I0J75000D01*
G01*
G37*
G36*
G01*
X84420000Y-88178000D02*
X84420000Y-86828000D01*
G75*
G02*
X84495000Y-86753000I75000J0D01*
G01*
X84645000Y-86753000D01*
G75*
G02*
X84720000Y-86828000I0J-75000D01*
G01*
X84720000Y-88178000D01*
G75*
G02*
X84645000Y-88253000I-75000J0D01*
G01*
X84495000Y-88253000D01*
G75*
G02*
X84420000Y-88178000I0J75000D01*
G01*
G37*
G36*
G01*
X83920000Y-88178000D02*
X83920000Y-86828000D01*
G75*
G02*
X83995000Y-86753000I75000J0D01*
G01*
X84145000Y-86753000D01*
G75*
G02*
X84220000Y-86828000I0J-75000D01*
G01*
X84220000Y-88178000D01*
G75*
G02*
X84145000Y-88253000I-75000J0D01*
G01*
X83995000Y-88253000D01*
G75*
G02*
X83920000Y-88178000I0J75000D01*
G01*
G37*
G36*
G01*
X83420000Y-88178000D02*
X83420000Y-86828000D01*
G75*
G02*
X83495000Y-86753000I75000J0D01*
G01*
X83645000Y-86753000D01*
G75*
G02*
X83720000Y-86828000I0J-75000D01*
G01*
X83720000Y-88178000D01*
G75*
G02*
X83645000Y-88253000I-75000J0D01*
G01*
X83495000Y-88253000D01*
G75*
G02*
X83420000Y-88178000I0J75000D01*
G01*
G37*
G36*
G01*
X82920000Y-88178000D02*
X82920000Y-86828000D01*
G75*
G02*
X82995000Y-86753000I75000J0D01*
G01*
X83145000Y-86753000D01*
G75*
G02*
X83220000Y-86828000I0J-75000D01*
G01*
X83220000Y-88178000D01*
G75*
G02*
X83145000Y-88253000I-75000J0D01*
G01*
X82995000Y-88253000D01*
G75*
G02*
X82920000Y-88178000I0J75000D01*
G01*
G37*
G36*
G01*
X82420000Y-88178000D02*
X82420000Y-86828000D01*
G75*
G02*
X82495000Y-86753000I75000J0D01*
G01*
X82645000Y-86753000D01*
G75*
G02*
X82720000Y-86828000I0J-75000D01*
G01*
X82720000Y-88178000D01*
G75*
G02*
X82645000Y-88253000I-75000J0D01*
G01*
X82495000Y-88253000D01*
G75*
G02*
X82420000Y-88178000I0J75000D01*
G01*
G37*
G36*
G01*
X81920000Y-88178000D02*
X81920000Y-86828000D01*
G75*
G02*
X81995000Y-86753000I75000J0D01*
G01*
X82145000Y-86753000D01*
G75*
G02*
X82220000Y-86828000I0J-75000D01*
G01*
X82220000Y-88178000D01*
G75*
G02*
X82145000Y-88253000I-75000J0D01*
G01*
X81995000Y-88253000D01*
G75*
G02*
X81920000Y-88178000I0J75000D01*
G01*
G37*
G36*
G01*
X79895000Y-89003000D02*
X79895000Y-88853000D01*
G75*
G02*
X79970000Y-88778000I75000J0D01*
G01*
X81320000Y-88778000D01*
G75*
G02*
X81395000Y-88853000I0J-75000D01*
G01*
X81395000Y-89003000D01*
G75*
G02*
X81320000Y-89078000I-75000J0D01*
G01*
X79970000Y-89078000D01*
G75*
G02*
X79895000Y-89003000I0J75000D01*
G01*
G37*
G36*
G01*
X79895000Y-89503000D02*
X79895000Y-89353000D01*
G75*
G02*
X79970000Y-89278000I75000J0D01*
G01*
X81320000Y-89278000D01*
G75*
G02*
X81395000Y-89353000I0J-75000D01*
G01*
X81395000Y-89503000D01*
G75*
G02*
X81320000Y-89578000I-75000J0D01*
G01*
X79970000Y-89578000D01*
G75*
G02*
X79895000Y-89503000I0J75000D01*
G01*
G37*
G36*
G01*
X79895000Y-90003000D02*
X79895000Y-89853000D01*
G75*
G02*
X79970000Y-89778000I75000J0D01*
G01*
X81320000Y-89778000D01*
G75*
G02*
X81395000Y-89853000I0J-75000D01*
G01*
X81395000Y-90003000D01*
G75*
G02*
X81320000Y-90078000I-75000J0D01*
G01*
X79970000Y-90078000D01*
G75*
G02*
X79895000Y-90003000I0J75000D01*
G01*
G37*
G36*
G01*
X79895000Y-90503000D02*
X79895000Y-90353000D01*
G75*
G02*
X79970000Y-90278000I75000J0D01*
G01*
X81320000Y-90278000D01*
G75*
G02*
X81395000Y-90353000I0J-75000D01*
G01*
X81395000Y-90503000D01*
G75*
G02*
X81320000Y-90578000I-75000J0D01*
G01*
X79970000Y-90578000D01*
G75*
G02*
X79895000Y-90503000I0J75000D01*
G01*
G37*
G36*
G01*
X79895000Y-91003000D02*
X79895000Y-90853000D01*
G75*
G02*
X79970000Y-90778000I75000J0D01*
G01*
X81320000Y-90778000D01*
G75*
G02*
X81395000Y-90853000I0J-75000D01*
G01*
X81395000Y-91003000D01*
G75*
G02*
X81320000Y-91078000I-75000J0D01*
G01*
X79970000Y-91078000D01*
G75*
G02*
X79895000Y-91003000I0J75000D01*
G01*
G37*
G36*
G01*
X79895000Y-91503000D02*
X79895000Y-91353000D01*
G75*
G02*
X79970000Y-91278000I75000J0D01*
G01*
X81320000Y-91278000D01*
G75*
G02*
X81395000Y-91353000I0J-75000D01*
G01*
X81395000Y-91503000D01*
G75*
G02*
X81320000Y-91578000I-75000J0D01*
G01*
X79970000Y-91578000D01*
G75*
G02*
X79895000Y-91503000I0J75000D01*
G01*
G37*
G36*
G01*
X79895000Y-92003000D02*
X79895000Y-91853000D01*
G75*
G02*
X79970000Y-91778000I75000J0D01*
G01*
X81320000Y-91778000D01*
G75*
G02*
X81395000Y-91853000I0J-75000D01*
G01*
X81395000Y-92003000D01*
G75*
G02*
X81320000Y-92078000I-75000J0D01*
G01*
X79970000Y-92078000D01*
G75*
G02*
X79895000Y-92003000I0J75000D01*
G01*
G37*
G36*
G01*
X79895000Y-92503000D02*
X79895000Y-92353000D01*
G75*
G02*
X79970000Y-92278000I75000J0D01*
G01*
X81320000Y-92278000D01*
G75*
G02*
X81395000Y-92353000I0J-75000D01*
G01*
X81395000Y-92503000D01*
G75*
G02*
X81320000Y-92578000I-75000J0D01*
G01*
X79970000Y-92578000D01*
G75*
G02*
X79895000Y-92503000I0J75000D01*
G01*
G37*
%TD*%
D29*
%TO.C,TQFP32*%
X80004000Y-106866000D03*
X80804000Y-106866000D03*
X81604000Y-106866000D03*
X82404000Y-106866000D03*
X83204000Y-106866000D03*
X84004000Y-106866000D03*
X84804000Y-106866000D03*
X85604000Y-106866000D03*
D30*
X87054000Y-105416000D03*
X87054000Y-104616000D03*
X87054000Y-103816000D03*
X87054000Y-103016000D03*
X87054000Y-102216000D03*
X87054000Y-101416000D03*
X87054000Y-100616000D03*
X87054000Y-99816000D03*
D29*
X85604000Y-98366000D03*
X84804000Y-98366000D03*
X84004000Y-98366000D03*
X83204000Y-98366000D03*
X82404000Y-98366000D03*
X81604000Y-98366000D03*
X80804000Y-98366000D03*
X80004000Y-98366000D03*
D30*
X78554000Y-99816000D03*
X78554000Y-100616000D03*
X78554000Y-101416000D03*
X78554000Y-102216000D03*
X78554000Y-103016000D03*
X78554000Y-103816000D03*
X78554000Y-104616000D03*
X78554000Y-105416000D03*
%TD*%
%TO.C,QFN40*%
G36*
G01*
X76153000Y-89720500D02*
X76153000Y-89235500D01*
G75*
G02*
X76395500Y-88993000I242500J0D01*
G01*
X76880500Y-88993000D01*
G75*
G02*
X77123000Y-89235500I0J-242500D01*
G01*
X77123000Y-89720500D01*
G75*
G02*
X76880500Y-89963000I-242500J0D01*
G01*
X76395500Y-89963000D01*
G75*
G02*
X76153000Y-89720500I0J242500D01*
G01*
G37*
G36*
G01*
X76153000Y-90920500D02*
X76153000Y-90435500D01*
G75*
G02*
X76395500Y-90193000I242500J0D01*
G01*
X76880500Y-90193000D01*
G75*
G02*
X77123000Y-90435500I0J-242500D01*
G01*
X77123000Y-90920500D01*
G75*
G02*
X76880500Y-91163000I-242500J0D01*
G01*
X76395500Y-91163000D01*
G75*
G02*
X76153000Y-90920500I0J242500D01*
G01*
G37*
G36*
G01*
X76153000Y-92120500D02*
X76153000Y-91635500D01*
G75*
G02*
X76395500Y-91393000I242500J0D01*
G01*
X76880500Y-91393000D01*
G75*
G02*
X77123000Y-91635500I0J-242500D01*
G01*
X77123000Y-92120500D01*
G75*
G02*
X76880500Y-92363000I-242500J0D01*
G01*
X76395500Y-92363000D01*
G75*
G02*
X76153000Y-92120500I0J242500D01*
G01*
G37*
G36*
G01*
X74953000Y-89720500D02*
X74953000Y-89235500D01*
G75*
G02*
X75195500Y-88993000I242500J0D01*
G01*
X75680500Y-88993000D01*
G75*
G02*
X75923000Y-89235500I0J-242500D01*
G01*
X75923000Y-89720500D01*
G75*
G02*
X75680500Y-89963000I-242500J0D01*
G01*
X75195500Y-89963000D01*
G75*
G02*
X74953000Y-89720500I0J242500D01*
G01*
G37*
G36*
G01*
X74953000Y-90920500D02*
X74953000Y-90435500D01*
G75*
G02*
X75195500Y-90193000I242500J0D01*
G01*
X75680500Y-90193000D01*
G75*
G02*
X75923000Y-90435500I0J-242500D01*
G01*
X75923000Y-90920500D01*
G75*
G02*
X75680500Y-91163000I-242500J0D01*
G01*
X75195500Y-91163000D01*
G75*
G02*
X74953000Y-90920500I0J242500D01*
G01*
G37*
G36*
G01*
X74953000Y-92120500D02*
X74953000Y-91635500D01*
G75*
G02*
X75195500Y-91393000I242500J0D01*
G01*
X75680500Y-91393000D01*
G75*
G02*
X75923000Y-91635500I0J-242500D01*
G01*
X75923000Y-92120500D01*
G75*
G02*
X75680500Y-92363000I-242500J0D01*
G01*
X75195500Y-92363000D01*
G75*
G02*
X74953000Y-92120500I0J242500D01*
G01*
G37*
G36*
G01*
X73753000Y-89720500D02*
X73753000Y-89235500D01*
G75*
G02*
X73995500Y-88993000I242500J0D01*
G01*
X74480500Y-88993000D01*
G75*
G02*
X74723000Y-89235500I0J-242500D01*
G01*
X74723000Y-89720500D01*
G75*
G02*
X74480500Y-89963000I-242500J0D01*
G01*
X73995500Y-89963000D01*
G75*
G02*
X73753000Y-89720500I0J242500D01*
G01*
G37*
G36*
G01*
X73753000Y-90920500D02*
X73753000Y-90435500D01*
G75*
G02*
X73995500Y-90193000I242500J0D01*
G01*
X74480500Y-90193000D01*
G75*
G02*
X74723000Y-90435500I0J-242500D01*
G01*
X74723000Y-90920500D01*
G75*
G02*
X74480500Y-91163000I-242500J0D01*
G01*
X73995500Y-91163000D01*
G75*
G02*
X73753000Y-90920500I0J242500D01*
G01*
G37*
G36*
G01*
X73753000Y-92120500D02*
X73753000Y-91635500D01*
G75*
G02*
X73995500Y-91393000I242500J0D01*
G01*
X74480500Y-91393000D01*
G75*
G02*
X74723000Y-91635500I0J-242500D01*
G01*
X74723000Y-92120500D01*
G75*
G02*
X74480500Y-92363000I-242500J0D01*
G01*
X73995500Y-92363000D01*
G75*
G02*
X73753000Y-92120500I0J242500D01*
G01*
G37*
G36*
G01*
X73513000Y-93465500D02*
X73513000Y-92765500D01*
G75*
G02*
X73575500Y-92703000I62500J0D01*
G01*
X73700500Y-92703000D01*
G75*
G02*
X73763000Y-92765500I0J-62500D01*
G01*
X73763000Y-93465500D01*
G75*
G02*
X73700500Y-93528000I-62500J0D01*
G01*
X73575500Y-93528000D01*
G75*
G02*
X73513000Y-93465500I0J62500D01*
G01*
G37*
G36*
G01*
X73913000Y-93465500D02*
X73913000Y-92765500D01*
G75*
G02*
X73975500Y-92703000I62500J0D01*
G01*
X74100500Y-92703000D01*
G75*
G02*
X74163000Y-92765500I0J-62500D01*
G01*
X74163000Y-93465500D01*
G75*
G02*
X74100500Y-93528000I-62500J0D01*
G01*
X73975500Y-93528000D01*
G75*
G02*
X73913000Y-93465500I0J62500D01*
G01*
G37*
G36*
G01*
X74313000Y-93465500D02*
X74313000Y-92765500D01*
G75*
G02*
X74375500Y-92703000I62500J0D01*
G01*
X74500500Y-92703000D01*
G75*
G02*
X74563000Y-92765500I0J-62500D01*
G01*
X74563000Y-93465500D01*
G75*
G02*
X74500500Y-93528000I-62500J0D01*
G01*
X74375500Y-93528000D01*
G75*
G02*
X74313000Y-93465500I0J62500D01*
G01*
G37*
G36*
G01*
X74713000Y-93465500D02*
X74713000Y-92765500D01*
G75*
G02*
X74775500Y-92703000I62500J0D01*
G01*
X74900500Y-92703000D01*
G75*
G02*
X74963000Y-92765500I0J-62500D01*
G01*
X74963000Y-93465500D01*
G75*
G02*
X74900500Y-93528000I-62500J0D01*
G01*
X74775500Y-93528000D01*
G75*
G02*
X74713000Y-93465500I0J62500D01*
G01*
G37*
G36*
G01*
X75113000Y-93465500D02*
X75113000Y-92765500D01*
G75*
G02*
X75175500Y-92703000I62500J0D01*
G01*
X75300500Y-92703000D01*
G75*
G02*
X75363000Y-92765500I0J-62500D01*
G01*
X75363000Y-93465500D01*
G75*
G02*
X75300500Y-93528000I-62500J0D01*
G01*
X75175500Y-93528000D01*
G75*
G02*
X75113000Y-93465500I0J62500D01*
G01*
G37*
G36*
G01*
X75513000Y-93465500D02*
X75513000Y-92765500D01*
G75*
G02*
X75575500Y-92703000I62500J0D01*
G01*
X75700500Y-92703000D01*
G75*
G02*
X75763000Y-92765500I0J-62500D01*
G01*
X75763000Y-93465500D01*
G75*
G02*
X75700500Y-93528000I-62500J0D01*
G01*
X75575500Y-93528000D01*
G75*
G02*
X75513000Y-93465500I0J62500D01*
G01*
G37*
G36*
G01*
X75913000Y-93465500D02*
X75913000Y-92765500D01*
G75*
G02*
X75975500Y-92703000I62500J0D01*
G01*
X76100500Y-92703000D01*
G75*
G02*
X76163000Y-92765500I0J-62500D01*
G01*
X76163000Y-93465500D01*
G75*
G02*
X76100500Y-93528000I-62500J0D01*
G01*
X75975500Y-93528000D01*
G75*
G02*
X75913000Y-93465500I0J62500D01*
G01*
G37*
G36*
G01*
X76313000Y-93465500D02*
X76313000Y-92765500D01*
G75*
G02*
X76375500Y-92703000I62500J0D01*
G01*
X76500500Y-92703000D01*
G75*
G02*
X76563000Y-92765500I0J-62500D01*
G01*
X76563000Y-93465500D01*
G75*
G02*
X76500500Y-93528000I-62500J0D01*
G01*
X76375500Y-93528000D01*
G75*
G02*
X76313000Y-93465500I0J62500D01*
G01*
G37*
G36*
G01*
X76713000Y-93465500D02*
X76713000Y-92765500D01*
G75*
G02*
X76775500Y-92703000I62500J0D01*
G01*
X76900500Y-92703000D01*
G75*
G02*
X76963000Y-92765500I0J-62500D01*
G01*
X76963000Y-93465500D01*
G75*
G02*
X76900500Y-93528000I-62500J0D01*
G01*
X76775500Y-93528000D01*
G75*
G02*
X76713000Y-93465500I0J62500D01*
G01*
G37*
G36*
G01*
X77113000Y-93465500D02*
X77113000Y-92765500D01*
G75*
G02*
X77175500Y-92703000I62500J0D01*
G01*
X77300500Y-92703000D01*
G75*
G02*
X77363000Y-92765500I0J-62500D01*
G01*
X77363000Y-93465500D01*
G75*
G02*
X77300500Y-93528000I-62500J0D01*
G01*
X77175500Y-93528000D01*
G75*
G02*
X77113000Y-93465500I0J62500D01*
G01*
G37*
G36*
G01*
X77463000Y-92540500D02*
X77463000Y-92415500D01*
G75*
G02*
X77525500Y-92353000I62500J0D01*
G01*
X78225500Y-92353000D01*
G75*
G02*
X78288000Y-92415500I0J-62500D01*
G01*
X78288000Y-92540500D01*
G75*
G02*
X78225500Y-92603000I-62500J0D01*
G01*
X77525500Y-92603000D01*
G75*
G02*
X77463000Y-92540500I0J62500D01*
G01*
G37*
G36*
G01*
X77463000Y-92140500D02*
X77463000Y-92015500D01*
G75*
G02*
X77525500Y-91953000I62500J0D01*
G01*
X78225500Y-91953000D01*
G75*
G02*
X78288000Y-92015500I0J-62500D01*
G01*
X78288000Y-92140500D01*
G75*
G02*
X78225500Y-92203000I-62500J0D01*
G01*
X77525500Y-92203000D01*
G75*
G02*
X77463000Y-92140500I0J62500D01*
G01*
G37*
G36*
G01*
X77463000Y-91740500D02*
X77463000Y-91615500D01*
G75*
G02*
X77525500Y-91553000I62500J0D01*
G01*
X78225500Y-91553000D01*
G75*
G02*
X78288000Y-91615500I0J-62500D01*
G01*
X78288000Y-91740500D01*
G75*
G02*
X78225500Y-91803000I-62500J0D01*
G01*
X77525500Y-91803000D01*
G75*
G02*
X77463000Y-91740500I0J62500D01*
G01*
G37*
G36*
G01*
X77463000Y-91340500D02*
X77463000Y-91215500D01*
G75*
G02*
X77525500Y-91153000I62500J0D01*
G01*
X78225500Y-91153000D01*
G75*
G02*
X78288000Y-91215500I0J-62500D01*
G01*
X78288000Y-91340500D01*
G75*
G02*
X78225500Y-91403000I-62500J0D01*
G01*
X77525500Y-91403000D01*
G75*
G02*
X77463000Y-91340500I0J62500D01*
G01*
G37*
G36*
G01*
X77463000Y-90940500D02*
X77463000Y-90815500D01*
G75*
G02*
X77525500Y-90753000I62500J0D01*
G01*
X78225500Y-90753000D01*
G75*
G02*
X78288000Y-90815500I0J-62500D01*
G01*
X78288000Y-90940500D01*
G75*
G02*
X78225500Y-91003000I-62500J0D01*
G01*
X77525500Y-91003000D01*
G75*
G02*
X77463000Y-90940500I0J62500D01*
G01*
G37*
G36*
G01*
X77463000Y-90540500D02*
X77463000Y-90415500D01*
G75*
G02*
X77525500Y-90353000I62500J0D01*
G01*
X78225500Y-90353000D01*
G75*
G02*
X78288000Y-90415500I0J-62500D01*
G01*
X78288000Y-90540500D01*
G75*
G02*
X78225500Y-90603000I-62500J0D01*
G01*
X77525500Y-90603000D01*
G75*
G02*
X77463000Y-90540500I0J62500D01*
G01*
G37*
G36*
G01*
X77463000Y-90140500D02*
X77463000Y-90015500D01*
G75*
G02*
X77525500Y-89953000I62500J0D01*
G01*
X78225500Y-89953000D01*
G75*
G02*
X78288000Y-90015500I0J-62500D01*
G01*
X78288000Y-90140500D01*
G75*
G02*
X78225500Y-90203000I-62500J0D01*
G01*
X77525500Y-90203000D01*
G75*
G02*
X77463000Y-90140500I0J62500D01*
G01*
G37*
G36*
G01*
X77463000Y-89740500D02*
X77463000Y-89615500D01*
G75*
G02*
X77525500Y-89553000I62500J0D01*
G01*
X78225500Y-89553000D01*
G75*
G02*
X78288000Y-89615500I0J-62500D01*
G01*
X78288000Y-89740500D01*
G75*
G02*
X78225500Y-89803000I-62500J0D01*
G01*
X77525500Y-89803000D01*
G75*
G02*
X77463000Y-89740500I0J62500D01*
G01*
G37*
G36*
G01*
X77463000Y-89340500D02*
X77463000Y-89215500D01*
G75*
G02*
X77525500Y-89153000I62500J0D01*
G01*
X78225500Y-89153000D01*
G75*
G02*
X78288000Y-89215500I0J-62500D01*
G01*
X78288000Y-89340500D01*
G75*
G02*
X78225500Y-89403000I-62500J0D01*
G01*
X77525500Y-89403000D01*
G75*
G02*
X77463000Y-89340500I0J62500D01*
G01*
G37*
G36*
G01*
X77463000Y-88940500D02*
X77463000Y-88815500D01*
G75*
G02*
X77525500Y-88753000I62500J0D01*
G01*
X78225500Y-88753000D01*
G75*
G02*
X78288000Y-88815500I0J-62500D01*
G01*
X78288000Y-88940500D01*
G75*
G02*
X78225500Y-89003000I-62500J0D01*
G01*
X77525500Y-89003000D01*
G75*
G02*
X77463000Y-88940500I0J62500D01*
G01*
G37*
G36*
G01*
X77113000Y-88590500D02*
X77113000Y-87890500D01*
G75*
G02*
X77175500Y-87828000I62500J0D01*
G01*
X77300500Y-87828000D01*
G75*
G02*
X77363000Y-87890500I0J-62500D01*
G01*
X77363000Y-88590500D01*
G75*
G02*
X77300500Y-88653000I-62500J0D01*
G01*
X77175500Y-88653000D01*
G75*
G02*
X77113000Y-88590500I0J62500D01*
G01*
G37*
G36*
G01*
X76713000Y-88590500D02*
X76713000Y-87890500D01*
G75*
G02*
X76775500Y-87828000I62500J0D01*
G01*
X76900500Y-87828000D01*
G75*
G02*
X76963000Y-87890500I0J-62500D01*
G01*
X76963000Y-88590500D01*
G75*
G02*
X76900500Y-88653000I-62500J0D01*
G01*
X76775500Y-88653000D01*
G75*
G02*
X76713000Y-88590500I0J62500D01*
G01*
G37*
G36*
G01*
X76313000Y-88590500D02*
X76313000Y-87890500D01*
G75*
G02*
X76375500Y-87828000I62500J0D01*
G01*
X76500500Y-87828000D01*
G75*
G02*
X76563000Y-87890500I0J-62500D01*
G01*
X76563000Y-88590500D01*
G75*
G02*
X76500500Y-88653000I-62500J0D01*
G01*
X76375500Y-88653000D01*
G75*
G02*
X76313000Y-88590500I0J62500D01*
G01*
G37*
G36*
G01*
X75913000Y-88590500D02*
X75913000Y-87890500D01*
G75*
G02*
X75975500Y-87828000I62500J0D01*
G01*
X76100500Y-87828000D01*
G75*
G02*
X76163000Y-87890500I0J-62500D01*
G01*
X76163000Y-88590500D01*
G75*
G02*
X76100500Y-88653000I-62500J0D01*
G01*
X75975500Y-88653000D01*
G75*
G02*
X75913000Y-88590500I0J62500D01*
G01*
G37*
G36*
G01*
X75513000Y-88590500D02*
X75513000Y-87890500D01*
G75*
G02*
X75575500Y-87828000I62500J0D01*
G01*
X75700500Y-87828000D01*
G75*
G02*
X75763000Y-87890500I0J-62500D01*
G01*
X75763000Y-88590500D01*
G75*
G02*
X75700500Y-88653000I-62500J0D01*
G01*
X75575500Y-88653000D01*
G75*
G02*
X75513000Y-88590500I0J62500D01*
G01*
G37*
G36*
G01*
X75113000Y-88590500D02*
X75113000Y-87890500D01*
G75*
G02*
X75175500Y-87828000I62500J0D01*
G01*
X75300500Y-87828000D01*
G75*
G02*
X75363000Y-87890500I0J-62500D01*
G01*
X75363000Y-88590500D01*
G75*
G02*
X75300500Y-88653000I-62500J0D01*
G01*
X75175500Y-88653000D01*
G75*
G02*
X75113000Y-88590500I0J62500D01*
G01*
G37*
G36*
G01*
X74713000Y-88590500D02*
X74713000Y-87890500D01*
G75*
G02*
X74775500Y-87828000I62500J0D01*
G01*
X74900500Y-87828000D01*
G75*
G02*
X74963000Y-87890500I0J-62500D01*
G01*
X74963000Y-88590500D01*
G75*
G02*
X74900500Y-88653000I-62500J0D01*
G01*
X74775500Y-88653000D01*
G75*
G02*
X74713000Y-88590500I0J62500D01*
G01*
G37*
G36*
G01*
X74313000Y-88590500D02*
X74313000Y-87890500D01*
G75*
G02*
X74375500Y-87828000I62500J0D01*
G01*
X74500500Y-87828000D01*
G75*
G02*
X74563000Y-87890500I0J-62500D01*
G01*
X74563000Y-88590500D01*
G75*
G02*
X74500500Y-88653000I-62500J0D01*
G01*
X74375500Y-88653000D01*
G75*
G02*
X74313000Y-88590500I0J62500D01*
G01*
G37*
G36*
G01*
X73913000Y-88590500D02*
X73913000Y-87890500D01*
G75*
G02*
X73975500Y-87828000I62500J0D01*
G01*
X74100500Y-87828000D01*
G75*
G02*
X74163000Y-87890500I0J-62500D01*
G01*
X74163000Y-88590500D01*
G75*
G02*
X74100500Y-88653000I-62500J0D01*
G01*
X73975500Y-88653000D01*
G75*
G02*
X73913000Y-88590500I0J62500D01*
G01*
G37*
G36*
G01*
X73513000Y-88590500D02*
X73513000Y-87890500D01*
G75*
G02*
X73575500Y-87828000I62500J0D01*
G01*
X73700500Y-87828000D01*
G75*
G02*
X73763000Y-87890500I0J-62500D01*
G01*
X73763000Y-88590500D01*
G75*
G02*
X73700500Y-88653000I-62500J0D01*
G01*
X73575500Y-88653000D01*
G75*
G02*
X73513000Y-88590500I0J62500D01*
G01*
G37*
G36*
G01*
X72588000Y-88940500D02*
X72588000Y-88815500D01*
G75*
G02*
X72650500Y-88753000I62500J0D01*
G01*
X73350500Y-88753000D01*
G75*
G02*
X73413000Y-88815500I0J-62500D01*
G01*
X73413000Y-88940500D01*
G75*
G02*
X73350500Y-89003000I-62500J0D01*
G01*
X72650500Y-89003000D01*
G75*
G02*
X72588000Y-88940500I0J62500D01*
G01*
G37*
G36*
G01*
X72588000Y-89340500D02*
X72588000Y-89215500D01*
G75*
G02*
X72650500Y-89153000I62500J0D01*
G01*
X73350500Y-89153000D01*
G75*
G02*
X73413000Y-89215500I0J-62500D01*
G01*
X73413000Y-89340500D01*
G75*
G02*
X73350500Y-89403000I-62500J0D01*
G01*
X72650500Y-89403000D01*
G75*
G02*
X72588000Y-89340500I0J62500D01*
G01*
G37*
G36*
G01*
X72588000Y-89740500D02*
X72588000Y-89615500D01*
G75*
G02*
X72650500Y-89553000I62500J0D01*
G01*
X73350500Y-89553000D01*
G75*
G02*
X73413000Y-89615500I0J-62500D01*
G01*
X73413000Y-89740500D01*
G75*
G02*
X73350500Y-89803000I-62500J0D01*
G01*
X72650500Y-89803000D01*
G75*
G02*
X72588000Y-89740500I0J62500D01*
G01*
G37*
G36*
G01*
X72588000Y-90140500D02*
X72588000Y-90015500D01*
G75*
G02*
X72650500Y-89953000I62500J0D01*
G01*
X73350500Y-89953000D01*
G75*
G02*
X73413000Y-90015500I0J-62500D01*
G01*
X73413000Y-90140500D01*
G75*
G02*
X73350500Y-90203000I-62500J0D01*
G01*
X72650500Y-90203000D01*
G75*
G02*
X72588000Y-90140500I0J62500D01*
G01*
G37*
G36*
G01*
X72588000Y-90540500D02*
X72588000Y-90415500D01*
G75*
G02*
X72650500Y-90353000I62500J0D01*
G01*
X73350500Y-90353000D01*
G75*
G02*
X73413000Y-90415500I0J-62500D01*
G01*
X73413000Y-90540500D01*
G75*
G02*
X73350500Y-90603000I-62500J0D01*
G01*
X72650500Y-90603000D01*
G75*
G02*
X72588000Y-90540500I0J62500D01*
G01*
G37*
G36*
G01*
X72588000Y-90940500D02*
X72588000Y-90815500D01*
G75*
G02*
X72650500Y-90753000I62500J0D01*
G01*
X73350500Y-90753000D01*
G75*
G02*
X73413000Y-90815500I0J-62500D01*
G01*
X73413000Y-90940500D01*
G75*
G02*
X73350500Y-91003000I-62500J0D01*
G01*
X72650500Y-91003000D01*
G75*
G02*
X72588000Y-90940500I0J62500D01*
G01*
G37*
G36*
G01*
X72588000Y-91340500D02*
X72588000Y-91215500D01*
G75*
G02*
X72650500Y-91153000I62500J0D01*
G01*
X73350500Y-91153000D01*
G75*
G02*
X73413000Y-91215500I0J-62500D01*
G01*
X73413000Y-91340500D01*
G75*
G02*
X73350500Y-91403000I-62500J0D01*
G01*
X72650500Y-91403000D01*
G75*
G02*
X72588000Y-91340500I0J62500D01*
G01*
G37*
G36*
G01*
X72588000Y-91740500D02*
X72588000Y-91615500D01*
G75*
G02*
X72650500Y-91553000I62500J0D01*
G01*
X73350500Y-91553000D01*
G75*
G02*
X73413000Y-91615500I0J-62500D01*
G01*
X73413000Y-91740500D01*
G75*
G02*
X73350500Y-91803000I-62500J0D01*
G01*
X72650500Y-91803000D01*
G75*
G02*
X72588000Y-91740500I0J62500D01*
G01*
G37*
G36*
G01*
X72588000Y-92140500D02*
X72588000Y-92015500D01*
G75*
G02*
X72650500Y-91953000I62500J0D01*
G01*
X73350500Y-91953000D01*
G75*
G02*
X73413000Y-92015500I0J-62500D01*
G01*
X73413000Y-92140500D01*
G75*
G02*
X73350500Y-92203000I-62500J0D01*
G01*
X72650500Y-92203000D01*
G75*
G02*
X72588000Y-92140500I0J62500D01*
G01*
G37*
G36*
G01*
X72588000Y-92540500D02*
X72588000Y-92415500D01*
G75*
G02*
X72650500Y-92353000I62500J0D01*
G01*
X73350500Y-92353000D01*
G75*
G02*
X73413000Y-92415500I0J-62500D01*
G01*
X73413000Y-92540500D01*
G75*
G02*
X73350500Y-92603000I-62500J0D01*
G01*
X72650500Y-92603000D01*
G75*
G02*
X72588000Y-92540500I0J62500D01*
G01*
G37*
%TD*%
%TO.C,QFN28*%
G36*
G01*
X68690000Y-90335500D02*
X68690000Y-89870500D01*
G75*
G02*
X68922500Y-89638000I232500J0D01*
G01*
X69387500Y-89638000D01*
G75*
G02*
X69620000Y-89870500I0J-232500D01*
G01*
X69620000Y-90335500D01*
G75*
G02*
X69387500Y-90568000I-232500J0D01*
G01*
X68922500Y-90568000D01*
G75*
G02*
X68690000Y-90335500I0J232500D01*
G01*
G37*
G36*
G01*
X68690000Y-91485500D02*
X68690000Y-91020500D01*
G75*
G02*
X68922500Y-90788000I232500J0D01*
G01*
X69387500Y-90788000D01*
G75*
G02*
X69620000Y-91020500I0J-232500D01*
G01*
X69620000Y-91485500D01*
G75*
G02*
X69387500Y-91718000I-232500J0D01*
G01*
X68922500Y-91718000D01*
G75*
G02*
X68690000Y-91485500I0J232500D01*
G01*
G37*
G36*
G01*
X67540000Y-90335500D02*
X67540000Y-89870500D01*
G75*
G02*
X67772500Y-89638000I232500J0D01*
G01*
X68237500Y-89638000D01*
G75*
G02*
X68470000Y-89870500I0J-232500D01*
G01*
X68470000Y-90335500D01*
G75*
G02*
X68237500Y-90568000I-232500J0D01*
G01*
X67772500Y-90568000D01*
G75*
G02*
X67540000Y-90335500I0J232500D01*
G01*
G37*
G36*
G01*
X67540000Y-91485500D02*
X67540000Y-91020500D01*
G75*
G02*
X67772500Y-90788000I232500J0D01*
G01*
X68237500Y-90788000D01*
G75*
G02*
X68470000Y-91020500I0J-232500D01*
G01*
X68470000Y-91485500D01*
G75*
G02*
X68237500Y-91718000I-232500J0D01*
G01*
X67772500Y-91718000D01*
G75*
G02*
X67540000Y-91485500I0J232500D01*
G01*
G37*
G36*
G01*
X67280000Y-92978000D02*
X67280000Y-92253000D01*
G75*
G02*
X67330000Y-92203000I50000J0D01*
G01*
X67430000Y-92203000D01*
G75*
G02*
X67480000Y-92253000I0J-50000D01*
G01*
X67480000Y-92978000D01*
G75*
G02*
X67430000Y-93028000I-50000J0D01*
G01*
X67330000Y-93028000D01*
G75*
G02*
X67280000Y-92978000I0J50000D01*
G01*
G37*
G36*
G01*
X67680000Y-92978000D02*
X67680000Y-92253000D01*
G75*
G02*
X67730000Y-92203000I50000J0D01*
G01*
X67830000Y-92203000D01*
G75*
G02*
X67880000Y-92253000I0J-50000D01*
G01*
X67880000Y-92978000D01*
G75*
G02*
X67830000Y-93028000I-50000J0D01*
G01*
X67730000Y-93028000D01*
G75*
G02*
X67680000Y-92978000I0J50000D01*
G01*
G37*
G36*
G01*
X68080000Y-92978000D02*
X68080000Y-92253000D01*
G75*
G02*
X68130000Y-92203000I50000J0D01*
G01*
X68230000Y-92203000D01*
G75*
G02*
X68280000Y-92253000I0J-50000D01*
G01*
X68280000Y-92978000D01*
G75*
G02*
X68230000Y-93028000I-50000J0D01*
G01*
X68130000Y-93028000D01*
G75*
G02*
X68080000Y-92978000I0J50000D01*
G01*
G37*
G36*
G01*
X68480000Y-92978000D02*
X68480000Y-92253000D01*
G75*
G02*
X68530000Y-92203000I50000J0D01*
G01*
X68630000Y-92203000D01*
G75*
G02*
X68680000Y-92253000I0J-50000D01*
G01*
X68680000Y-92978000D01*
G75*
G02*
X68630000Y-93028000I-50000J0D01*
G01*
X68530000Y-93028000D01*
G75*
G02*
X68480000Y-92978000I0J50000D01*
G01*
G37*
G36*
G01*
X68880000Y-92978000D02*
X68880000Y-92253000D01*
G75*
G02*
X68930000Y-92203000I50000J0D01*
G01*
X69030000Y-92203000D01*
G75*
G02*
X69080000Y-92253000I0J-50000D01*
G01*
X69080000Y-92978000D01*
G75*
G02*
X69030000Y-93028000I-50000J0D01*
G01*
X68930000Y-93028000D01*
G75*
G02*
X68880000Y-92978000I0J50000D01*
G01*
G37*
G36*
G01*
X69280000Y-92978000D02*
X69280000Y-92253000D01*
G75*
G02*
X69330000Y-92203000I50000J0D01*
G01*
X69430000Y-92203000D01*
G75*
G02*
X69480000Y-92253000I0J-50000D01*
G01*
X69480000Y-92978000D01*
G75*
G02*
X69430000Y-93028000I-50000J0D01*
G01*
X69330000Y-93028000D01*
G75*
G02*
X69280000Y-92978000I0J50000D01*
G01*
G37*
G36*
G01*
X69680000Y-92978000D02*
X69680000Y-92253000D01*
G75*
G02*
X69730000Y-92203000I50000J0D01*
G01*
X69830000Y-92203000D01*
G75*
G02*
X69880000Y-92253000I0J-50000D01*
G01*
X69880000Y-92978000D01*
G75*
G02*
X69830000Y-93028000I-50000J0D01*
G01*
X69730000Y-93028000D01*
G75*
G02*
X69680000Y-92978000I0J50000D01*
G01*
G37*
G36*
G01*
X70105000Y-91928000D02*
X70105000Y-91828000D01*
G75*
G02*
X70155000Y-91778000I50000J0D01*
G01*
X70880000Y-91778000D01*
G75*
G02*
X70930000Y-91828000I0J-50000D01*
G01*
X70930000Y-91928000D01*
G75*
G02*
X70880000Y-91978000I-50000J0D01*
G01*
X70155000Y-91978000D01*
G75*
G02*
X70105000Y-91928000I0J50000D01*
G01*
G37*
G36*
G01*
X70105000Y-91528000D02*
X70105000Y-91428000D01*
G75*
G02*
X70155000Y-91378000I50000J0D01*
G01*
X70880000Y-91378000D01*
G75*
G02*
X70930000Y-91428000I0J-50000D01*
G01*
X70930000Y-91528000D01*
G75*
G02*
X70880000Y-91578000I-50000J0D01*
G01*
X70155000Y-91578000D01*
G75*
G02*
X70105000Y-91528000I0J50000D01*
G01*
G37*
G36*
G01*
X70105000Y-91128000D02*
X70105000Y-91028000D01*
G75*
G02*
X70155000Y-90978000I50000J0D01*
G01*
X70880000Y-90978000D01*
G75*
G02*
X70930000Y-91028000I0J-50000D01*
G01*
X70930000Y-91128000D01*
G75*
G02*
X70880000Y-91178000I-50000J0D01*
G01*
X70155000Y-91178000D01*
G75*
G02*
X70105000Y-91128000I0J50000D01*
G01*
G37*
G36*
G01*
X70105000Y-90728000D02*
X70105000Y-90628000D01*
G75*
G02*
X70155000Y-90578000I50000J0D01*
G01*
X70880000Y-90578000D01*
G75*
G02*
X70930000Y-90628000I0J-50000D01*
G01*
X70930000Y-90728000D01*
G75*
G02*
X70880000Y-90778000I-50000J0D01*
G01*
X70155000Y-90778000D01*
G75*
G02*
X70105000Y-90728000I0J50000D01*
G01*
G37*
G36*
G01*
X70105000Y-90328000D02*
X70105000Y-90228000D01*
G75*
G02*
X70155000Y-90178000I50000J0D01*
G01*
X70880000Y-90178000D01*
G75*
G02*
X70930000Y-90228000I0J-50000D01*
G01*
X70930000Y-90328000D01*
G75*
G02*
X70880000Y-90378000I-50000J0D01*
G01*
X70155000Y-90378000D01*
G75*
G02*
X70105000Y-90328000I0J50000D01*
G01*
G37*
G36*
G01*
X70105000Y-89928000D02*
X70105000Y-89828000D01*
G75*
G02*
X70155000Y-89778000I50000J0D01*
G01*
X70880000Y-89778000D01*
G75*
G02*
X70930000Y-89828000I0J-50000D01*
G01*
X70930000Y-89928000D01*
G75*
G02*
X70880000Y-89978000I-50000J0D01*
G01*
X70155000Y-89978000D01*
G75*
G02*
X70105000Y-89928000I0J50000D01*
G01*
G37*
G36*
G01*
X70105000Y-89528000D02*
X70105000Y-89428000D01*
G75*
G02*
X70155000Y-89378000I50000J0D01*
G01*
X70880000Y-89378000D01*
G75*
G02*
X70930000Y-89428000I0J-50000D01*
G01*
X70930000Y-89528000D01*
G75*
G02*
X70880000Y-89578000I-50000J0D01*
G01*
X70155000Y-89578000D01*
G75*
G02*
X70105000Y-89528000I0J50000D01*
G01*
G37*
G36*
G01*
X69680000Y-89103000D02*
X69680000Y-88378000D01*
G75*
G02*
X69730000Y-88328000I50000J0D01*
G01*
X69830000Y-88328000D01*
G75*
G02*
X69880000Y-88378000I0J-50000D01*
G01*
X69880000Y-89103000D01*
G75*
G02*
X69830000Y-89153000I-50000J0D01*
G01*
X69730000Y-89153000D01*
G75*
G02*
X69680000Y-89103000I0J50000D01*
G01*
G37*
G36*
G01*
X69280000Y-89103000D02*
X69280000Y-88378000D01*
G75*
G02*
X69330000Y-88328000I50000J0D01*
G01*
X69430000Y-88328000D01*
G75*
G02*
X69480000Y-88378000I0J-50000D01*
G01*
X69480000Y-89103000D01*
G75*
G02*
X69430000Y-89153000I-50000J0D01*
G01*
X69330000Y-89153000D01*
G75*
G02*
X69280000Y-89103000I0J50000D01*
G01*
G37*
G36*
G01*
X68880000Y-89103000D02*
X68880000Y-88378000D01*
G75*
G02*
X68930000Y-88328000I50000J0D01*
G01*
X69030000Y-88328000D01*
G75*
G02*
X69080000Y-88378000I0J-50000D01*
G01*
X69080000Y-89103000D01*
G75*
G02*
X69030000Y-89153000I-50000J0D01*
G01*
X68930000Y-89153000D01*
G75*
G02*
X68880000Y-89103000I0J50000D01*
G01*
G37*
G36*
G01*
X68480000Y-89103000D02*
X68480000Y-88378000D01*
G75*
G02*
X68530000Y-88328000I50000J0D01*
G01*
X68630000Y-88328000D01*
G75*
G02*
X68680000Y-88378000I0J-50000D01*
G01*
X68680000Y-89103000D01*
G75*
G02*
X68630000Y-89153000I-50000J0D01*
G01*
X68530000Y-89153000D01*
G75*
G02*
X68480000Y-89103000I0J50000D01*
G01*
G37*
G36*
G01*
X68080000Y-89103000D02*
X68080000Y-88378000D01*
G75*
G02*
X68130000Y-88328000I50000J0D01*
G01*
X68230000Y-88328000D01*
G75*
G02*
X68280000Y-88378000I0J-50000D01*
G01*
X68280000Y-89103000D01*
G75*
G02*
X68230000Y-89153000I-50000J0D01*
G01*
X68130000Y-89153000D01*
G75*
G02*
X68080000Y-89103000I0J50000D01*
G01*
G37*
G36*
G01*
X67680000Y-89103000D02*
X67680000Y-88378000D01*
G75*
G02*
X67730000Y-88328000I50000J0D01*
G01*
X67830000Y-88328000D01*
G75*
G02*
X67880000Y-88378000I0J-50000D01*
G01*
X67880000Y-89103000D01*
G75*
G02*
X67830000Y-89153000I-50000J0D01*
G01*
X67730000Y-89153000D01*
G75*
G02*
X67680000Y-89103000I0J50000D01*
G01*
G37*
G36*
G01*
X67280000Y-89103000D02*
X67280000Y-88378000D01*
G75*
G02*
X67330000Y-88328000I50000J0D01*
G01*
X67430000Y-88328000D01*
G75*
G02*
X67480000Y-88378000I0J-50000D01*
G01*
X67480000Y-89103000D01*
G75*
G02*
X67430000Y-89153000I-50000J0D01*
G01*
X67330000Y-89153000D01*
G75*
G02*
X67280000Y-89103000I0J50000D01*
G01*
G37*
G36*
G01*
X66230000Y-89528000D02*
X66230000Y-89428000D01*
G75*
G02*
X66280000Y-89378000I50000J0D01*
G01*
X67005000Y-89378000D01*
G75*
G02*
X67055000Y-89428000I0J-50000D01*
G01*
X67055000Y-89528000D01*
G75*
G02*
X67005000Y-89578000I-50000J0D01*
G01*
X66280000Y-89578000D01*
G75*
G02*
X66230000Y-89528000I0J50000D01*
G01*
G37*
G36*
G01*
X66230000Y-89928000D02*
X66230000Y-89828000D01*
G75*
G02*
X66280000Y-89778000I50000J0D01*
G01*
X67005000Y-89778000D01*
G75*
G02*
X67055000Y-89828000I0J-50000D01*
G01*
X67055000Y-89928000D01*
G75*
G02*
X67005000Y-89978000I-50000J0D01*
G01*
X66280000Y-89978000D01*
G75*
G02*
X66230000Y-89928000I0J50000D01*
G01*
G37*
G36*
G01*
X66230000Y-90328000D02*
X66230000Y-90228000D01*
G75*
G02*
X66280000Y-90178000I50000J0D01*
G01*
X67005000Y-90178000D01*
G75*
G02*
X67055000Y-90228000I0J-50000D01*
G01*
X67055000Y-90328000D01*
G75*
G02*
X67005000Y-90378000I-50000J0D01*
G01*
X66280000Y-90378000D01*
G75*
G02*
X66230000Y-90328000I0J50000D01*
G01*
G37*
G36*
G01*
X66230000Y-90728000D02*
X66230000Y-90628000D01*
G75*
G02*
X66280000Y-90578000I50000J0D01*
G01*
X67005000Y-90578000D01*
G75*
G02*
X67055000Y-90628000I0J-50000D01*
G01*
X67055000Y-90728000D01*
G75*
G02*
X67005000Y-90778000I-50000J0D01*
G01*
X66280000Y-90778000D01*
G75*
G02*
X66230000Y-90728000I0J50000D01*
G01*
G37*
G36*
G01*
X66230000Y-91128000D02*
X66230000Y-91028000D01*
G75*
G02*
X66280000Y-90978000I50000J0D01*
G01*
X67005000Y-90978000D01*
G75*
G02*
X67055000Y-91028000I0J-50000D01*
G01*
X67055000Y-91128000D01*
G75*
G02*
X67005000Y-91178000I-50000J0D01*
G01*
X66280000Y-91178000D01*
G75*
G02*
X66230000Y-91128000I0J50000D01*
G01*
G37*
G36*
G01*
X66230000Y-91528000D02*
X66230000Y-91428000D01*
G75*
G02*
X66280000Y-91378000I50000J0D01*
G01*
X67005000Y-91378000D01*
G75*
G02*
X67055000Y-91428000I0J-50000D01*
G01*
X67055000Y-91528000D01*
G75*
G02*
X67005000Y-91578000I-50000J0D01*
G01*
X66280000Y-91578000D01*
G75*
G02*
X66230000Y-91528000I0J50000D01*
G01*
G37*
G36*
G01*
X66230000Y-91928000D02*
X66230000Y-91828000D01*
G75*
G02*
X66280000Y-91778000I50000J0D01*
G01*
X67005000Y-91778000D01*
G75*
G02*
X67055000Y-91828000I0J-50000D01*
G01*
X67055000Y-91928000D01*
G75*
G02*
X67005000Y-91978000I-50000J0D01*
G01*
X66280000Y-91978000D01*
G75*
G02*
X66230000Y-91928000I0J50000D01*
G01*
G37*
%TD*%
%TO.C,QFN64*%
G36*
G01*
X71880000Y-101606001D02*
X71880000Y-101085999D01*
G75*
G02*
X72129999Y-100836000I249999J0D01*
G01*
X72650001Y-100836000D01*
G75*
G02*
X72900000Y-101085999I0J-249999D01*
G01*
X72900000Y-101606001D01*
G75*
G02*
X72650001Y-101856000I-249999J0D01*
G01*
X72129999Y-101856000D01*
G75*
G02*
X71880000Y-101606001I0J249999D01*
G01*
G37*
G36*
G01*
X71880000Y-102876001D02*
X71880000Y-102355999D01*
G75*
G02*
X72129999Y-102106000I249999J0D01*
G01*
X72650001Y-102106000D01*
G75*
G02*
X72900000Y-102355999I0J-249999D01*
G01*
X72900000Y-102876001D01*
G75*
G02*
X72650001Y-103126000I-249999J0D01*
G01*
X72129999Y-103126000D01*
G75*
G02*
X71880000Y-102876001I0J249999D01*
G01*
G37*
G36*
G01*
X71880000Y-104146001D02*
X71880000Y-103625999D01*
G75*
G02*
X72129999Y-103376000I249999J0D01*
G01*
X72650001Y-103376000D01*
G75*
G02*
X72900000Y-103625999I0J-249999D01*
G01*
X72900000Y-104146001D01*
G75*
G02*
X72650001Y-104396000I-249999J0D01*
G01*
X72129999Y-104396000D01*
G75*
G02*
X71880000Y-104146001I0J249999D01*
G01*
G37*
G36*
G01*
X70610000Y-101606001D02*
X70610000Y-101085999D01*
G75*
G02*
X70859999Y-100836000I249999J0D01*
G01*
X71380001Y-100836000D01*
G75*
G02*
X71630000Y-101085999I0J-249999D01*
G01*
X71630000Y-101606001D01*
G75*
G02*
X71380001Y-101856000I-249999J0D01*
G01*
X70859999Y-101856000D01*
G75*
G02*
X70610000Y-101606001I0J249999D01*
G01*
G37*
G36*
G01*
X70610000Y-102876001D02*
X70610000Y-102355999D01*
G75*
G02*
X70859999Y-102106000I249999J0D01*
G01*
X71380001Y-102106000D01*
G75*
G02*
X71630000Y-102355999I0J-249999D01*
G01*
X71630000Y-102876001D01*
G75*
G02*
X71380001Y-103126000I-249999J0D01*
G01*
X70859999Y-103126000D01*
G75*
G02*
X70610000Y-102876001I0J249999D01*
G01*
G37*
G36*
G01*
X70610000Y-104146001D02*
X70610000Y-103625999D01*
G75*
G02*
X70859999Y-103376000I249999J0D01*
G01*
X71380001Y-103376000D01*
G75*
G02*
X71630000Y-103625999I0J-249999D01*
G01*
X71630000Y-104146001D01*
G75*
G02*
X71380001Y-104396000I-249999J0D01*
G01*
X70859999Y-104396000D01*
G75*
G02*
X70610000Y-104146001I0J249999D01*
G01*
G37*
G36*
G01*
X69340000Y-101606001D02*
X69340000Y-101085999D01*
G75*
G02*
X69589999Y-100836000I249999J0D01*
G01*
X70110001Y-100836000D01*
G75*
G02*
X70360000Y-101085999I0J-249999D01*
G01*
X70360000Y-101606001D01*
G75*
G02*
X70110001Y-101856000I-249999J0D01*
G01*
X69589999Y-101856000D01*
G75*
G02*
X69340000Y-101606001I0J249999D01*
G01*
G37*
G36*
G01*
X69340000Y-102876001D02*
X69340000Y-102355999D01*
G75*
G02*
X69589999Y-102106000I249999J0D01*
G01*
X70110001Y-102106000D01*
G75*
G02*
X70360000Y-102355999I0J-249999D01*
G01*
X70360000Y-102876001D01*
G75*
G02*
X70110001Y-103126000I-249999J0D01*
G01*
X69589999Y-103126000D01*
G75*
G02*
X69340000Y-102876001I0J249999D01*
G01*
G37*
G36*
G01*
X69340000Y-104146001D02*
X69340000Y-103625999D01*
G75*
G02*
X69589999Y-103376000I249999J0D01*
G01*
X70110001Y-103376000D01*
G75*
G02*
X70360000Y-103625999I0J-249999D01*
G01*
X70360000Y-104146001D01*
G75*
G02*
X70110001Y-104396000I-249999J0D01*
G01*
X69589999Y-104396000D01*
G75*
G02*
X69340000Y-104146001I0J249999D01*
G01*
G37*
G36*
G01*
X67245000Y-107403500D02*
X67245000Y-106703500D01*
G75*
G02*
X67307500Y-106641000I62500J0D01*
G01*
X67432500Y-106641000D01*
G75*
G02*
X67495000Y-106703500I0J-62500D01*
G01*
X67495000Y-107403500D01*
G75*
G02*
X67432500Y-107466000I-62500J0D01*
G01*
X67307500Y-107466000D01*
G75*
G02*
X67245000Y-107403500I0J62500D01*
G01*
G37*
G36*
G01*
X67745000Y-107403500D02*
X67745000Y-106703500D01*
G75*
G02*
X67807500Y-106641000I62500J0D01*
G01*
X67932500Y-106641000D01*
G75*
G02*
X67995000Y-106703500I0J-62500D01*
G01*
X67995000Y-107403500D01*
G75*
G02*
X67932500Y-107466000I-62500J0D01*
G01*
X67807500Y-107466000D01*
G75*
G02*
X67745000Y-107403500I0J62500D01*
G01*
G37*
G36*
G01*
X68245000Y-107403500D02*
X68245000Y-106703500D01*
G75*
G02*
X68307500Y-106641000I62500J0D01*
G01*
X68432500Y-106641000D01*
G75*
G02*
X68495000Y-106703500I0J-62500D01*
G01*
X68495000Y-107403500D01*
G75*
G02*
X68432500Y-107466000I-62500J0D01*
G01*
X68307500Y-107466000D01*
G75*
G02*
X68245000Y-107403500I0J62500D01*
G01*
G37*
G36*
G01*
X68745000Y-107403500D02*
X68745000Y-106703500D01*
G75*
G02*
X68807500Y-106641000I62500J0D01*
G01*
X68932500Y-106641000D01*
G75*
G02*
X68995000Y-106703500I0J-62500D01*
G01*
X68995000Y-107403500D01*
G75*
G02*
X68932500Y-107466000I-62500J0D01*
G01*
X68807500Y-107466000D01*
G75*
G02*
X68745000Y-107403500I0J62500D01*
G01*
G37*
G36*
G01*
X69245000Y-107403500D02*
X69245000Y-106703500D01*
G75*
G02*
X69307500Y-106641000I62500J0D01*
G01*
X69432500Y-106641000D01*
G75*
G02*
X69495000Y-106703500I0J-62500D01*
G01*
X69495000Y-107403500D01*
G75*
G02*
X69432500Y-107466000I-62500J0D01*
G01*
X69307500Y-107466000D01*
G75*
G02*
X69245000Y-107403500I0J62500D01*
G01*
G37*
G36*
G01*
X69745000Y-107403500D02*
X69745000Y-106703500D01*
G75*
G02*
X69807500Y-106641000I62500J0D01*
G01*
X69932500Y-106641000D01*
G75*
G02*
X69995000Y-106703500I0J-62500D01*
G01*
X69995000Y-107403500D01*
G75*
G02*
X69932500Y-107466000I-62500J0D01*
G01*
X69807500Y-107466000D01*
G75*
G02*
X69745000Y-107403500I0J62500D01*
G01*
G37*
G36*
G01*
X70245000Y-107403500D02*
X70245000Y-106703500D01*
G75*
G02*
X70307500Y-106641000I62500J0D01*
G01*
X70432500Y-106641000D01*
G75*
G02*
X70495000Y-106703500I0J-62500D01*
G01*
X70495000Y-107403500D01*
G75*
G02*
X70432500Y-107466000I-62500J0D01*
G01*
X70307500Y-107466000D01*
G75*
G02*
X70245000Y-107403500I0J62500D01*
G01*
G37*
G36*
G01*
X70745000Y-107403500D02*
X70745000Y-106703500D01*
G75*
G02*
X70807500Y-106641000I62500J0D01*
G01*
X70932500Y-106641000D01*
G75*
G02*
X70995000Y-106703500I0J-62500D01*
G01*
X70995000Y-107403500D01*
G75*
G02*
X70932500Y-107466000I-62500J0D01*
G01*
X70807500Y-107466000D01*
G75*
G02*
X70745000Y-107403500I0J62500D01*
G01*
G37*
G36*
G01*
X71245000Y-107403500D02*
X71245000Y-106703500D01*
G75*
G02*
X71307500Y-106641000I62500J0D01*
G01*
X71432500Y-106641000D01*
G75*
G02*
X71495000Y-106703500I0J-62500D01*
G01*
X71495000Y-107403500D01*
G75*
G02*
X71432500Y-107466000I-62500J0D01*
G01*
X71307500Y-107466000D01*
G75*
G02*
X71245000Y-107403500I0J62500D01*
G01*
G37*
G36*
G01*
X71745000Y-107403500D02*
X71745000Y-106703500D01*
G75*
G02*
X71807500Y-106641000I62500J0D01*
G01*
X71932500Y-106641000D01*
G75*
G02*
X71995000Y-106703500I0J-62500D01*
G01*
X71995000Y-107403500D01*
G75*
G02*
X71932500Y-107466000I-62500J0D01*
G01*
X71807500Y-107466000D01*
G75*
G02*
X71745000Y-107403500I0J62500D01*
G01*
G37*
G36*
G01*
X72245000Y-107403500D02*
X72245000Y-106703500D01*
G75*
G02*
X72307500Y-106641000I62500J0D01*
G01*
X72432500Y-106641000D01*
G75*
G02*
X72495000Y-106703500I0J-62500D01*
G01*
X72495000Y-107403500D01*
G75*
G02*
X72432500Y-107466000I-62500J0D01*
G01*
X72307500Y-107466000D01*
G75*
G02*
X72245000Y-107403500I0J62500D01*
G01*
G37*
G36*
G01*
X72745000Y-107403500D02*
X72745000Y-106703500D01*
G75*
G02*
X72807500Y-106641000I62500J0D01*
G01*
X72932500Y-106641000D01*
G75*
G02*
X72995000Y-106703500I0J-62500D01*
G01*
X72995000Y-107403500D01*
G75*
G02*
X72932500Y-107466000I-62500J0D01*
G01*
X72807500Y-107466000D01*
G75*
G02*
X72745000Y-107403500I0J62500D01*
G01*
G37*
G36*
G01*
X73245000Y-107403500D02*
X73245000Y-106703500D01*
G75*
G02*
X73307500Y-106641000I62500J0D01*
G01*
X73432500Y-106641000D01*
G75*
G02*
X73495000Y-106703500I0J-62500D01*
G01*
X73495000Y-107403500D01*
G75*
G02*
X73432500Y-107466000I-62500J0D01*
G01*
X73307500Y-107466000D01*
G75*
G02*
X73245000Y-107403500I0J62500D01*
G01*
G37*
G36*
G01*
X73745000Y-107403500D02*
X73745000Y-106703500D01*
G75*
G02*
X73807500Y-106641000I62500J0D01*
G01*
X73932500Y-106641000D01*
G75*
G02*
X73995000Y-106703500I0J-62500D01*
G01*
X73995000Y-107403500D01*
G75*
G02*
X73932500Y-107466000I-62500J0D01*
G01*
X73807500Y-107466000D01*
G75*
G02*
X73745000Y-107403500I0J62500D01*
G01*
G37*
G36*
G01*
X74245000Y-107403500D02*
X74245000Y-106703500D01*
G75*
G02*
X74307500Y-106641000I62500J0D01*
G01*
X74432500Y-106641000D01*
G75*
G02*
X74495000Y-106703500I0J-62500D01*
G01*
X74495000Y-107403500D01*
G75*
G02*
X74432500Y-107466000I-62500J0D01*
G01*
X74307500Y-107466000D01*
G75*
G02*
X74245000Y-107403500I0J62500D01*
G01*
G37*
G36*
G01*
X74745000Y-107403500D02*
X74745000Y-106703500D01*
G75*
G02*
X74807500Y-106641000I62500J0D01*
G01*
X74932500Y-106641000D01*
G75*
G02*
X74995000Y-106703500I0J-62500D01*
G01*
X74995000Y-107403500D01*
G75*
G02*
X74932500Y-107466000I-62500J0D01*
G01*
X74807500Y-107466000D01*
G75*
G02*
X74745000Y-107403500I0J62500D01*
G01*
G37*
G36*
G01*
X75145000Y-106428500D02*
X75145000Y-106303500D01*
G75*
G02*
X75207500Y-106241000I62500J0D01*
G01*
X75907500Y-106241000D01*
G75*
G02*
X75970000Y-106303500I0J-62500D01*
G01*
X75970000Y-106428500D01*
G75*
G02*
X75907500Y-106491000I-62500J0D01*
G01*
X75207500Y-106491000D01*
G75*
G02*
X75145000Y-106428500I0J62500D01*
G01*
G37*
G36*
G01*
X75145000Y-105928500D02*
X75145000Y-105803500D01*
G75*
G02*
X75207500Y-105741000I62500J0D01*
G01*
X75907500Y-105741000D01*
G75*
G02*
X75970000Y-105803500I0J-62500D01*
G01*
X75970000Y-105928500D01*
G75*
G02*
X75907500Y-105991000I-62500J0D01*
G01*
X75207500Y-105991000D01*
G75*
G02*
X75145000Y-105928500I0J62500D01*
G01*
G37*
G36*
G01*
X75145000Y-105428500D02*
X75145000Y-105303500D01*
G75*
G02*
X75207500Y-105241000I62500J0D01*
G01*
X75907500Y-105241000D01*
G75*
G02*
X75970000Y-105303500I0J-62500D01*
G01*
X75970000Y-105428500D01*
G75*
G02*
X75907500Y-105491000I-62500J0D01*
G01*
X75207500Y-105491000D01*
G75*
G02*
X75145000Y-105428500I0J62500D01*
G01*
G37*
G36*
G01*
X75145000Y-104928500D02*
X75145000Y-104803500D01*
G75*
G02*
X75207500Y-104741000I62500J0D01*
G01*
X75907500Y-104741000D01*
G75*
G02*
X75970000Y-104803500I0J-62500D01*
G01*
X75970000Y-104928500D01*
G75*
G02*
X75907500Y-104991000I-62500J0D01*
G01*
X75207500Y-104991000D01*
G75*
G02*
X75145000Y-104928500I0J62500D01*
G01*
G37*
G36*
G01*
X75145000Y-104428500D02*
X75145000Y-104303500D01*
G75*
G02*
X75207500Y-104241000I62500J0D01*
G01*
X75907500Y-104241000D01*
G75*
G02*
X75970000Y-104303500I0J-62500D01*
G01*
X75970000Y-104428500D01*
G75*
G02*
X75907500Y-104491000I-62500J0D01*
G01*
X75207500Y-104491000D01*
G75*
G02*
X75145000Y-104428500I0J62500D01*
G01*
G37*
G36*
G01*
X75145000Y-103928500D02*
X75145000Y-103803500D01*
G75*
G02*
X75207500Y-103741000I62500J0D01*
G01*
X75907500Y-103741000D01*
G75*
G02*
X75970000Y-103803500I0J-62500D01*
G01*
X75970000Y-103928500D01*
G75*
G02*
X75907500Y-103991000I-62500J0D01*
G01*
X75207500Y-103991000D01*
G75*
G02*
X75145000Y-103928500I0J62500D01*
G01*
G37*
G36*
G01*
X75145000Y-103428500D02*
X75145000Y-103303500D01*
G75*
G02*
X75207500Y-103241000I62500J0D01*
G01*
X75907500Y-103241000D01*
G75*
G02*
X75970000Y-103303500I0J-62500D01*
G01*
X75970000Y-103428500D01*
G75*
G02*
X75907500Y-103491000I-62500J0D01*
G01*
X75207500Y-103491000D01*
G75*
G02*
X75145000Y-103428500I0J62500D01*
G01*
G37*
G36*
G01*
X75145000Y-102928500D02*
X75145000Y-102803500D01*
G75*
G02*
X75207500Y-102741000I62500J0D01*
G01*
X75907500Y-102741000D01*
G75*
G02*
X75970000Y-102803500I0J-62500D01*
G01*
X75970000Y-102928500D01*
G75*
G02*
X75907500Y-102991000I-62500J0D01*
G01*
X75207500Y-102991000D01*
G75*
G02*
X75145000Y-102928500I0J62500D01*
G01*
G37*
G36*
G01*
X75145000Y-102428500D02*
X75145000Y-102303500D01*
G75*
G02*
X75207500Y-102241000I62500J0D01*
G01*
X75907500Y-102241000D01*
G75*
G02*
X75970000Y-102303500I0J-62500D01*
G01*
X75970000Y-102428500D01*
G75*
G02*
X75907500Y-102491000I-62500J0D01*
G01*
X75207500Y-102491000D01*
G75*
G02*
X75145000Y-102428500I0J62500D01*
G01*
G37*
G36*
G01*
X75145000Y-101928500D02*
X75145000Y-101803500D01*
G75*
G02*
X75207500Y-101741000I62500J0D01*
G01*
X75907500Y-101741000D01*
G75*
G02*
X75970000Y-101803500I0J-62500D01*
G01*
X75970000Y-101928500D01*
G75*
G02*
X75907500Y-101991000I-62500J0D01*
G01*
X75207500Y-101991000D01*
G75*
G02*
X75145000Y-101928500I0J62500D01*
G01*
G37*
G36*
G01*
X75145000Y-101428500D02*
X75145000Y-101303500D01*
G75*
G02*
X75207500Y-101241000I62500J0D01*
G01*
X75907500Y-101241000D01*
G75*
G02*
X75970000Y-101303500I0J-62500D01*
G01*
X75970000Y-101428500D01*
G75*
G02*
X75907500Y-101491000I-62500J0D01*
G01*
X75207500Y-101491000D01*
G75*
G02*
X75145000Y-101428500I0J62500D01*
G01*
G37*
G36*
G01*
X75145000Y-100928500D02*
X75145000Y-100803500D01*
G75*
G02*
X75207500Y-100741000I62500J0D01*
G01*
X75907500Y-100741000D01*
G75*
G02*
X75970000Y-100803500I0J-62500D01*
G01*
X75970000Y-100928500D01*
G75*
G02*
X75907500Y-100991000I-62500J0D01*
G01*
X75207500Y-100991000D01*
G75*
G02*
X75145000Y-100928500I0J62500D01*
G01*
G37*
G36*
G01*
X75145000Y-100428500D02*
X75145000Y-100303500D01*
G75*
G02*
X75207500Y-100241000I62500J0D01*
G01*
X75907500Y-100241000D01*
G75*
G02*
X75970000Y-100303500I0J-62500D01*
G01*
X75970000Y-100428500D01*
G75*
G02*
X75907500Y-100491000I-62500J0D01*
G01*
X75207500Y-100491000D01*
G75*
G02*
X75145000Y-100428500I0J62500D01*
G01*
G37*
G36*
G01*
X75145000Y-99928500D02*
X75145000Y-99803500D01*
G75*
G02*
X75207500Y-99741000I62500J0D01*
G01*
X75907500Y-99741000D01*
G75*
G02*
X75970000Y-99803500I0J-62500D01*
G01*
X75970000Y-99928500D01*
G75*
G02*
X75907500Y-99991000I-62500J0D01*
G01*
X75207500Y-99991000D01*
G75*
G02*
X75145000Y-99928500I0J62500D01*
G01*
G37*
G36*
G01*
X75145000Y-99428500D02*
X75145000Y-99303500D01*
G75*
G02*
X75207500Y-99241000I62500J0D01*
G01*
X75907500Y-99241000D01*
G75*
G02*
X75970000Y-99303500I0J-62500D01*
G01*
X75970000Y-99428500D01*
G75*
G02*
X75907500Y-99491000I-62500J0D01*
G01*
X75207500Y-99491000D01*
G75*
G02*
X75145000Y-99428500I0J62500D01*
G01*
G37*
G36*
G01*
X75145000Y-98928500D02*
X75145000Y-98803500D01*
G75*
G02*
X75207500Y-98741000I62500J0D01*
G01*
X75907500Y-98741000D01*
G75*
G02*
X75970000Y-98803500I0J-62500D01*
G01*
X75970000Y-98928500D01*
G75*
G02*
X75907500Y-98991000I-62500J0D01*
G01*
X75207500Y-98991000D01*
G75*
G02*
X75145000Y-98928500I0J62500D01*
G01*
G37*
G36*
G01*
X74745000Y-98528500D02*
X74745000Y-97828500D01*
G75*
G02*
X74807500Y-97766000I62500J0D01*
G01*
X74932500Y-97766000D01*
G75*
G02*
X74995000Y-97828500I0J-62500D01*
G01*
X74995000Y-98528500D01*
G75*
G02*
X74932500Y-98591000I-62500J0D01*
G01*
X74807500Y-98591000D01*
G75*
G02*
X74745000Y-98528500I0J62500D01*
G01*
G37*
G36*
G01*
X74245000Y-98528500D02*
X74245000Y-97828500D01*
G75*
G02*
X74307500Y-97766000I62500J0D01*
G01*
X74432500Y-97766000D01*
G75*
G02*
X74495000Y-97828500I0J-62500D01*
G01*
X74495000Y-98528500D01*
G75*
G02*
X74432500Y-98591000I-62500J0D01*
G01*
X74307500Y-98591000D01*
G75*
G02*
X74245000Y-98528500I0J62500D01*
G01*
G37*
G36*
G01*
X73745000Y-98528500D02*
X73745000Y-97828500D01*
G75*
G02*
X73807500Y-97766000I62500J0D01*
G01*
X73932500Y-97766000D01*
G75*
G02*
X73995000Y-97828500I0J-62500D01*
G01*
X73995000Y-98528500D01*
G75*
G02*
X73932500Y-98591000I-62500J0D01*
G01*
X73807500Y-98591000D01*
G75*
G02*
X73745000Y-98528500I0J62500D01*
G01*
G37*
G36*
G01*
X73245000Y-98528500D02*
X73245000Y-97828500D01*
G75*
G02*
X73307500Y-97766000I62500J0D01*
G01*
X73432500Y-97766000D01*
G75*
G02*
X73495000Y-97828500I0J-62500D01*
G01*
X73495000Y-98528500D01*
G75*
G02*
X73432500Y-98591000I-62500J0D01*
G01*
X73307500Y-98591000D01*
G75*
G02*
X73245000Y-98528500I0J62500D01*
G01*
G37*
G36*
G01*
X72745000Y-98528500D02*
X72745000Y-97828500D01*
G75*
G02*
X72807500Y-97766000I62500J0D01*
G01*
X72932500Y-97766000D01*
G75*
G02*
X72995000Y-97828500I0J-62500D01*
G01*
X72995000Y-98528500D01*
G75*
G02*
X72932500Y-98591000I-62500J0D01*
G01*
X72807500Y-98591000D01*
G75*
G02*
X72745000Y-98528500I0J62500D01*
G01*
G37*
G36*
G01*
X72245000Y-98528500D02*
X72245000Y-97828500D01*
G75*
G02*
X72307500Y-97766000I62500J0D01*
G01*
X72432500Y-97766000D01*
G75*
G02*
X72495000Y-97828500I0J-62500D01*
G01*
X72495000Y-98528500D01*
G75*
G02*
X72432500Y-98591000I-62500J0D01*
G01*
X72307500Y-98591000D01*
G75*
G02*
X72245000Y-98528500I0J62500D01*
G01*
G37*
G36*
G01*
X71745000Y-98528500D02*
X71745000Y-97828500D01*
G75*
G02*
X71807500Y-97766000I62500J0D01*
G01*
X71932500Y-97766000D01*
G75*
G02*
X71995000Y-97828500I0J-62500D01*
G01*
X71995000Y-98528500D01*
G75*
G02*
X71932500Y-98591000I-62500J0D01*
G01*
X71807500Y-98591000D01*
G75*
G02*
X71745000Y-98528500I0J62500D01*
G01*
G37*
G36*
G01*
X71245000Y-98528500D02*
X71245000Y-97828500D01*
G75*
G02*
X71307500Y-97766000I62500J0D01*
G01*
X71432500Y-97766000D01*
G75*
G02*
X71495000Y-97828500I0J-62500D01*
G01*
X71495000Y-98528500D01*
G75*
G02*
X71432500Y-98591000I-62500J0D01*
G01*
X71307500Y-98591000D01*
G75*
G02*
X71245000Y-98528500I0J62500D01*
G01*
G37*
G36*
G01*
X70745000Y-98528500D02*
X70745000Y-97828500D01*
G75*
G02*
X70807500Y-97766000I62500J0D01*
G01*
X70932500Y-97766000D01*
G75*
G02*
X70995000Y-97828500I0J-62500D01*
G01*
X70995000Y-98528500D01*
G75*
G02*
X70932500Y-98591000I-62500J0D01*
G01*
X70807500Y-98591000D01*
G75*
G02*
X70745000Y-98528500I0J62500D01*
G01*
G37*
G36*
G01*
X70245000Y-98528500D02*
X70245000Y-97828500D01*
G75*
G02*
X70307500Y-97766000I62500J0D01*
G01*
X70432500Y-97766000D01*
G75*
G02*
X70495000Y-97828500I0J-62500D01*
G01*
X70495000Y-98528500D01*
G75*
G02*
X70432500Y-98591000I-62500J0D01*
G01*
X70307500Y-98591000D01*
G75*
G02*
X70245000Y-98528500I0J62500D01*
G01*
G37*
G36*
G01*
X69745000Y-98528500D02*
X69745000Y-97828500D01*
G75*
G02*
X69807500Y-97766000I62500J0D01*
G01*
X69932500Y-97766000D01*
G75*
G02*
X69995000Y-97828500I0J-62500D01*
G01*
X69995000Y-98528500D01*
G75*
G02*
X69932500Y-98591000I-62500J0D01*
G01*
X69807500Y-98591000D01*
G75*
G02*
X69745000Y-98528500I0J62500D01*
G01*
G37*
G36*
G01*
X69245000Y-98528500D02*
X69245000Y-97828500D01*
G75*
G02*
X69307500Y-97766000I62500J0D01*
G01*
X69432500Y-97766000D01*
G75*
G02*
X69495000Y-97828500I0J-62500D01*
G01*
X69495000Y-98528500D01*
G75*
G02*
X69432500Y-98591000I-62500J0D01*
G01*
X69307500Y-98591000D01*
G75*
G02*
X69245000Y-98528500I0J62500D01*
G01*
G37*
G36*
G01*
X68745000Y-98528500D02*
X68745000Y-97828500D01*
G75*
G02*
X68807500Y-97766000I62500J0D01*
G01*
X68932500Y-97766000D01*
G75*
G02*
X68995000Y-97828500I0J-62500D01*
G01*
X68995000Y-98528500D01*
G75*
G02*
X68932500Y-98591000I-62500J0D01*
G01*
X68807500Y-98591000D01*
G75*
G02*
X68745000Y-98528500I0J62500D01*
G01*
G37*
G36*
G01*
X68245000Y-98528500D02*
X68245000Y-97828500D01*
G75*
G02*
X68307500Y-97766000I62500J0D01*
G01*
X68432500Y-97766000D01*
G75*
G02*
X68495000Y-97828500I0J-62500D01*
G01*
X68495000Y-98528500D01*
G75*
G02*
X68432500Y-98591000I-62500J0D01*
G01*
X68307500Y-98591000D01*
G75*
G02*
X68245000Y-98528500I0J62500D01*
G01*
G37*
G36*
G01*
X67745000Y-98528500D02*
X67745000Y-97828500D01*
G75*
G02*
X67807500Y-97766000I62500J0D01*
G01*
X67932500Y-97766000D01*
G75*
G02*
X67995000Y-97828500I0J-62500D01*
G01*
X67995000Y-98528500D01*
G75*
G02*
X67932500Y-98591000I-62500J0D01*
G01*
X67807500Y-98591000D01*
G75*
G02*
X67745000Y-98528500I0J62500D01*
G01*
G37*
G36*
G01*
X67245000Y-98528500D02*
X67245000Y-97828500D01*
G75*
G02*
X67307500Y-97766000I62500J0D01*
G01*
X67432500Y-97766000D01*
G75*
G02*
X67495000Y-97828500I0J-62500D01*
G01*
X67495000Y-98528500D01*
G75*
G02*
X67432500Y-98591000I-62500J0D01*
G01*
X67307500Y-98591000D01*
G75*
G02*
X67245000Y-98528500I0J62500D01*
G01*
G37*
G36*
G01*
X66270000Y-98928500D02*
X66270000Y-98803500D01*
G75*
G02*
X66332500Y-98741000I62500J0D01*
G01*
X67032500Y-98741000D01*
G75*
G02*
X67095000Y-98803500I0J-62500D01*
G01*
X67095000Y-98928500D01*
G75*
G02*
X67032500Y-98991000I-62500J0D01*
G01*
X66332500Y-98991000D01*
G75*
G02*
X66270000Y-98928500I0J62500D01*
G01*
G37*
G36*
G01*
X66270000Y-99428500D02*
X66270000Y-99303500D01*
G75*
G02*
X66332500Y-99241000I62500J0D01*
G01*
X67032500Y-99241000D01*
G75*
G02*
X67095000Y-99303500I0J-62500D01*
G01*
X67095000Y-99428500D01*
G75*
G02*
X67032500Y-99491000I-62500J0D01*
G01*
X66332500Y-99491000D01*
G75*
G02*
X66270000Y-99428500I0J62500D01*
G01*
G37*
G36*
G01*
X66270000Y-99928500D02*
X66270000Y-99803500D01*
G75*
G02*
X66332500Y-99741000I62500J0D01*
G01*
X67032500Y-99741000D01*
G75*
G02*
X67095000Y-99803500I0J-62500D01*
G01*
X67095000Y-99928500D01*
G75*
G02*
X67032500Y-99991000I-62500J0D01*
G01*
X66332500Y-99991000D01*
G75*
G02*
X66270000Y-99928500I0J62500D01*
G01*
G37*
G36*
G01*
X66270000Y-100428500D02*
X66270000Y-100303500D01*
G75*
G02*
X66332500Y-100241000I62500J0D01*
G01*
X67032500Y-100241000D01*
G75*
G02*
X67095000Y-100303500I0J-62500D01*
G01*
X67095000Y-100428500D01*
G75*
G02*
X67032500Y-100491000I-62500J0D01*
G01*
X66332500Y-100491000D01*
G75*
G02*
X66270000Y-100428500I0J62500D01*
G01*
G37*
G36*
G01*
X66270000Y-100928500D02*
X66270000Y-100803500D01*
G75*
G02*
X66332500Y-100741000I62500J0D01*
G01*
X67032500Y-100741000D01*
G75*
G02*
X67095000Y-100803500I0J-62500D01*
G01*
X67095000Y-100928500D01*
G75*
G02*
X67032500Y-100991000I-62500J0D01*
G01*
X66332500Y-100991000D01*
G75*
G02*
X66270000Y-100928500I0J62500D01*
G01*
G37*
G36*
G01*
X66270000Y-101428500D02*
X66270000Y-101303500D01*
G75*
G02*
X66332500Y-101241000I62500J0D01*
G01*
X67032500Y-101241000D01*
G75*
G02*
X67095000Y-101303500I0J-62500D01*
G01*
X67095000Y-101428500D01*
G75*
G02*
X67032500Y-101491000I-62500J0D01*
G01*
X66332500Y-101491000D01*
G75*
G02*
X66270000Y-101428500I0J62500D01*
G01*
G37*
G36*
G01*
X66270000Y-101928500D02*
X66270000Y-101803500D01*
G75*
G02*
X66332500Y-101741000I62500J0D01*
G01*
X67032500Y-101741000D01*
G75*
G02*
X67095000Y-101803500I0J-62500D01*
G01*
X67095000Y-101928500D01*
G75*
G02*
X67032500Y-101991000I-62500J0D01*
G01*
X66332500Y-101991000D01*
G75*
G02*
X66270000Y-101928500I0J62500D01*
G01*
G37*
G36*
G01*
X66270000Y-102428500D02*
X66270000Y-102303500D01*
G75*
G02*
X66332500Y-102241000I62500J0D01*
G01*
X67032500Y-102241000D01*
G75*
G02*
X67095000Y-102303500I0J-62500D01*
G01*
X67095000Y-102428500D01*
G75*
G02*
X67032500Y-102491000I-62500J0D01*
G01*
X66332500Y-102491000D01*
G75*
G02*
X66270000Y-102428500I0J62500D01*
G01*
G37*
G36*
G01*
X66270000Y-102928500D02*
X66270000Y-102803500D01*
G75*
G02*
X66332500Y-102741000I62500J0D01*
G01*
X67032500Y-102741000D01*
G75*
G02*
X67095000Y-102803500I0J-62500D01*
G01*
X67095000Y-102928500D01*
G75*
G02*
X67032500Y-102991000I-62500J0D01*
G01*
X66332500Y-102991000D01*
G75*
G02*
X66270000Y-102928500I0J62500D01*
G01*
G37*
G36*
G01*
X66270000Y-103428500D02*
X66270000Y-103303500D01*
G75*
G02*
X66332500Y-103241000I62500J0D01*
G01*
X67032500Y-103241000D01*
G75*
G02*
X67095000Y-103303500I0J-62500D01*
G01*
X67095000Y-103428500D01*
G75*
G02*
X67032500Y-103491000I-62500J0D01*
G01*
X66332500Y-103491000D01*
G75*
G02*
X66270000Y-103428500I0J62500D01*
G01*
G37*
G36*
G01*
X66270000Y-103928500D02*
X66270000Y-103803500D01*
G75*
G02*
X66332500Y-103741000I62500J0D01*
G01*
X67032500Y-103741000D01*
G75*
G02*
X67095000Y-103803500I0J-62500D01*
G01*
X67095000Y-103928500D01*
G75*
G02*
X67032500Y-103991000I-62500J0D01*
G01*
X66332500Y-103991000D01*
G75*
G02*
X66270000Y-103928500I0J62500D01*
G01*
G37*
G36*
G01*
X66270000Y-104428500D02*
X66270000Y-104303500D01*
G75*
G02*
X66332500Y-104241000I62500J0D01*
G01*
X67032500Y-104241000D01*
G75*
G02*
X67095000Y-104303500I0J-62500D01*
G01*
X67095000Y-104428500D01*
G75*
G02*
X67032500Y-104491000I-62500J0D01*
G01*
X66332500Y-104491000D01*
G75*
G02*
X66270000Y-104428500I0J62500D01*
G01*
G37*
G36*
G01*
X66270000Y-104928500D02*
X66270000Y-104803500D01*
G75*
G02*
X66332500Y-104741000I62500J0D01*
G01*
X67032500Y-104741000D01*
G75*
G02*
X67095000Y-104803500I0J-62500D01*
G01*
X67095000Y-104928500D01*
G75*
G02*
X67032500Y-104991000I-62500J0D01*
G01*
X66332500Y-104991000D01*
G75*
G02*
X66270000Y-104928500I0J62500D01*
G01*
G37*
G36*
G01*
X66270000Y-105428500D02*
X66270000Y-105303500D01*
G75*
G02*
X66332500Y-105241000I62500J0D01*
G01*
X67032500Y-105241000D01*
G75*
G02*
X67095000Y-105303500I0J-62500D01*
G01*
X67095000Y-105428500D01*
G75*
G02*
X67032500Y-105491000I-62500J0D01*
G01*
X66332500Y-105491000D01*
G75*
G02*
X66270000Y-105428500I0J62500D01*
G01*
G37*
G36*
G01*
X66270000Y-105928500D02*
X66270000Y-105803500D01*
G75*
G02*
X66332500Y-105741000I62500J0D01*
G01*
X67032500Y-105741000D01*
G75*
G02*
X67095000Y-105803500I0J-62500D01*
G01*
X67095000Y-105928500D01*
G75*
G02*
X67032500Y-105991000I-62500J0D01*
G01*
X66332500Y-105991000D01*
G75*
G02*
X66270000Y-105928500I0J62500D01*
G01*
G37*
G36*
G01*
X66270000Y-106428500D02*
X66270000Y-106303500D01*
G75*
G02*
X66332500Y-106241000I62500J0D01*
G01*
X67032500Y-106241000D01*
G75*
G02*
X67095000Y-106303500I0J-62500D01*
G01*
X67095000Y-106428500D01*
G75*
G02*
X67032500Y-106491000I-62500J0D01*
G01*
X66332500Y-106491000D01*
G75*
G02*
X66270000Y-106428500I0J62500D01*
G01*
G37*
%TD*%
%TO.C,2512*%
G36*
G01*
X142304000Y-99723000D02*
X142304000Y-96873000D01*
G75*
G02*
X142554000Y-96623000I250000J0D01*
G01*
X143279000Y-96623000D01*
G75*
G02*
X143529000Y-96873000I0J-250000D01*
G01*
X143529000Y-99723000D01*
G75*
G02*
X143279000Y-99973000I-250000J0D01*
G01*
X142554000Y-99973000D01*
G75*
G02*
X142304000Y-99723000I0J250000D01*
G01*
G37*
G36*
G01*
X136379000Y-99723000D02*
X136379000Y-96873000D01*
G75*
G02*
X136629000Y-96623000I250000J0D01*
G01*
X137354000Y-96623000D01*
G75*
G02*
X137604000Y-96873000I0J-250000D01*
G01*
X137604000Y-99723000D01*
G75*
G02*
X137354000Y-99973000I-250000J0D01*
G01*
X136629000Y-99973000D01*
G75*
G02*
X136379000Y-99723000I0J250000D01*
G01*
G37*
%TD*%
%TO.C,1206R*%
G36*
G01*
X144664000Y-93335001D02*
X144664000Y-92084999D01*
G75*
G02*
X144913999Y-91835000I249999J0D01*
G01*
X145539001Y-91835000D01*
G75*
G02*
X145789000Y-92084999I0J-249999D01*
G01*
X145789000Y-93335001D01*
G75*
G02*
X145539001Y-93585000I-249999J0D01*
G01*
X144913999Y-93585000D01*
G75*
G02*
X144664000Y-93335001I0J249999D01*
G01*
G37*
G36*
G01*
X141739000Y-93335001D02*
X141739000Y-92084999D01*
G75*
G02*
X141988999Y-91835000I249999J0D01*
G01*
X142614001Y-91835000D01*
G75*
G02*
X142864000Y-92084999I0J-249999D01*
G01*
X142864000Y-93335001D01*
G75*
G02*
X142614001Y-93585000I-249999J0D01*
G01*
X141988999Y-93585000D01*
G75*
G02*
X141739000Y-93335001I0J249999D01*
G01*
G37*
%TD*%
%TO.C,0603R*%
G36*
G01*
X138601000Y-88159000D02*
X138601000Y-87609000D01*
G75*
G02*
X138801000Y-87409000I200000J0D01*
G01*
X139201000Y-87409000D01*
G75*
G02*
X139401000Y-87609000I0J-200000D01*
G01*
X139401000Y-88159000D01*
G75*
G02*
X139201000Y-88359000I-200000J0D01*
G01*
X138801000Y-88359000D01*
G75*
G02*
X138601000Y-88159000I0J200000D01*
G01*
G37*
G36*
G01*
X136951000Y-88159000D02*
X136951000Y-87609000D01*
G75*
G02*
X137151000Y-87409000I200000J0D01*
G01*
X137551000Y-87409000D01*
G75*
G02*
X137751000Y-87609000I0J-200000D01*
G01*
X137751000Y-88159000D01*
G75*
G02*
X137551000Y-88359000I-200000J0D01*
G01*
X137151000Y-88359000D01*
G75*
G02*
X136951000Y-88159000I0J200000D01*
G01*
G37*
%TD*%
%TO.C,0805R*%
G36*
G01*
X148990000Y-93160001D02*
X148990000Y-92259999D01*
G75*
G02*
X149239999Y-92010000I249999J0D01*
G01*
X149765001Y-92010000D01*
G75*
G02*
X150015000Y-92259999I0J-249999D01*
G01*
X150015000Y-93160001D01*
G75*
G02*
X149765001Y-93410000I-249999J0D01*
G01*
X149239999Y-93410000D01*
G75*
G02*
X148990000Y-93160001I0J249999D01*
G01*
G37*
G36*
G01*
X147165000Y-93160001D02*
X147165000Y-92259999D01*
G75*
G02*
X147414999Y-92010000I249999J0D01*
G01*
X147940001Y-92010000D01*
G75*
G02*
X148190000Y-92259999I0J-249999D01*
G01*
X148190000Y-93160001D01*
G75*
G02*
X147940001Y-93410000I-249999J0D01*
G01*
X147414999Y-93410000D01*
G75*
G02*
X147165000Y-93160001I0J249999D01*
G01*
G37*
%TD*%
%TO.C,0201R*%
G36*
G01*
X148776000Y-87984500D02*
X148776000Y-87783500D01*
G75*
G02*
X148855500Y-87704000I79500J0D01*
G01*
X149014500Y-87704000D01*
G75*
G02*
X149094000Y-87783500I0J-79500D01*
G01*
X149094000Y-87984500D01*
G75*
G02*
X149014500Y-88064000I-79500J0D01*
G01*
X148855500Y-88064000D01*
G75*
G02*
X148776000Y-87984500I0J79500D01*
G01*
G37*
G36*
G01*
X148086000Y-87984500D02*
X148086000Y-87783500D01*
G75*
G02*
X148165500Y-87704000I79500J0D01*
G01*
X148324500Y-87704000D01*
G75*
G02*
X148404000Y-87783500I0J-79500D01*
G01*
X148404000Y-87984500D01*
G75*
G02*
X148324500Y-88064000I-79500J0D01*
G01*
X148165500Y-88064000D01*
G75*
G02*
X148086000Y-87984500I0J79500D01*
G01*
G37*
%TD*%
%TO.C,0402R*%
G36*
G01*
X144004000Y-88069000D02*
X144004000Y-87699000D01*
G75*
G02*
X144139000Y-87564000I135000J0D01*
G01*
X144409000Y-87564000D01*
G75*
G02*
X144544000Y-87699000I0J-135000D01*
G01*
X144544000Y-88069000D01*
G75*
G02*
X144409000Y-88204000I-135000J0D01*
G01*
X144139000Y-88204000D01*
G75*
G02*
X144004000Y-88069000I0J135000D01*
G01*
G37*
G36*
G01*
X142984000Y-88069000D02*
X142984000Y-87699000D01*
G75*
G02*
X143119000Y-87564000I135000J0D01*
G01*
X143389000Y-87564000D01*
G75*
G02*
X143524000Y-87699000I0J-135000D01*
G01*
X143524000Y-88069000D01*
G75*
G02*
X143389000Y-88204000I-135000J0D01*
G01*
X143119000Y-88204000D01*
G75*
G02*
X142984000Y-88069000I0J135000D01*
G01*
G37*
%TD*%
M02*
