%TF.GenerationSoftware,KiCad,Pcbnew,5.1.8-db9833491~88~ubuntu20.04.1*%
%TF.CreationDate,2020-12-22T00:38:32+08:00*%
%TF.ProjectId,Ingress_BioCard,496e6772-6573-4735-9f42-696f43617264,1.0*%
%TF.SameCoordinates,Original*%
%TF.FileFunction,Copper,L1,Top*%
%TF.FilePolarity,Positive*%
%FSLAX46Y46*%
G04 Gerber Fmt 4.6, Leading zero omitted, Abs format (unit mm)*
G04 Created by KiCad (PCBNEW 5.1.8-db9833491~88~ubuntu20.04.1) date 2020-12-22 00:38:32*
%MOMM*%
%LPD*%
G01*
G04 APERTURE LIST*
%TA.AperFunction,NonConductor*%
%ADD10C,2.000000*%
%TD*%
%TA.AperFunction,EtchedComponent*%
%ADD11C,0.010000*%
%TD*%
%TA.AperFunction,ComponentPad*%
%ADD12R,0.900000X0.500000*%
%TD*%
G04 APERTURE END LIST*
D10*
X63250000Y-84370000D02*
G75*
G02*
X66250000Y-81370000I3000000J0D01*
G01*
X152750000Y-130870000D02*
G75*
G02*
X149750000Y-133870000I-3000000J0D01*
G01*
X152750000Y-84370000D02*
X152750000Y-130870000D01*
X66294000Y-81370000D02*
X149750000Y-81370000D01*
X66250000Y-133870000D02*
G75*
G02*
X63250000Y-130870000I0J3000000D01*
G01*
X63250000Y-84370000D02*
X63250000Y-130870000D01*
X149750000Y-81370000D02*
G75*
G02*
X152750000Y-84370000I0J-3000000D01*
G01*
X66040000Y-133870000D02*
X149860000Y-133870000D01*
D11*
%TO.C,G\u002A\u002A\u002A*%
G36*
X102233442Y-93785876D02*
G01*
X104568608Y-94650076D01*
X106555437Y-96103097D01*
X108140669Y-98092870D01*
X109271046Y-100567329D01*
X109317327Y-100711261D01*
X109757036Y-101932318D01*
X110123839Y-102511179D01*
X110464369Y-102501003D01*
X110666389Y-102249111D01*
X111219577Y-101926264D01*
X112018702Y-101957707D01*
X112727516Y-102299142D01*
X112930254Y-102547347D01*
X113052075Y-103391972D01*
X112655154Y-104135758D01*
X111916613Y-104561306D01*
X111295055Y-104554391D01*
X110484694Y-104528716D01*
X109427869Y-104712958D01*
X108345624Y-105037125D01*
X107459001Y-105431222D01*
X106989041Y-105825256D01*
X106962222Y-105926402D01*
X107073800Y-106473357D01*
X107371659Y-107506153D01*
X107800482Y-108847729D01*
X108304957Y-110321022D01*
X108535059Y-110961051D01*
X108868829Y-111042853D01*
X109747580Y-110889624D01*
X111203034Y-110493295D01*
X113266912Y-109845795D01*
X114428246Y-109461745D01*
X116377643Y-108825223D01*
X118145224Y-108277805D01*
X119601377Y-107857333D01*
X120616489Y-107601647D01*
X121007997Y-107540778D01*
X122431417Y-107843112D01*
X123824786Y-108639866D01*
X124908088Y-109765664D01*
X124990248Y-109892664D01*
X125563939Y-111417509D01*
X125632448Y-113125303D01*
X125219354Y-114764944D01*
X124415105Y-116017483D01*
X122912940Y-117116435D01*
X121184291Y-117559696D01*
X119521616Y-117380694D01*
X118473564Y-116921897D01*
X117434988Y-116190918D01*
X116599340Y-115357509D01*
X116160072Y-114591424D01*
X116134444Y-114408503D01*
X116366373Y-113910309D01*
X116960385Y-113865711D01*
X117763817Y-114245764D01*
X118469155Y-114851175D01*
X119652917Y-115705456D01*
X120883980Y-115966834D01*
X122057559Y-115731376D01*
X123068872Y-115095147D01*
X123813137Y-114154215D01*
X124185569Y-113004647D01*
X124081387Y-111742508D01*
X123395807Y-110463866D01*
X123335029Y-110390067D01*
X122656397Y-109753878D01*
X121854233Y-109403602D01*
X120813030Y-109340098D01*
X119417282Y-109564224D01*
X117551484Y-110076838D01*
X116406358Y-110441551D01*
X112937890Y-111578435D01*
X113169367Y-112632343D01*
X113961176Y-114985950D01*
X115147814Y-116898589D01*
X116637859Y-118350560D01*
X118339894Y-119322167D01*
X120162499Y-119793709D01*
X122014255Y-119745490D01*
X123803743Y-119157809D01*
X125439544Y-118010969D01*
X126830239Y-116285272D01*
X127185603Y-115652483D01*
X127773420Y-114370616D01*
X128025976Y-113339258D01*
X128015796Y-112233142D01*
X127994385Y-112025278D01*
X127438763Y-109817512D01*
X126352170Y-107976934D01*
X124814787Y-106585625D01*
X122906795Y-105725667D01*
X121619227Y-105499032D01*
X120479256Y-105479378D01*
X119261032Y-105639342D01*
X117760600Y-106016524D01*
X116257712Y-106487502D01*
X114743242Y-107014557D01*
X113444200Y-107518128D01*
X112532727Y-107928690D01*
X112226111Y-108115778D01*
X111320045Y-108585454D01*
X110504062Y-108477636D01*
X109966989Y-107829387D01*
X109915534Y-107662277D01*
X109945888Y-107121202D01*
X110576803Y-107121202D01*
X110666389Y-107540778D01*
X111115970Y-107880288D01*
X111486750Y-107677302D01*
X111548333Y-107385209D01*
X111349100Y-106794939D01*
X111219932Y-106673899D01*
X110801663Y-106697665D01*
X110576803Y-107121202D01*
X109945888Y-107121202D01*
X109964625Y-106787234D01*
X110445343Y-106125937D01*
X111169782Y-105882650D01*
X111490667Y-105950021D01*
X112007386Y-105921745D01*
X113036044Y-105701650D01*
X114421400Y-105327443D01*
X115815796Y-104899472D01*
X117925833Y-104253506D01*
X119551123Y-103862549D01*
X120858745Y-103711548D01*
X122015777Y-103785449D01*
X123189298Y-104069199D01*
X123587886Y-104199232D01*
X125693233Y-105250596D01*
X127371472Y-106754203D01*
X128595271Y-108595395D01*
X129337298Y-110659515D01*
X129570220Y-112831906D01*
X129266706Y-114997912D01*
X128399423Y-117042874D01*
X127054940Y-118743354D01*
X125103416Y-120198647D01*
X122931007Y-121064274D01*
X120660204Y-121343757D01*
X118413496Y-121040617D01*
X116313374Y-120158379D01*
X114482329Y-118700564D01*
X114187343Y-118373302D01*
X113461673Y-117396824D01*
X112792868Y-116185120D01*
X112106492Y-114584830D01*
X111375797Y-112580643D01*
X111076176Y-112331963D01*
X110369411Y-112454605D01*
X110167361Y-112522022D01*
X109107214Y-112891591D01*
X109989771Y-115243268D01*
X111060849Y-117697809D01*
X112267357Y-119587172D01*
X113733489Y-121051646D01*
X115583442Y-122231517D01*
X116612244Y-122723845D01*
X118181375Y-123235190D01*
X119341299Y-123232392D01*
X120427170Y-123217176D01*
X121144951Y-123620011D01*
X121391525Y-124299511D01*
X121063776Y-125114287D01*
X120871746Y-125330857D01*
X120415285Y-125729709D01*
X119982417Y-125817398D01*
X119310332Y-125598199D01*
X118780278Y-125364899D01*
X117787890Y-124953091D01*
X116538860Y-124477271D01*
X116378467Y-124419608D01*
X119386408Y-124419608D01*
X119488535Y-124770926D01*
X119816616Y-124772386D01*
X120313633Y-124494093D01*
X120386412Y-124297722D01*
X120140766Y-123969882D01*
X119687986Y-124045956D01*
X119386408Y-124419608D01*
X116378467Y-124419608D01*
X116056162Y-124303736D01*
X113982597Y-123234112D01*
X112038780Y-121589482D01*
X110340514Y-119500257D01*
X109003597Y-117096849D01*
X108498239Y-115792223D01*
X108122723Y-114748961D01*
X107795105Y-113990516D01*
X107667217Y-113778357D01*
X107228591Y-113735227D01*
X106306267Y-113885213D01*
X105085242Y-114196364D01*
X104861561Y-114262901D01*
X102246524Y-114799259D01*
X99553832Y-114894413D01*
X97013146Y-114555225D01*
X95243922Y-113975558D01*
X93354180Y-112848776D01*
X91516933Y-111251572D01*
X89951957Y-109398964D01*
X89072908Y-107938142D01*
X88617535Y-106926736D01*
X88333972Y-106021565D01*
X88184585Y-105002200D01*
X88131739Y-103648212D01*
X88131734Y-102425500D01*
X88149011Y-100779605D01*
X88174894Y-99277980D01*
X88205122Y-98141616D01*
X88221748Y-97757726D01*
X88321270Y-97412444D01*
X89086002Y-97412444D01*
X89343308Y-97904181D01*
X89676111Y-98015778D01*
X90128562Y-97758802D01*
X90224275Y-97632261D01*
X90265486Y-97094249D01*
X89892239Y-96733291D01*
X89380287Y-96776876D01*
X89283516Y-96856150D01*
X89086002Y-97412444D01*
X88321270Y-97412444D01*
X88525186Y-96704978D01*
X89196479Y-96128167D01*
X90092962Y-96126755D01*
X90381666Y-96251889D01*
X90993091Y-96877672D01*
X90953346Y-97705868D01*
X90383279Y-98543228D01*
X89816320Y-99591845D01*
X89472580Y-101277131D01*
X89457749Y-101412563D01*
X89512951Y-104103753D01*
X90224052Y-106624838D01*
X91547154Y-108895647D01*
X93438354Y-110836010D01*
X95298518Y-112078881D01*
X96653362Y-112765982D01*
X97760487Y-113146299D01*
X98956170Y-113308980D01*
X100061018Y-113341399D01*
X101502022Y-113268979D01*
X103039861Y-113056721D01*
X104514667Y-112744725D01*
X105766574Y-112373090D01*
X106635714Y-111981917D01*
X106962219Y-111611305D01*
X106962222Y-111610367D01*
X106852585Y-111052924D01*
X106572754Y-110075676D01*
X106196346Y-108899947D01*
X105796982Y-107747062D01*
X105448281Y-106838345D01*
X105229454Y-106401054D01*
X104804904Y-106374024D01*
X103906300Y-106547237D01*
X102723979Y-106883463D01*
X102663804Y-106902917D01*
X101408400Y-107293805D01*
X100567184Y-107466736D01*
X99886418Y-107431089D01*
X99112362Y-107196244D01*
X98719947Y-107048693D01*
X97194087Y-106146706D01*
X96147647Y-104881566D01*
X95584006Y-103392966D01*
X95506544Y-101820597D01*
X95918640Y-100304151D01*
X96823673Y-98983321D01*
X98225021Y-97997798D01*
X98498145Y-97879513D01*
X99883640Y-97426803D01*
X100996052Y-97375875D01*
X102148178Y-97735384D01*
X102689054Y-97995456D01*
X103733475Y-98677684D01*
X104510738Y-99460705D01*
X104956807Y-100219267D01*
X105007643Y-100828117D01*
X104599212Y-101162003D01*
X104322706Y-101190778D01*
X103789021Y-100957571D01*
X103038040Y-100374536D01*
X102783162Y-100132444D01*
X101495039Y-99249870D01*
X100140499Y-99051956D01*
X98810099Y-99539229D01*
X98115641Y-100105308D01*
X97249716Y-101384781D01*
X97066563Y-102741527D01*
X97566181Y-104074963D01*
X98115641Y-104745692D01*
X98801992Y-105326171D01*
X99532048Y-105649705D01*
X100436059Y-105713192D01*
X101644279Y-105513528D01*
X103286960Y-105047613D01*
X104682679Y-104589273D01*
X106376627Y-103997650D01*
X107464662Y-103495731D01*
X108009282Y-102947307D01*
X108014460Y-102887869D01*
X111282359Y-102887869D01*
X111371944Y-103307444D01*
X111821525Y-103646955D01*
X112192306Y-103443969D01*
X112253889Y-103151875D01*
X112054656Y-102561605D01*
X111925487Y-102440565D01*
X111507218Y-102464332D01*
X111282359Y-102887869D01*
X108014460Y-102887869D01*
X108072984Y-102216167D01*
X107718266Y-101166103D01*
X107007626Y-99660906D01*
X106974824Y-99593695D01*
X105665527Y-97574668D01*
X104040269Y-96159358D01*
X102166030Y-95370828D01*
X100109789Y-95232143D01*
X97938527Y-95766364D01*
X97048650Y-96175810D01*
X95318789Y-97439362D01*
X94104303Y-99073249D01*
X93422219Y-100948347D01*
X93289568Y-102935530D01*
X93723380Y-104905672D01*
X94740682Y-106729650D01*
X95540654Y-107610258D01*
X96802710Y-108543904D01*
X98236202Y-109218965D01*
X99670024Y-109595374D01*
X100933068Y-109633063D01*
X101854228Y-109291965D01*
X102023333Y-109128278D01*
X102762238Y-108638347D01*
X103572418Y-108847927D01*
X103938413Y-109153476D01*
X104433868Y-109836134D01*
X104309683Y-110438653D01*
X103961128Y-110844253D01*
X103308419Y-111113997D01*
X102169369Y-111244832D01*
X100747924Y-111243826D01*
X99248034Y-111118046D01*
X97873645Y-110874559D01*
X97010076Y-110603359D01*
X95436609Y-109654473D01*
X102423612Y-109654473D01*
X102520483Y-110230387D01*
X102810152Y-110620871D01*
X103163787Y-110421990D01*
X103389994Y-109940383D01*
X103158102Y-109592768D01*
X102665366Y-109347666D01*
X102423612Y-109654473D01*
X95436609Y-109654473D01*
X95035261Y-109412439D01*
X93446033Y-107729433D01*
X92314325Y-105694260D01*
X91712069Y-103446836D01*
X91711198Y-101127081D01*
X91822148Y-100512147D01*
X92650021Y-98286126D01*
X94005786Y-96408684D01*
X95776912Y-94952523D01*
X97850868Y-93990342D01*
X100115126Y-93594842D01*
X102233442Y-93785876D01*
G37*
X102233442Y-93785876D02*
X104568608Y-94650076D01*
X106555437Y-96103097D01*
X108140669Y-98092870D01*
X109271046Y-100567329D01*
X109317327Y-100711261D01*
X109757036Y-101932318D01*
X110123839Y-102511179D01*
X110464369Y-102501003D01*
X110666389Y-102249111D01*
X111219577Y-101926264D01*
X112018702Y-101957707D01*
X112727516Y-102299142D01*
X112930254Y-102547347D01*
X113052075Y-103391972D01*
X112655154Y-104135758D01*
X111916613Y-104561306D01*
X111295055Y-104554391D01*
X110484694Y-104528716D01*
X109427869Y-104712958D01*
X108345624Y-105037125D01*
X107459001Y-105431222D01*
X106989041Y-105825256D01*
X106962222Y-105926402D01*
X107073800Y-106473357D01*
X107371659Y-107506153D01*
X107800482Y-108847729D01*
X108304957Y-110321022D01*
X108535059Y-110961051D01*
X108868829Y-111042853D01*
X109747580Y-110889624D01*
X111203034Y-110493295D01*
X113266912Y-109845795D01*
X114428246Y-109461745D01*
X116377643Y-108825223D01*
X118145224Y-108277805D01*
X119601377Y-107857333D01*
X120616489Y-107601647D01*
X121007997Y-107540778D01*
X122431417Y-107843112D01*
X123824786Y-108639866D01*
X124908088Y-109765664D01*
X124990248Y-109892664D01*
X125563939Y-111417509D01*
X125632448Y-113125303D01*
X125219354Y-114764944D01*
X124415105Y-116017483D01*
X122912940Y-117116435D01*
X121184291Y-117559696D01*
X119521616Y-117380694D01*
X118473564Y-116921897D01*
X117434988Y-116190918D01*
X116599340Y-115357509D01*
X116160072Y-114591424D01*
X116134444Y-114408503D01*
X116366373Y-113910309D01*
X116960385Y-113865711D01*
X117763817Y-114245764D01*
X118469155Y-114851175D01*
X119652917Y-115705456D01*
X120883980Y-115966834D01*
X122057559Y-115731376D01*
X123068872Y-115095147D01*
X123813137Y-114154215D01*
X124185569Y-113004647D01*
X124081387Y-111742508D01*
X123395807Y-110463866D01*
X123335029Y-110390067D01*
X122656397Y-109753878D01*
X121854233Y-109403602D01*
X120813030Y-109340098D01*
X119417282Y-109564224D01*
X117551484Y-110076838D01*
X116406358Y-110441551D01*
X112937890Y-111578435D01*
X113169367Y-112632343D01*
X113961176Y-114985950D01*
X115147814Y-116898589D01*
X116637859Y-118350560D01*
X118339894Y-119322167D01*
X120162499Y-119793709D01*
X122014255Y-119745490D01*
X123803743Y-119157809D01*
X125439544Y-118010969D01*
X126830239Y-116285272D01*
X127185603Y-115652483D01*
X127773420Y-114370616D01*
X128025976Y-113339258D01*
X128015796Y-112233142D01*
X127994385Y-112025278D01*
X127438763Y-109817512D01*
X126352170Y-107976934D01*
X124814787Y-106585625D01*
X122906795Y-105725667D01*
X121619227Y-105499032D01*
X120479256Y-105479378D01*
X119261032Y-105639342D01*
X117760600Y-106016524D01*
X116257712Y-106487502D01*
X114743242Y-107014557D01*
X113444200Y-107518128D01*
X112532727Y-107928690D01*
X112226111Y-108115778D01*
X111320045Y-108585454D01*
X110504062Y-108477636D01*
X109966989Y-107829387D01*
X109915534Y-107662277D01*
X109945888Y-107121202D01*
X110576803Y-107121202D01*
X110666389Y-107540778D01*
X111115970Y-107880288D01*
X111486750Y-107677302D01*
X111548333Y-107385209D01*
X111349100Y-106794939D01*
X111219932Y-106673899D01*
X110801663Y-106697665D01*
X110576803Y-107121202D01*
X109945888Y-107121202D01*
X109964625Y-106787234D01*
X110445343Y-106125937D01*
X111169782Y-105882650D01*
X111490667Y-105950021D01*
X112007386Y-105921745D01*
X113036044Y-105701650D01*
X114421400Y-105327443D01*
X115815796Y-104899472D01*
X117925833Y-104253506D01*
X119551123Y-103862549D01*
X120858745Y-103711548D01*
X122015777Y-103785449D01*
X123189298Y-104069199D01*
X123587886Y-104199232D01*
X125693233Y-105250596D01*
X127371472Y-106754203D01*
X128595271Y-108595395D01*
X129337298Y-110659515D01*
X129570220Y-112831906D01*
X129266706Y-114997912D01*
X128399423Y-117042874D01*
X127054940Y-118743354D01*
X125103416Y-120198647D01*
X122931007Y-121064274D01*
X120660204Y-121343757D01*
X118413496Y-121040617D01*
X116313374Y-120158379D01*
X114482329Y-118700564D01*
X114187343Y-118373302D01*
X113461673Y-117396824D01*
X112792868Y-116185120D01*
X112106492Y-114584830D01*
X111375797Y-112580643D01*
X111076176Y-112331963D01*
X110369411Y-112454605D01*
X110167361Y-112522022D01*
X109107214Y-112891591D01*
X109989771Y-115243268D01*
X111060849Y-117697809D01*
X112267357Y-119587172D01*
X113733489Y-121051646D01*
X115583442Y-122231517D01*
X116612244Y-122723845D01*
X118181375Y-123235190D01*
X119341299Y-123232392D01*
X120427170Y-123217176D01*
X121144951Y-123620011D01*
X121391525Y-124299511D01*
X121063776Y-125114287D01*
X120871746Y-125330857D01*
X120415285Y-125729709D01*
X119982417Y-125817398D01*
X119310332Y-125598199D01*
X118780278Y-125364899D01*
X117787890Y-124953091D01*
X116538860Y-124477271D01*
X116378467Y-124419608D01*
X119386408Y-124419608D01*
X119488535Y-124770926D01*
X119816616Y-124772386D01*
X120313633Y-124494093D01*
X120386412Y-124297722D01*
X120140766Y-123969882D01*
X119687986Y-124045956D01*
X119386408Y-124419608D01*
X116378467Y-124419608D01*
X116056162Y-124303736D01*
X113982597Y-123234112D01*
X112038780Y-121589482D01*
X110340514Y-119500257D01*
X109003597Y-117096849D01*
X108498239Y-115792223D01*
X108122723Y-114748961D01*
X107795105Y-113990516D01*
X107667217Y-113778357D01*
X107228591Y-113735227D01*
X106306267Y-113885213D01*
X105085242Y-114196364D01*
X104861561Y-114262901D01*
X102246524Y-114799259D01*
X99553832Y-114894413D01*
X97013146Y-114555225D01*
X95243922Y-113975558D01*
X93354180Y-112848776D01*
X91516933Y-111251572D01*
X89951957Y-109398964D01*
X89072908Y-107938142D01*
X88617535Y-106926736D01*
X88333972Y-106021565D01*
X88184585Y-105002200D01*
X88131739Y-103648212D01*
X88131734Y-102425500D01*
X88149011Y-100779605D01*
X88174894Y-99277980D01*
X88205122Y-98141616D01*
X88221748Y-97757726D01*
X88321270Y-97412444D01*
X89086002Y-97412444D01*
X89343308Y-97904181D01*
X89676111Y-98015778D01*
X90128562Y-97758802D01*
X90224275Y-97632261D01*
X90265486Y-97094249D01*
X89892239Y-96733291D01*
X89380287Y-96776876D01*
X89283516Y-96856150D01*
X89086002Y-97412444D01*
X88321270Y-97412444D01*
X88525186Y-96704978D01*
X89196479Y-96128167D01*
X90092962Y-96126755D01*
X90381666Y-96251889D01*
X90993091Y-96877672D01*
X90953346Y-97705868D01*
X90383279Y-98543228D01*
X89816320Y-99591845D01*
X89472580Y-101277131D01*
X89457749Y-101412563D01*
X89512951Y-104103753D01*
X90224052Y-106624838D01*
X91547154Y-108895647D01*
X93438354Y-110836010D01*
X95298518Y-112078881D01*
X96653362Y-112765982D01*
X97760487Y-113146299D01*
X98956170Y-113308980D01*
X100061018Y-113341399D01*
X101502022Y-113268979D01*
X103039861Y-113056721D01*
X104514667Y-112744725D01*
X105766574Y-112373090D01*
X106635714Y-111981917D01*
X106962219Y-111611305D01*
X106962222Y-111610367D01*
X106852585Y-111052924D01*
X106572754Y-110075676D01*
X106196346Y-108899947D01*
X105796982Y-107747062D01*
X105448281Y-106838345D01*
X105229454Y-106401054D01*
X104804904Y-106374024D01*
X103906300Y-106547237D01*
X102723979Y-106883463D01*
X102663804Y-106902917D01*
X101408400Y-107293805D01*
X100567184Y-107466736D01*
X99886418Y-107431089D01*
X99112362Y-107196244D01*
X98719947Y-107048693D01*
X97194087Y-106146706D01*
X96147647Y-104881566D01*
X95584006Y-103392966D01*
X95506544Y-101820597D01*
X95918640Y-100304151D01*
X96823673Y-98983321D01*
X98225021Y-97997798D01*
X98498145Y-97879513D01*
X99883640Y-97426803D01*
X100996052Y-97375875D01*
X102148178Y-97735384D01*
X102689054Y-97995456D01*
X103733475Y-98677684D01*
X104510738Y-99460705D01*
X104956807Y-100219267D01*
X105007643Y-100828117D01*
X104599212Y-101162003D01*
X104322706Y-101190778D01*
X103789021Y-100957571D01*
X103038040Y-100374536D01*
X102783162Y-100132444D01*
X101495039Y-99249870D01*
X100140499Y-99051956D01*
X98810099Y-99539229D01*
X98115641Y-100105308D01*
X97249716Y-101384781D01*
X97066563Y-102741527D01*
X97566181Y-104074963D01*
X98115641Y-104745692D01*
X98801992Y-105326171D01*
X99532048Y-105649705D01*
X100436059Y-105713192D01*
X101644279Y-105513528D01*
X103286960Y-105047613D01*
X104682679Y-104589273D01*
X106376627Y-103997650D01*
X107464662Y-103495731D01*
X108009282Y-102947307D01*
X108014460Y-102887869D01*
X111282359Y-102887869D01*
X111371944Y-103307444D01*
X111821525Y-103646955D01*
X112192306Y-103443969D01*
X112253889Y-103151875D01*
X112054656Y-102561605D01*
X111925487Y-102440565D01*
X111507218Y-102464332D01*
X111282359Y-102887869D01*
X108014460Y-102887869D01*
X108072984Y-102216167D01*
X107718266Y-101166103D01*
X107007626Y-99660906D01*
X106974824Y-99593695D01*
X105665527Y-97574668D01*
X104040269Y-96159358D01*
X102166030Y-95370828D01*
X100109789Y-95232143D01*
X97938527Y-95766364D01*
X97048650Y-96175810D01*
X95318789Y-97439362D01*
X94104303Y-99073249D01*
X93422219Y-100948347D01*
X93289568Y-102935530D01*
X93723380Y-104905672D01*
X94740682Y-106729650D01*
X95540654Y-107610258D01*
X96802710Y-108543904D01*
X98236202Y-109218965D01*
X99670024Y-109595374D01*
X100933068Y-109633063D01*
X101854228Y-109291965D01*
X102023333Y-109128278D01*
X102762238Y-108638347D01*
X103572418Y-108847927D01*
X103938413Y-109153476D01*
X104433868Y-109836134D01*
X104309683Y-110438653D01*
X103961128Y-110844253D01*
X103308419Y-111113997D01*
X102169369Y-111244832D01*
X100747924Y-111243826D01*
X99248034Y-111118046D01*
X97873645Y-110874559D01*
X97010076Y-110603359D01*
X95436609Y-109654473D01*
X102423612Y-109654473D01*
X102520483Y-110230387D01*
X102810152Y-110620871D01*
X103163787Y-110421990D01*
X103389994Y-109940383D01*
X103158102Y-109592768D01*
X102665366Y-109347666D01*
X102423612Y-109654473D01*
X95436609Y-109654473D01*
X95035261Y-109412439D01*
X93446033Y-107729433D01*
X92314325Y-105694260D01*
X91712069Y-103446836D01*
X91711198Y-101127081D01*
X91822148Y-100512147D01*
X92650021Y-98286126D01*
X94005786Y-96408684D01*
X95776912Y-94952523D01*
X97850868Y-93990342D01*
X100115126Y-93594842D01*
X102233442Y-93785876D01*
G36*
X122634378Y-100064357D02*
G01*
X123111302Y-100150236D01*
X125980750Y-101071884D01*
X128461432Y-102531714D01*
X130497117Y-104457263D01*
X132031575Y-106776066D01*
X133008574Y-109415662D01*
X133371884Y-112303586D01*
X133345042Y-113338233D01*
X132983650Y-115824573D01*
X132190796Y-118029247D01*
X130887540Y-120109909D01*
X128994942Y-122224213D01*
X128800475Y-122414302D01*
X127711346Y-123441562D01*
X126798259Y-124251192D01*
X126184995Y-124736174D01*
X126009965Y-124826889D01*
X125545322Y-124602867D01*
X125155476Y-124272524D01*
X124698704Y-123746212D01*
X124674471Y-123296091D01*
X124725465Y-123189664D01*
X125452452Y-123189664D01*
X125481515Y-123413286D01*
X125989059Y-123753834D01*
X126514292Y-123454674D01*
X126555894Y-123392307D01*
X126635540Y-122897882D01*
X126200109Y-122747453D01*
X125828688Y-122840538D01*
X125452452Y-123189664D01*
X124725465Y-123189664D01*
X124966301Y-122687030D01*
X125581808Y-122144249D01*
X126152748Y-122004667D01*
X126905701Y-121722366D01*
X127876258Y-120970481D01*
X128931122Y-119891535D01*
X129936997Y-118628054D01*
X130760586Y-117322562D01*
X131016361Y-116804352D01*
X131563115Y-115079418D01*
X131781476Y-112996116D01*
X131789128Y-112601239D01*
X131758411Y-111152403D01*
X131580892Y-110025034D01*
X131178158Y-108897429D01*
X130588534Y-107675628D01*
X129492997Y-105848774D01*
X128246330Y-104465299D01*
X127599722Y-103932554D01*
X125520600Y-102672792D01*
X123275909Y-101867679D01*
X121023359Y-101542817D01*
X118920663Y-101723811D01*
X117401543Y-102276913D01*
X116033258Y-103010270D01*
X115294998Y-102272010D01*
X114818803Y-101483449D01*
X114860505Y-101317442D01*
X115574674Y-101317442D01*
X115603738Y-101541064D01*
X116111281Y-101881611D01*
X116636514Y-101582451D01*
X116678117Y-101520085D01*
X116757763Y-101025659D01*
X116322332Y-100875231D01*
X115950910Y-100968315D01*
X115574674Y-101317442D01*
X114860505Y-101317442D01*
X114985104Y-100821442D01*
X115731319Y-100386594D01*
X116539155Y-100271953D01*
X117662028Y-100193721D01*
X119004633Y-100042801D01*
X119420249Y-99984330D01*
X120934504Y-99913238D01*
X122634378Y-100064357D01*
G37*
X122634378Y-100064357D02*
X123111302Y-100150236D01*
X125980750Y-101071884D01*
X128461432Y-102531714D01*
X130497117Y-104457263D01*
X132031575Y-106776066D01*
X133008574Y-109415662D01*
X133371884Y-112303586D01*
X133345042Y-113338233D01*
X132983650Y-115824573D01*
X132190796Y-118029247D01*
X130887540Y-120109909D01*
X128994942Y-122224213D01*
X128800475Y-122414302D01*
X127711346Y-123441562D01*
X126798259Y-124251192D01*
X126184995Y-124736174D01*
X126009965Y-124826889D01*
X125545322Y-124602867D01*
X125155476Y-124272524D01*
X124698704Y-123746212D01*
X124674471Y-123296091D01*
X124725465Y-123189664D01*
X125452452Y-123189664D01*
X125481515Y-123413286D01*
X125989059Y-123753834D01*
X126514292Y-123454674D01*
X126555894Y-123392307D01*
X126635540Y-122897882D01*
X126200109Y-122747453D01*
X125828688Y-122840538D01*
X125452452Y-123189664D01*
X124725465Y-123189664D01*
X124966301Y-122687030D01*
X125581808Y-122144249D01*
X126152748Y-122004667D01*
X126905701Y-121722366D01*
X127876258Y-120970481D01*
X128931122Y-119891535D01*
X129936997Y-118628054D01*
X130760586Y-117322562D01*
X131016361Y-116804352D01*
X131563115Y-115079418D01*
X131781476Y-112996116D01*
X131789128Y-112601239D01*
X131758411Y-111152403D01*
X131580892Y-110025034D01*
X131178158Y-108897429D01*
X130588534Y-107675628D01*
X129492997Y-105848774D01*
X128246330Y-104465299D01*
X127599722Y-103932554D01*
X125520600Y-102672792D01*
X123275909Y-101867679D01*
X121023359Y-101542817D01*
X118920663Y-101723811D01*
X117401543Y-102276913D01*
X116033258Y-103010270D01*
X115294998Y-102272010D01*
X114818803Y-101483449D01*
X114860505Y-101317442D01*
X115574674Y-101317442D01*
X115603738Y-101541064D01*
X116111281Y-101881611D01*
X116636514Y-101582451D01*
X116678117Y-101520085D01*
X116757763Y-101025659D01*
X116322332Y-100875231D01*
X115950910Y-100968315D01*
X115574674Y-101317442D01*
X114860505Y-101317442D01*
X114985104Y-100821442D01*
X115731319Y-100386594D01*
X116539155Y-100271953D01*
X117662028Y-100193721D01*
X119004633Y-100042801D01*
X119420249Y-99984330D01*
X120934504Y-99913238D01*
X122634378Y-100064357D01*
G36*
X104238539Y-90396388D02*
G01*
X105999882Y-91093451D01*
X106960386Y-91679690D01*
X108128106Y-92553251D01*
X109375355Y-93597044D01*
X110574442Y-94693978D01*
X111597680Y-95726964D01*
X112317379Y-96578912D01*
X112605849Y-97132731D01*
X112606667Y-97151826D01*
X112364486Y-97757916D01*
X111822891Y-98381962D01*
X111259301Y-98715404D01*
X111195555Y-98721333D01*
X110728974Y-98497220D01*
X110338809Y-98166968D01*
X109881390Y-97385973D01*
X109855042Y-97246220D01*
X110685607Y-97246220D01*
X111007522Y-97635320D01*
X111195555Y-97663000D01*
X111648007Y-97406024D01*
X111743719Y-97279484D01*
X111740460Y-96733321D01*
X111573460Y-96488683D01*
X111141253Y-96291026D01*
X110851365Y-96590772D01*
X110685607Y-97246220D01*
X109855042Y-97246220D01*
X109784444Y-96871774D01*
X109504285Y-96145463D01*
X108762899Y-95205904D01*
X107708925Y-94194634D01*
X106490999Y-93253192D01*
X105257759Y-92523117D01*
X105177572Y-92484927D01*
X103344934Y-91825682D01*
X101411602Y-91463556D01*
X99546968Y-91399489D01*
X97920426Y-91634419D01*
X96701367Y-92169285D01*
X96394136Y-92436238D01*
X95578395Y-92963136D01*
X94752210Y-92986819D01*
X94139455Y-92541443D01*
X93967771Y-92066062D01*
X93987249Y-91842167D01*
X94615000Y-91842167D01*
X94897387Y-92309868D01*
X95144167Y-92371333D01*
X95611868Y-92088946D01*
X95673333Y-91842167D01*
X95390946Y-91374465D01*
X95144167Y-91313000D01*
X94676465Y-91595387D01*
X94615000Y-91842167D01*
X93987249Y-91842167D01*
X94046633Y-91159603D01*
X94652597Y-90630320D01*
X95547091Y-90426670D01*
X96480262Y-90305238D01*
X97749152Y-90123072D01*
X98495555Y-90009872D01*
X101421781Y-89882880D01*
X104238539Y-90396388D01*
G37*
X104238539Y-90396388D02*
X105999882Y-91093451D01*
X106960386Y-91679690D01*
X108128106Y-92553251D01*
X109375355Y-93597044D01*
X110574442Y-94693978D01*
X111597680Y-95726964D01*
X112317379Y-96578912D01*
X112605849Y-97132731D01*
X112606667Y-97151826D01*
X112364486Y-97757916D01*
X111822891Y-98381962D01*
X111259301Y-98715404D01*
X111195555Y-98721333D01*
X110728974Y-98497220D01*
X110338809Y-98166968D01*
X109881390Y-97385973D01*
X109855042Y-97246220D01*
X110685607Y-97246220D01*
X111007522Y-97635320D01*
X111195555Y-97663000D01*
X111648007Y-97406024D01*
X111743719Y-97279484D01*
X111740460Y-96733321D01*
X111573460Y-96488683D01*
X111141253Y-96291026D01*
X110851365Y-96590772D01*
X110685607Y-97246220D01*
X109855042Y-97246220D01*
X109784444Y-96871774D01*
X109504285Y-96145463D01*
X108762899Y-95205904D01*
X107708925Y-94194634D01*
X106490999Y-93253192D01*
X105257759Y-92523117D01*
X105177572Y-92484927D01*
X103344934Y-91825682D01*
X101411602Y-91463556D01*
X99546968Y-91399489D01*
X97920426Y-91634419D01*
X96701367Y-92169285D01*
X96394136Y-92436238D01*
X95578395Y-92963136D01*
X94752210Y-92986819D01*
X94139455Y-92541443D01*
X93967771Y-92066062D01*
X93987249Y-91842167D01*
X94615000Y-91842167D01*
X94897387Y-92309868D01*
X95144167Y-92371333D01*
X95611868Y-92088946D01*
X95673333Y-91842167D01*
X95390946Y-91374465D01*
X95144167Y-91313000D01*
X94676465Y-91595387D01*
X94615000Y-91842167D01*
X93987249Y-91842167D01*
X94046633Y-91159603D01*
X94652597Y-90630320D01*
X95547091Y-90426670D01*
X96480262Y-90305238D01*
X97749152Y-90123072D01*
X98495555Y-90009872D01*
X101421781Y-89882880D01*
X104238539Y-90396388D01*
%TD*%
D12*
%TO.P,2.4GHz Left,2*%
%TO.N,N/C*%
X92642000Y-92710000D03*
%TD*%
M02*
