%TF.GenerationSoftware,KiCad,Pcbnew,5.1.8-db9833491~88~ubuntu20.04.1*%
%TF.CreationDate,2020-12-22T00:38:32+08:00*%
%TF.ProjectId,Ingress_BioCard,496e6772-6573-4735-9f42-696f43617264,1.0*%
%TF.SameCoordinates,Original*%
%TF.FileFunction,Other,User*%
%FSLAX46Y46*%
G04 Gerber Fmt 4.6, Leading zero omitted, Abs format (unit mm)*
G04 Created by KiCad (PCBNEW 5.1.8-db9833491~88~ubuntu20.04.1) date 2020-12-22 00:38:32*
%MOMM*%
%LPD*%
G01*
G04 APERTURE LIST*
%ADD10C,0.050000*%
G04 APERTURE END LIST*
D10*
%TO.C,4020R*%
X137710000Y-102764000D02*
X137710000Y-108564000D01*
X137710000Y-108564000D02*
X149310000Y-108564000D01*
X149310000Y-108564000D02*
X149310000Y-102764000D01*
X149310000Y-102764000D02*
X137710000Y-102764000D01*
%TO.C,BGA64*%
X110070000Y-125896000D02*
X121070000Y-125896000D01*
X110070000Y-125896000D02*
X110070000Y-114896000D01*
X121070000Y-114896000D02*
X121070000Y-125896000D01*
X121070000Y-114896000D02*
X110070000Y-114896000D01*
%TO.C,BGA36*%
X122256000Y-108426000D02*
X126156000Y-108426000D01*
X126156000Y-108426000D02*
X126156000Y-104426000D01*
X126156000Y-104426000D02*
X122256000Y-104426000D01*
X122256000Y-104426000D02*
X122256000Y-108426000D01*
%TO.C,BGA25*%
X111450000Y-112578000D02*
X119690000Y-112578000D01*
X111450000Y-112578000D02*
X111450000Y-104338000D01*
X119690000Y-104338000D02*
X119690000Y-112578000D01*
X119690000Y-104338000D02*
X111450000Y-104338000D01*
%TO.C,BGA9*%
X132610000Y-108226000D02*
X132610000Y-104626000D01*
X132610000Y-108226000D02*
X129010000Y-108226000D01*
X129010000Y-104626000D02*
X132610000Y-104626000D01*
X129010000Y-104626000D02*
X129010000Y-108226000D01*
%TO.C,SMA Amphenol*%
X94746000Y-106168000D02*
X102866000Y-106168000D01*
X94746000Y-106168000D02*
X94746000Y-98048000D01*
X102866000Y-98048000D02*
X102866000Y-106168000D01*
X102866000Y-98048000D02*
X94746000Y-98048000D01*
%TO.C,2.4GHz Left*%
X91542000Y-87110000D02*
X107042000Y-87110000D01*
X107042000Y-87110000D02*
X107042000Y-93060000D01*
X107042000Y-93060000D02*
X91542000Y-93060000D01*
X91542000Y-93060000D02*
X91542000Y-87110000D01*
%TO.C,SOT89*%
X120513000Y-94274000D02*
X120513000Y-99274000D01*
X120513000Y-94274000D02*
X125613000Y-94274000D01*
X125613000Y-99274000D02*
X120513000Y-99274000D01*
X125613000Y-99274000D02*
X125613000Y-94274000D01*
%TO.C,SOT223*%
X111043000Y-99739000D02*
X111043000Y-92539000D01*
X111043000Y-92539000D02*
X119843000Y-92539000D01*
X119843000Y-92539000D02*
X119843000Y-99739000D01*
X119843000Y-99739000D02*
X111043000Y-99739000D01*
%TO.C,SOT238*%
X113543000Y-90954000D02*
X113543000Y-87354000D01*
X113543000Y-87354000D02*
X117343000Y-87354000D01*
X117343000Y-87354000D02*
X117343000Y-90954000D01*
X117343000Y-90954000D02*
X113543000Y-90954000D01*
%TO.C,SOT236*%
X121798000Y-90954000D02*
X121798000Y-87354000D01*
X121798000Y-87354000D02*
X125598000Y-87354000D01*
X125598000Y-87354000D02*
X125598000Y-90954000D01*
X125598000Y-90954000D02*
X121798000Y-90954000D01*
%TO.C,SOT235*%
X126878000Y-94974000D02*
X126878000Y-98574000D01*
X130678000Y-94974000D02*
X126878000Y-94974000D01*
X130678000Y-98574000D02*
X130678000Y-94974000D01*
X126878000Y-98574000D02*
X130678000Y-98574000D01*
%TO.C,SOT23*%
X127713000Y-87404000D02*
X127713000Y-90904000D01*
X131113000Y-87404000D02*
X127713000Y-87404000D01*
X131113000Y-90904000D02*
X131113000Y-87404000D01*
X127713000Y-90904000D02*
X131113000Y-90904000D01*
%TO.C,TSSOP24*%
X94782000Y-125686000D02*
X87082000Y-125686000D01*
X94782000Y-120186000D02*
X94782000Y-125686000D01*
X87082000Y-120186000D02*
X94782000Y-120186000D01*
X87082000Y-125686000D02*
X87082000Y-120186000D01*
%TO.C,TSSOP20*%
X106212000Y-125686000D02*
X98512000Y-125686000D01*
X106212000Y-120186000D02*
X106212000Y-125686000D01*
X98512000Y-120186000D02*
X106212000Y-120186000D01*
X98512000Y-125686000D02*
X98512000Y-120186000D01*
%TO.C,TSSOP16*%
X94782000Y-118066000D02*
X87082000Y-118066000D01*
X94782000Y-112566000D02*
X94782000Y-118066000D01*
X87082000Y-112566000D02*
X94782000Y-112566000D01*
X87082000Y-118066000D02*
X87082000Y-112566000D01*
%TO.C,TSSOP14*%
X106212000Y-118066000D02*
X98512000Y-118066000D01*
X106212000Y-112566000D02*
X106212000Y-118066000D01*
X98512000Y-112566000D02*
X106212000Y-112566000D01*
X98512000Y-118066000D02*
X98512000Y-112566000D01*
%TO.C,SOD123*%
X144970000Y-125610000D02*
X149670000Y-125610000D01*
X149670000Y-125610000D02*
X149670000Y-123310000D01*
X149670000Y-123310000D02*
X144970000Y-123310000D01*
X144970000Y-125610000D02*
X144970000Y-123310000D01*
%TO.C,SOD323*%
X145720000Y-121600000D02*
X148920000Y-121600000D01*
X148920000Y-121600000D02*
X148920000Y-119700000D01*
X145720000Y-119700000D02*
X148920000Y-119700000D01*
X145720000Y-121600000D02*
X145720000Y-119700000D01*
%TO.C,SOD523*%
X148570000Y-118302000D02*
X148570000Y-116902000D01*
X146070000Y-118302000D02*
X148570000Y-118302000D01*
X146070000Y-116902000D02*
X146070000Y-118302000D01*
X148570000Y-116902000D02*
X146070000Y-116902000D01*
%TO.C,SOD923*%
X147870000Y-114358000D02*
X146770000Y-114358000D01*
X146770000Y-114358000D02*
X146770000Y-114528000D01*
X146770000Y-115258000D02*
X147870000Y-115258000D01*
X147870000Y-115258000D02*
X147870000Y-115088000D01*
X147870000Y-115088000D02*
X148070000Y-115088000D01*
X148070000Y-115088000D02*
X148070000Y-114528000D01*
X148070000Y-114528000D02*
X147870000Y-114528000D01*
X147870000Y-114528000D02*
X147870000Y-114358000D01*
X146770000Y-115088000D02*
X146570000Y-115088000D01*
X146570000Y-115088000D02*
X146570000Y-114528000D01*
X146570000Y-114528000D02*
X146770000Y-114528000D01*
X146770000Y-115088000D02*
X146770000Y-115258000D01*
%TO.C,SMC*%
X124894000Y-123492000D02*
X134694000Y-123492000D01*
X134694000Y-123492000D02*
X134694000Y-116792000D01*
X134694000Y-116792000D02*
X124894000Y-116792000D01*
X124894000Y-116792000D02*
X124894000Y-123492000D01*
%TO.C,SMB*%
X135542000Y-125440000D02*
X142842000Y-125440000D01*
X142842000Y-125440000D02*
X142842000Y-120940000D01*
X142842000Y-120940000D02*
X135542000Y-120940000D01*
X135542000Y-120940000D02*
X135542000Y-125440000D01*
%TO.C,SMA*%
X135438000Y-117828000D02*
X142438000Y-117828000D01*
X142438000Y-117828000D02*
X142438000Y-114328000D01*
X142438000Y-114328000D02*
X135438000Y-114328000D01*
X135438000Y-114328000D02*
X135438000Y-117828000D01*
%TO.C,2010R*%
X144394000Y-96718000D02*
X144394000Y-99878000D01*
X144394000Y-99878000D02*
X150754000Y-99878000D01*
X150754000Y-99878000D02*
X150754000Y-96718000D01*
X150754000Y-96718000D02*
X144394000Y-96718000D01*
%TO.C,1210R*%
X136150000Y-90622000D02*
X136150000Y-93782000D01*
X136150000Y-93782000D02*
X140710000Y-93782000D01*
X140710000Y-93782000D02*
X140710000Y-90622000D01*
X140710000Y-90622000D02*
X136150000Y-90622000D01*
%TO.C,LQFP32*%
X83820000Y-94858000D02*
X81670000Y-94858000D01*
X81670000Y-94858000D02*
X81670000Y-93428000D01*
X81670000Y-93428000D02*
X81070000Y-93428000D01*
X81070000Y-93428000D02*
X81070000Y-92828000D01*
X81070000Y-92828000D02*
X79640000Y-92828000D01*
X79640000Y-92828000D02*
X79640000Y-90678000D01*
X83820000Y-94858000D02*
X85970000Y-94858000D01*
X85970000Y-94858000D02*
X85970000Y-93428000D01*
X85970000Y-93428000D02*
X86570000Y-93428000D01*
X86570000Y-93428000D02*
X86570000Y-92828000D01*
X86570000Y-92828000D02*
X88000000Y-92828000D01*
X88000000Y-92828000D02*
X88000000Y-90678000D01*
X83820000Y-86498000D02*
X81670000Y-86498000D01*
X81670000Y-86498000D02*
X81670000Y-87928000D01*
X81670000Y-87928000D02*
X81070000Y-87928000D01*
X81070000Y-87928000D02*
X81070000Y-88528000D01*
X81070000Y-88528000D02*
X79640000Y-88528000D01*
X79640000Y-88528000D02*
X79640000Y-90678000D01*
X83820000Y-86498000D02*
X85970000Y-86498000D01*
X85970000Y-86498000D02*
X85970000Y-87928000D01*
X85970000Y-87928000D02*
X86570000Y-87928000D01*
X86570000Y-87928000D02*
X86570000Y-88528000D01*
X86570000Y-88528000D02*
X88000000Y-88528000D01*
X88000000Y-88528000D02*
X88000000Y-90678000D01*
%TO.C,TQFP32*%
X77504000Y-107916000D02*
X77504000Y-97316000D01*
X88104000Y-107916000D02*
X88104000Y-97316000D01*
X77504000Y-107916000D02*
X88104000Y-107916000D01*
X77504000Y-97316000D02*
X88104000Y-97316000D01*
%TO.C,QFN40*%
X72338000Y-93778000D02*
X72338000Y-87578000D01*
X72338000Y-87578000D02*
X78538000Y-87578000D01*
X78538000Y-87578000D02*
X78538000Y-93778000D01*
X78538000Y-93778000D02*
X72338000Y-93778000D01*
%TO.C,QFN28*%
X65980000Y-93278000D02*
X65980000Y-88078000D01*
X65980000Y-88078000D02*
X71180000Y-88078000D01*
X71180000Y-88078000D02*
X71180000Y-93278000D01*
X71180000Y-93278000D02*
X65980000Y-93278000D01*
%TO.C,QFN64*%
X76220000Y-107716000D02*
X66020000Y-107716000D01*
X76220000Y-97516000D02*
X76220000Y-107716000D01*
X66020000Y-97516000D02*
X76220000Y-97516000D01*
X66020000Y-107716000D02*
X66020000Y-97516000D01*
%TO.C,2512*%
X143774000Y-96378000D02*
X136134000Y-96378000D01*
X143774000Y-100218000D02*
X143774000Y-96378000D01*
X136134000Y-100218000D02*
X143774000Y-100218000D01*
X136134000Y-96378000D02*
X136134000Y-100218000D01*
%TO.C,1206R*%
X146044000Y-91590000D02*
X141484000Y-91590000D01*
X146044000Y-93830000D02*
X146044000Y-91590000D01*
X141484000Y-93830000D02*
X146044000Y-93830000D01*
X141484000Y-91590000D02*
X141484000Y-93830000D01*
%TO.C,0603R*%
X139656000Y-87154000D02*
X136696000Y-87154000D01*
X139656000Y-88614000D02*
X139656000Y-87154000D01*
X136696000Y-88614000D02*
X139656000Y-88614000D01*
X136696000Y-87154000D02*
X136696000Y-88614000D01*
%TO.C,0805R*%
X150270000Y-91760000D02*
X146910000Y-91760000D01*
X150270000Y-93660000D02*
X150270000Y-91760000D01*
X146910000Y-93660000D02*
X150270000Y-93660000D01*
X146910000Y-91760000D02*
X146910000Y-93660000D01*
%TO.C,0201R*%
X149290000Y-87534000D02*
X147890000Y-87534000D01*
X149290000Y-88234000D02*
X149290000Y-87534000D01*
X147890000Y-88234000D02*
X149290000Y-88234000D01*
X147890000Y-87534000D02*
X147890000Y-88234000D01*
%TO.C,0402R*%
X144694000Y-87414000D02*
X142834000Y-87414000D01*
X144694000Y-88354000D02*
X144694000Y-87414000D01*
X142834000Y-88354000D02*
X144694000Y-88354000D01*
X142834000Y-87414000D02*
X142834000Y-88354000D01*
%TD*%
M02*
