%TF.GenerationSoftware,KiCad,Pcbnew,5.1.8-db9833491~88~ubuntu20.04.1*%
%TF.CreationDate,2020-12-22T00:38:32+08:00*%
%TF.ProjectId,Ingress_BioCard,496e6772-6573-4735-9f42-696f43617264,1.0*%
%TF.SameCoordinates,Original*%
%TF.FileFunction,Other,Fab,Bot*%
%FSLAX46Y46*%
G04 Gerber Fmt 4.6, Leading zero omitted, Abs format (unit mm)*
G04 Created by KiCad (PCBNEW 5.1.8-db9833491~88~ubuntu20.04.1) date 2020-12-22 00:38:32*
%MOMM*%
%LPD*%
G01*
G04 APERTURE LIST*
%ADD10C,0.100000*%
%ADD11C,0.150000*%
%ADD12C,0.120000*%
%ADD13C,0.075000*%
%ADD14C,0.060000*%
%ADD15C,0.080000*%
%ADD16C,0.040000*%
G04 APERTURE END LIST*
D10*
%TO.C,4020R*%
X138410000Y-103114000D02*
X138410000Y-108214000D01*
X138410000Y-108214000D02*
X148610000Y-108214000D01*
X148610000Y-108214000D02*
X148610000Y-103114000D01*
X148610000Y-103114000D02*
X138410000Y-103114000D01*
%TO.C,BGA64*%
X111070000Y-115896000D02*
X120070000Y-115896000D01*
X120070000Y-115896000D02*
X120070000Y-124896000D01*
X120070000Y-124896000D02*
X111570000Y-124896000D01*
X111570000Y-124896000D02*
X111070000Y-124396000D01*
X111070000Y-124396000D02*
X111070000Y-115896000D01*
D11*
%TO.C,BGA36*%
X123408000Y-108159000D02*
X122508000Y-107259000D01*
X122508000Y-107259000D02*
X122508000Y-104693000D01*
X122508000Y-104693000D02*
X125904000Y-104693000D01*
X125904000Y-104693000D02*
X125904000Y-108159000D01*
X125904000Y-108159000D02*
X123408000Y-108159000D01*
D10*
%TO.C,BGA25*%
X118690000Y-111578000D02*
X118690000Y-105338000D01*
X118690000Y-105338000D02*
X112450000Y-105338000D01*
X112450000Y-105338000D02*
X112470000Y-111078000D01*
X112470000Y-111078000D02*
X112950000Y-111578000D01*
X112950000Y-111578000D02*
X118690000Y-111578000D01*
%TO.C,BGA9*%
X131610000Y-105626000D02*
X130010000Y-105626000D01*
X130010000Y-105626000D02*
X130010000Y-107226000D01*
X130010000Y-107226000D02*
X131060000Y-107226000D01*
X131060000Y-107226000D02*
X131610000Y-106676000D01*
X131610000Y-106676000D02*
X131610000Y-105626000D01*
%TO.C,SMA Amphenol*%
X101981000Y-98933000D02*
X95631000Y-98933000D01*
X101981000Y-98933000D02*
X101981000Y-105283000D01*
X101981000Y-105283000D02*
X95631000Y-105283000D01*
X95631000Y-98933000D02*
X95631000Y-105283000D01*
X101981000Y-102108000D02*
G75*
G03*
X101981000Y-102108000I-3175000J0D01*
G01*
D11*
%TO.C,2.4GHz Left*%
X107042000Y-87110000D02*
X107042000Y-93060000D01*
X91542000Y-93060000D02*
X91542000Y-87110000D01*
X107042000Y-93060000D02*
X91542000Y-93060000D01*
X91542000Y-87110000D02*
X107042000Y-87110000D01*
D10*
%TO.C,SOT89*%
X123113000Y-99024000D02*
X124613000Y-99024000D01*
X122113000Y-94524000D02*
X122113000Y-98024000D01*
X124613000Y-94524000D02*
X122113000Y-94524000D01*
X124613000Y-99024000D02*
X124613000Y-94524000D01*
X122113000Y-98024000D02*
X123113000Y-99024000D01*
%TO.C,SOT223*%
X117293000Y-99489000D02*
X117293000Y-92789000D01*
X113593000Y-92789000D02*
X117293000Y-92789000D01*
X114643000Y-99489000D02*
X117293000Y-99489000D01*
X113593000Y-98439000D02*
X113593000Y-92789000D01*
X113593000Y-98439000D02*
X114643000Y-99489000D01*
%TO.C,SOT238*%
X116343000Y-90704000D02*
X116343000Y-87604000D01*
X116343000Y-87604000D02*
X114543000Y-87604000D01*
X114543000Y-90054000D02*
X114543000Y-87604000D01*
X116343000Y-90704000D02*
X115193000Y-90704000D01*
X114543000Y-90054000D02*
X115193000Y-90704000D01*
%TO.C,SOT236*%
X124598000Y-90704000D02*
X124598000Y-87604000D01*
X124598000Y-87604000D02*
X122798000Y-87604000D01*
X122798000Y-90054000D02*
X122798000Y-87604000D01*
X124598000Y-90704000D02*
X123448000Y-90704000D01*
X122798000Y-90054000D02*
X123448000Y-90704000D01*
%TO.C,SOT235*%
X129678000Y-98324000D02*
X129678000Y-95224000D01*
X129678000Y-95224000D02*
X127878000Y-95224000D01*
X127878000Y-97674000D02*
X127878000Y-95224000D01*
X129678000Y-98324000D02*
X128528000Y-98324000D01*
X127878000Y-97674000D02*
X128528000Y-98324000D01*
%TO.C,SOT23*%
X128713000Y-87634000D02*
X130113000Y-87634000D01*
X130113000Y-90674000D02*
X130113000Y-87634000D01*
X128713000Y-90104000D02*
X129263000Y-90674000D01*
X129263000Y-90674000D02*
X130113000Y-90674000D01*
X128713000Y-90104000D02*
X128713000Y-87654000D01*
%TO.C,TSSOP24*%
X88732000Y-124436000D02*
X89732000Y-125436000D01*
X88732000Y-120436000D02*
X88732000Y-124436000D01*
X93132000Y-120436000D02*
X88732000Y-120436000D01*
X93132000Y-125436000D02*
X93132000Y-120436000D01*
X89732000Y-125436000D02*
X93132000Y-125436000D01*
%TO.C,TSSOP20*%
X100162000Y-124436000D02*
X101162000Y-125436000D01*
X100162000Y-120436000D02*
X100162000Y-124436000D01*
X104562000Y-120436000D02*
X100162000Y-120436000D01*
X104562000Y-125436000D02*
X104562000Y-120436000D01*
X101162000Y-125436000D02*
X104562000Y-125436000D01*
%TO.C,TSSOP16*%
X88732000Y-116816000D02*
X89732000Y-117816000D01*
X88732000Y-112816000D02*
X88732000Y-116816000D01*
X93132000Y-112816000D02*
X88732000Y-112816000D01*
X93132000Y-117816000D02*
X93132000Y-112816000D01*
X89732000Y-117816000D02*
X93132000Y-117816000D01*
%TO.C,TSSOP14*%
X100162000Y-116816000D02*
X101162000Y-117816000D01*
X100162000Y-112816000D02*
X100162000Y-116816000D01*
X104562000Y-112816000D02*
X100162000Y-112816000D01*
X104562000Y-117816000D02*
X104562000Y-112816000D01*
X101162000Y-117816000D02*
X104562000Y-117816000D01*
%TO.C,SOD123*%
X147570000Y-124460000D02*
X148070000Y-124460000D01*
X147570000Y-124060000D02*
X146970000Y-124460000D01*
X147570000Y-124860000D02*
X147570000Y-124060000D01*
X146970000Y-124460000D02*
X147570000Y-124860000D01*
X146970000Y-124460000D02*
X146970000Y-123910000D01*
X146970000Y-124460000D02*
X146970000Y-125010000D01*
X146570000Y-124460000D02*
X146970000Y-124460000D01*
X145920000Y-123560000D02*
X145920000Y-125360000D01*
X148720000Y-123560000D02*
X145920000Y-123560000D01*
X148720000Y-125360000D02*
X148720000Y-123560000D01*
X145920000Y-125360000D02*
X148720000Y-125360000D01*
%TO.C,SOD323*%
X147520000Y-120650000D02*
X147770000Y-120650000D01*
X147520000Y-120300000D02*
X147020000Y-120650000D01*
X147520000Y-121000000D02*
X147520000Y-120300000D01*
X147020000Y-120650000D02*
X147520000Y-121000000D01*
X147020000Y-120650000D02*
X146820000Y-120650000D01*
X147020000Y-121000000D02*
X147020000Y-120300000D01*
X146420000Y-119950000D02*
X146420000Y-121350000D01*
X148220000Y-119950000D02*
X146420000Y-119950000D01*
X148220000Y-121350000D02*
X148220000Y-119950000D01*
X146420000Y-121350000D02*
X148220000Y-121350000D01*
%TO.C,SOD523*%
X147420000Y-117602000D02*
X147570000Y-117602000D01*
X147420000Y-117802000D02*
X147120000Y-117602000D01*
X147420000Y-117402000D02*
X147420000Y-117802000D01*
X147120000Y-117602000D02*
X147420000Y-117402000D01*
X147120000Y-117602000D02*
X146970000Y-117602000D01*
X147120000Y-117402000D02*
X147120000Y-117802000D01*
X147970000Y-118052000D02*
X147970000Y-117152000D01*
X146670000Y-118052000D02*
X147970000Y-118052000D01*
X146670000Y-117152000D02*
X146670000Y-118052000D01*
X147970000Y-117152000D02*
X146670000Y-117152000D01*
%TO.C,SOD923*%
X147720000Y-114508000D02*
X146920000Y-114508000D01*
X146920000Y-114508000D02*
X146920000Y-115108000D01*
X146920000Y-115108000D02*
X147720000Y-115108000D01*
X147720000Y-115108000D02*
X147720000Y-114508000D01*
X147170000Y-114608000D02*
X147170000Y-115008000D01*
X147170000Y-114808000D02*
X147070000Y-114808000D01*
X147170000Y-114808000D02*
X147470000Y-114608000D01*
X147470000Y-114608000D02*
X147470000Y-115008000D01*
X147470000Y-115008000D02*
X147170000Y-114808000D01*
X147470000Y-114808000D02*
X147570000Y-114808000D01*
%TO.C,SMC*%
X133344000Y-117042000D02*
X126244000Y-117042000D01*
X126244000Y-117042000D02*
X126244000Y-123242000D01*
X133344000Y-123242000D02*
X133344000Y-117042000D01*
X133344000Y-123242000D02*
X126244000Y-123242000D01*
X129144560Y-120140980D02*
X128242860Y-120140980D01*
X130295180Y-120140980D02*
X131293400Y-120140980D01*
X129144560Y-120941080D02*
X129144560Y-119340880D01*
X130295180Y-119391680D02*
X130295180Y-120941080D01*
X129144560Y-120140980D02*
X130295180Y-119391680D01*
X129144560Y-120140980D02*
X130295180Y-120941080D01*
%TO.C,SMB*%
X141492000Y-121190000D02*
X136892000Y-121190000D01*
X136892000Y-121190000D02*
X136892000Y-125190000D01*
X141492000Y-125190000D02*
X141492000Y-121190000D01*
X141492000Y-125190000D02*
X136892000Y-125190000D01*
X138542560Y-123188980D02*
X137640860Y-123188980D01*
X139693180Y-123188980D02*
X140691400Y-123188980D01*
X138542560Y-123989080D02*
X138542560Y-122388880D01*
X139693180Y-122439680D02*
X139693180Y-123989080D01*
X138542560Y-123188980D02*
X139693180Y-122439680D01*
X138542560Y-123188980D02*
X139693180Y-123989080D01*
%TO.C,SMA*%
X141238000Y-114578000D02*
X136638000Y-114578000D01*
X136638000Y-114578000D02*
X136638000Y-117578000D01*
X141238000Y-117578000D02*
X141238000Y-114578000D01*
X141238000Y-117578000D02*
X136638000Y-117578000D01*
X138288560Y-116076980D02*
X137386860Y-116076980D01*
X139439180Y-116076980D02*
X140437400Y-116076980D01*
X138288560Y-116877080D02*
X138288560Y-115276880D01*
X139439180Y-115327680D02*
X139439180Y-116877080D01*
X138288560Y-116076980D02*
X139439180Y-115327680D01*
X138288560Y-116076980D02*
X139439180Y-116877080D01*
%TO.C,2010R*%
X145074000Y-97048000D02*
X145074000Y-99548000D01*
X145074000Y-99548000D02*
X150074000Y-99548000D01*
X150074000Y-99548000D02*
X150074000Y-97048000D01*
X150074000Y-97048000D02*
X145074000Y-97048000D01*
%TO.C,1210R*%
X136830000Y-90957000D02*
X136830000Y-93447000D01*
X136830000Y-93447000D02*
X140030000Y-93447000D01*
X140030000Y-93447000D02*
X140030000Y-90957000D01*
X140030000Y-90957000D02*
X136830000Y-90957000D01*
%TO.C,LQFP32*%
X82320000Y-93178000D02*
X86320000Y-93178000D01*
X86320000Y-93178000D02*
X86320000Y-88178000D01*
X86320000Y-88178000D02*
X81320000Y-88178000D01*
X81320000Y-88178000D02*
X81320000Y-92178000D01*
X81320000Y-92178000D02*
X82320000Y-93178000D01*
D11*
%TO.C,TQFP32*%
X80304000Y-106116000D02*
X86304000Y-106116000D01*
X86304000Y-106116000D02*
X86304000Y-99116000D01*
X86304000Y-99116000D02*
X79304000Y-99116000D01*
X79304000Y-99116000D02*
X79304000Y-105116000D01*
X79304000Y-105116000D02*
X80304000Y-106116000D01*
D10*
%TO.C,QFN40*%
X73938000Y-93178000D02*
X77938000Y-93178000D01*
X77938000Y-93178000D02*
X77938000Y-88178000D01*
X77938000Y-88178000D02*
X72938000Y-88178000D01*
X72938000Y-88178000D02*
X72938000Y-92178000D01*
X72938000Y-92178000D02*
X73938000Y-93178000D01*
%TO.C,QFN28*%
X67580000Y-92678000D02*
X70580000Y-92678000D01*
X70580000Y-92678000D02*
X70580000Y-88678000D01*
X70580000Y-88678000D02*
X66580000Y-88678000D01*
X66580000Y-88678000D02*
X66580000Y-91678000D01*
X66580000Y-91678000D02*
X67580000Y-92678000D01*
%TO.C,QFN64*%
X66620000Y-106116000D02*
X67620000Y-107116000D01*
X66620000Y-98116000D02*
X66620000Y-106116000D01*
X75620000Y-98116000D02*
X66620000Y-98116000D01*
X75620000Y-107116000D02*
X75620000Y-98116000D01*
X67620000Y-107116000D02*
X75620000Y-107116000D01*
%TO.C,2512*%
X143104000Y-96698000D02*
X136804000Y-96698000D01*
X143104000Y-99898000D02*
X143104000Y-96698000D01*
X136804000Y-99898000D02*
X143104000Y-99898000D01*
X136804000Y-96698000D02*
X136804000Y-99898000D01*
%TO.C,1206R*%
X145364000Y-91910000D02*
X142164000Y-91910000D01*
X145364000Y-93510000D02*
X145364000Y-91910000D01*
X142164000Y-93510000D02*
X145364000Y-93510000D01*
X142164000Y-91910000D02*
X142164000Y-93510000D01*
%TO.C,0603R*%
X138976000Y-87471500D02*
X137376000Y-87471500D01*
X138976000Y-88296500D02*
X138976000Y-87471500D01*
X137376000Y-88296500D02*
X138976000Y-88296500D01*
X137376000Y-87471500D02*
X137376000Y-88296500D01*
%TO.C,0805R*%
X149590000Y-92085000D02*
X147590000Y-92085000D01*
X149590000Y-93335000D02*
X149590000Y-92085000D01*
X147590000Y-93335000D02*
X149590000Y-93335000D01*
X147590000Y-92085000D02*
X147590000Y-93335000D01*
%TO.C,0201R*%
X148890000Y-87734000D02*
X148290000Y-87734000D01*
X148890000Y-88034000D02*
X148890000Y-87734000D01*
X148290000Y-88034000D02*
X148890000Y-88034000D01*
X148290000Y-87734000D02*
X148290000Y-88034000D01*
%TO.C,0402R*%
X144289000Y-87614000D02*
X143239000Y-87614000D01*
X144289000Y-88154000D02*
X144289000Y-87614000D01*
X143239000Y-88154000D02*
X144289000Y-88154000D01*
X143239000Y-87614000D02*
X143239000Y-88154000D01*
%TD*%
%TO.C,4020R*%
D11*
X145248095Y-105449714D02*
X145248095Y-106116380D01*
X145486190Y-105068761D02*
X145724285Y-105783047D01*
X145105238Y-105783047D01*
X144533809Y-105116380D02*
X144438571Y-105116380D01*
X144343333Y-105164000D01*
X144295714Y-105211619D01*
X144248095Y-105306857D01*
X144200476Y-105497333D01*
X144200476Y-105735428D01*
X144248095Y-105925904D01*
X144295714Y-106021142D01*
X144343333Y-106068761D01*
X144438571Y-106116380D01*
X144533809Y-106116380D01*
X144629047Y-106068761D01*
X144676666Y-106021142D01*
X144724285Y-105925904D01*
X144771904Y-105735428D01*
X144771904Y-105497333D01*
X144724285Y-105306857D01*
X144676666Y-105211619D01*
X144629047Y-105164000D01*
X144533809Y-105116380D01*
X143819523Y-105211619D02*
X143771904Y-105164000D01*
X143676666Y-105116380D01*
X143438571Y-105116380D01*
X143343333Y-105164000D01*
X143295714Y-105211619D01*
X143248095Y-105306857D01*
X143248095Y-105402095D01*
X143295714Y-105544952D01*
X143867142Y-106116380D01*
X143248095Y-106116380D01*
X142629047Y-105116380D02*
X142533809Y-105116380D01*
X142438571Y-105164000D01*
X142390952Y-105211619D01*
X142343333Y-105306857D01*
X142295714Y-105497333D01*
X142295714Y-105735428D01*
X142343333Y-105925904D01*
X142390952Y-106021142D01*
X142438571Y-106068761D01*
X142533809Y-106116380D01*
X142629047Y-106116380D01*
X142724285Y-106068761D01*
X142771904Y-106021142D01*
X142819523Y-105925904D01*
X142867142Y-105735428D01*
X142867142Y-105497333D01*
X142819523Y-105306857D01*
X142771904Y-105211619D01*
X142724285Y-105164000D01*
X142629047Y-105116380D01*
X141295714Y-106116380D02*
X141629047Y-105640190D01*
X141867142Y-106116380D02*
X141867142Y-105116380D01*
X141486190Y-105116380D01*
X141390952Y-105164000D01*
X141343333Y-105211619D01*
X141295714Y-105306857D01*
X141295714Y-105449714D01*
X141343333Y-105544952D01*
X141390952Y-105592571D01*
X141486190Y-105640190D01*
X141867142Y-105640190D01*
%TO.C,SOT89*%
X123158238Y-98916857D02*
X123110619Y-98774000D01*
X123110619Y-98535904D01*
X123158238Y-98440666D01*
X123205857Y-98393047D01*
X123301095Y-98345428D01*
X123396333Y-98345428D01*
X123491571Y-98393047D01*
X123539190Y-98440666D01*
X123586809Y-98535904D01*
X123634428Y-98726380D01*
X123682047Y-98821619D01*
X123729666Y-98869238D01*
X123824904Y-98916857D01*
X123920142Y-98916857D01*
X124015380Y-98869238D01*
X124063000Y-98821619D01*
X124110619Y-98726380D01*
X124110619Y-98488285D01*
X124063000Y-98345428D01*
X124110619Y-97726380D02*
X124110619Y-97535904D01*
X124063000Y-97440666D01*
X123967761Y-97345428D01*
X123777285Y-97297809D01*
X123443952Y-97297809D01*
X123253476Y-97345428D01*
X123158238Y-97440666D01*
X123110619Y-97535904D01*
X123110619Y-97726380D01*
X123158238Y-97821619D01*
X123253476Y-97916857D01*
X123443952Y-97964476D01*
X123777285Y-97964476D01*
X123967761Y-97916857D01*
X124063000Y-97821619D01*
X124110619Y-97726380D01*
X124110619Y-97012095D02*
X124110619Y-96440666D01*
X123110619Y-96726380D02*
X124110619Y-96726380D01*
X123682047Y-95964476D02*
X123729666Y-96059714D01*
X123777285Y-96107333D01*
X123872523Y-96154952D01*
X123920142Y-96154952D01*
X124015380Y-96107333D01*
X124063000Y-96059714D01*
X124110619Y-95964476D01*
X124110619Y-95774000D01*
X124063000Y-95678761D01*
X124015380Y-95631142D01*
X123920142Y-95583523D01*
X123872523Y-95583523D01*
X123777285Y-95631142D01*
X123729666Y-95678761D01*
X123682047Y-95774000D01*
X123682047Y-95964476D01*
X123634428Y-96059714D01*
X123586809Y-96107333D01*
X123491571Y-96154952D01*
X123301095Y-96154952D01*
X123205857Y-96107333D01*
X123158238Y-96059714D01*
X123110619Y-95964476D01*
X123110619Y-95774000D01*
X123158238Y-95678761D01*
X123205857Y-95631142D01*
X123301095Y-95583523D01*
X123491571Y-95583523D01*
X123586809Y-95631142D01*
X123634428Y-95678761D01*
X123682047Y-95774000D01*
X123110619Y-95107333D02*
X123110619Y-94916857D01*
X123158238Y-94821619D01*
X123205857Y-94774000D01*
X123348714Y-94678761D01*
X123539190Y-94631142D01*
X123920142Y-94631142D01*
X124015380Y-94678761D01*
X124063000Y-94726380D01*
X124110619Y-94821619D01*
X124110619Y-95012095D01*
X124063000Y-95107333D01*
X124015380Y-95154952D01*
X123920142Y-95202571D01*
X123682047Y-95202571D01*
X123586809Y-95154952D01*
X123539190Y-95107333D01*
X123491571Y-95012095D01*
X123491571Y-94821619D01*
X123539190Y-94726380D01*
X123586809Y-94678761D01*
X123682047Y-94631142D01*
%TO.C,SOT223*%
D12*
X115119190Y-98234238D02*
X115081095Y-98119952D01*
X115081095Y-97929476D01*
X115119190Y-97853285D01*
X115157285Y-97815190D01*
X115233476Y-97777095D01*
X115309666Y-97777095D01*
X115385857Y-97815190D01*
X115423952Y-97853285D01*
X115462047Y-97929476D01*
X115500142Y-98081857D01*
X115538238Y-98158047D01*
X115576333Y-98196142D01*
X115652523Y-98234238D01*
X115728714Y-98234238D01*
X115804904Y-98196142D01*
X115843000Y-98158047D01*
X115881095Y-98081857D01*
X115881095Y-97891380D01*
X115843000Y-97777095D01*
X115881095Y-97281857D02*
X115881095Y-97129476D01*
X115843000Y-97053285D01*
X115766809Y-96977095D01*
X115614428Y-96939000D01*
X115347761Y-96939000D01*
X115195380Y-96977095D01*
X115119190Y-97053285D01*
X115081095Y-97129476D01*
X115081095Y-97281857D01*
X115119190Y-97358047D01*
X115195380Y-97434238D01*
X115347761Y-97472333D01*
X115614428Y-97472333D01*
X115766809Y-97434238D01*
X115843000Y-97358047D01*
X115881095Y-97281857D01*
X115881095Y-96710428D02*
X115881095Y-96253285D01*
X115081095Y-96481857D02*
X115881095Y-96481857D01*
X115804904Y-96024714D02*
X115843000Y-95986619D01*
X115881095Y-95910428D01*
X115881095Y-95719952D01*
X115843000Y-95643761D01*
X115804904Y-95605666D01*
X115728714Y-95567571D01*
X115652523Y-95567571D01*
X115538238Y-95605666D01*
X115081095Y-96062809D01*
X115081095Y-95567571D01*
X115804904Y-95262809D02*
X115843000Y-95224714D01*
X115881095Y-95148523D01*
X115881095Y-94958047D01*
X115843000Y-94881857D01*
X115804904Y-94843761D01*
X115728714Y-94805666D01*
X115652523Y-94805666D01*
X115538238Y-94843761D01*
X115081095Y-95300904D01*
X115081095Y-94805666D01*
X115881095Y-94539000D02*
X115881095Y-94043761D01*
X115576333Y-94310428D01*
X115576333Y-94196142D01*
X115538238Y-94119952D01*
X115500142Y-94081857D01*
X115423952Y-94043761D01*
X115233476Y-94043761D01*
X115157285Y-94081857D01*
X115119190Y-94119952D01*
X115081095Y-94196142D01*
X115081095Y-94424714D01*
X115119190Y-94500904D01*
X115157285Y-94539000D01*
%TO.C,SOT238*%
D13*
X115240619Y-90463523D02*
X115216809Y-90392095D01*
X115216809Y-90273047D01*
X115240619Y-90225428D01*
X115264428Y-90201619D01*
X115312047Y-90177809D01*
X115359666Y-90177809D01*
X115407285Y-90201619D01*
X115431095Y-90225428D01*
X115454904Y-90273047D01*
X115478714Y-90368285D01*
X115502523Y-90415904D01*
X115526333Y-90439714D01*
X115573952Y-90463523D01*
X115621571Y-90463523D01*
X115669190Y-90439714D01*
X115693000Y-90415904D01*
X115716809Y-90368285D01*
X115716809Y-90249238D01*
X115693000Y-90177809D01*
X115716809Y-89868285D02*
X115716809Y-89773047D01*
X115693000Y-89725428D01*
X115645380Y-89677809D01*
X115550142Y-89654000D01*
X115383476Y-89654000D01*
X115288238Y-89677809D01*
X115240619Y-89725428D01*
X115216809Y-89773047D01*
X115216809Y-89868285D01*
X115240619Y-89915904D01*
X115288238Y-89963523D01*
X115383476Y-89987333D01*
X115550142Y-89987333D01*
X115645380Y-89963523D01*
X115693000Y-89915904D01*
X115716809Y-89868285D01*
X115716809Y-89511142D02*
X115716809Y-89225428D01*
X115216809Y-89368285D02*
X115716809Y-89368285D01*
X115669190Y-89082571D02*
X115693000Y-89058761D01*
X115716809Y-89011142D01*
X115716809Y-88892095D01*
X115693000Y-88844476D01*
X115669190Y-88820666D01*
X115621571Y-88796857D01*
X115573952Y-88796857D01*
X115502523Y-88820666D01*
X115216809Y-89106380D01*
X115216809Y-88796857D01*
X115716809Y-88630190D02*
X115716809Y-88320666D01*
X115526333Y-88487333D01*
X115526333Y-88415904D01*
X115502523Y-88368285D01*
X115478714Y-88344476D01*
X115431095Y-88320666D01*
X115312047Y-88320666D01*
X115264428Y-88344476D01*
X115240619Y-88368285D01*
X115216809Y-88415904D01*
X115216809Y-88558761D01*
X115240619Y-88606380D01*
X115264428Y-88630190D01*
X115502523Y-88034952D02*
X115526333Y-88082571D01*
X115550142Y-88106380D01*
X115597761Y-88130190D01*
X115621571Y-88130190D01*
X115669190Y-88106380D01*
X115693000Y-88082571D01*
X115716809Y-88034952D01*
X115716809Y-87939714D01*
X115693000Y-87892095D01*
X115669190Y-87868285D01*
X115621571Y-87844476D01*
X115597761Y-87844476D01*
X115550142Y-87868285D01*
X115526333Y-87892095D01*
X115502523Y-87939714D01*
X115502523Y-88034952D01*
X115478714Y-88082571D01*
X115454904Y-88106380D01*
X115407285Y-88130190D01*
X115312047Y-88130190D01*
X115264428Y-88106380D01*
X115240619Y-88082571D01*
X115216809Y-88034952D01*
X115216809Y-87939714D01*
X115240619Y-87892095D01*
X115264428Y-87868285D01*
X115312047Y-87844476D01*
X115407285Y-87844476D01*
X115454904Y-87868285D01*
X115478714Y-87892095D01*
X115502523Y-87939714D01*
%TO.C,SOT236*%
X123495619Y-90463523D02*
X123471809Y-90392095D01*
X123471809Y-90273047D01*
X123495619Y-90225428D01*
X123519428Y-90201619D01*
X123567047Y-90177809D01*
X123614666Y-90177809D01*
X123662285Y-90201619D01*
X123686095Y-90225428D01*
X123709904Y-90273047D01*
X123733714Y-90368285D01*
X123757523Y-90415904D01*
X123781333Y-90439714D01*
X123828952Y-90463523D01*
X123876571Y-90463523D01*
X123924190Y-90439714D01*
X123948000Y-90415904D01*
X123971809Y-90368285D01*
X123971809Y-90249238D01*
X123948000Y-90177809D01*
X123971809Y-89868285D02*
X123971809Y-89773047D01*
X123948000Y-89725428D01*
X123900380Y-89677809D01*
X123805142Y-89654000D01*
X123638476Y-89654000D01*
X123543238Y-89677809D01*
X123495619Y-89725428D01*
X123471809Y-89773047D01*
X123471809Y-89868285D01*
X123495619Y-89915904D01*
X123543238Y-89963523D01*
X123638476Y-89987333D01*
X123805142Y-89987333D01*
X123900380Y-89963523D01*
X123948000Y-89915904D01*
X123971809Y-89868285D01*
X123971809Y-89511142D02*
X123971809Y-89225428D01*
X123471809Y-89368285D02*
X123971809Y-89368285D01*
X123924190Y-89082571D02*
X123948000Y-89058761D01*
X123971809Y-89011142D01*
X123971809Y-88892095D01*
X123948000Y-88844476D01*
X123924190Y-88820666D01*
X123876571Y-88796857D01*
X123828952Y-88796857D01*
X123757523Y-88820666D01*
X123471809Y-89106380D01*
X123471809Y-88796857D01*
X123971809Y-88630190D02*
X123971809Y-88320666D01*
X123781333Y-88487333D01*
X123781333Y-88415904D01*
X123757523Y-88368285D01*
X123733714Y-88344476D01*
X123686095Y-88320666D01*
X123567047Y-88320666D01*
X123519428Y-88344476D01*
X123495619Y-88368285D01*
X123471809Y-88415904D01*
X123471809Y-88558761D01*
X123495619Y-88606380D01*
X123519428Y-88630190D01*
X123971809Y-87892095D02*
X123971809Y-87987333D01*
X123948000Y-88034952D01*
X123924190Y-88058761D01*
X123852761Y-88106380D01*
X123757523Y-88130190D01*
X123567047Y-88130190D01*
X123519428Y-88106380D01*
X123495619Y-88082571D01*
X123471809Y-88034952D01*
X123471809Y-87939714D01*
X123495619Y-87892095D01*
X123519428Y-87868285D01*
X123567047Y-87844476D01*
X123686095Y-87844476D01*
X123733714Y-87868285D01*
X123757523Y-87892095D01*
X123781333Y-87939714D01*
X123781333Y-88034952D01*
X123757523Y-88082571D01*
X123733714Y-88106380D01*
X123686095Y-88130190D01*
%TO.C,SOT235*%
X128575619Y-98083523D02*
X128551809Y-98012095D01*
X128551809Y-97893047D01*
X128575619Y-97845428D01*
X128599428Y-97821619D01*
X128647047Y-97797809D01*
X128694666Y-97797809D01*
X128742285Y-97821619D01*
X128766095Y-97845428D01*
X128789904Y-97893047D01*
X128813714Y-97988285D01*
X128837523Y-98035904D01*
X128861333Y-98059714D01*
X128908952Y-98083523D01*
X128956571Y-98083523D01*
X129004190Y-98059714D01*
X129028000Y-98035904D01*
X129051809Y-97988285D01*
X129051809Y-97869238D01*
X129028000Y-97797809D01*
X129051809Y-97488285D02*
X129051809Y-97393047D01*
X129028000Y-97345428D01*
X128980380Y-97297809D01*
X128885142Y-97274000D01*
X128718476Y-97274000D01*
X128623238Y-97297809D01*
X128575619Y-97345428D01*
X128551809Y-97393047D01*
X128551809Y-97488285D01*
X128575619Y-97535904D01*
X128623238Y-97583523D01*
X128718476Y-97607333D01*
X128885142Y-97607333D01*
X128980380Y-97583523D01*
X129028000Y-97535904D01*
X129051809Y-97488285D01*
X129051809Y-97131142D02*
X129051809Y-96845428D01*
X128551809Y-96988285D02*
X129051809Y-96988285D01*
X129004190Y-96702571D02*
X129028000Y-96678761D01*
X129051809Y-96631142D01*
X129051809Y-96512095D01*
X129028000Y-96464476D01*
X129004190Y-96440666D01*
X128956571Y-96416857D01*
X128908952Y-96416857D01*
X128837523Y-96440666D01*
X128551809Y-96726380D01*
X128551809Y-96416857D01*
X129051809Y-96250190D02*
X129051809Y-95940666D01*
X128861333Y-96107333D01*
X128861333Y-96035904D01*
X128837523Y-95988285D01*
X128813714Y-95964476D01*
X128766095Y-95940666D01*
X128647047Y-95940666D01*
X128599428Y-95964476D01*
X128575619Y-95988285D01*
X128551809Y-96035904D01*
X128551809Y-96178761D01*
X128575619Y-96226380D01*
X128599428Y-96250190D01*
X129051809Y-95488285D02*
X129051809Y-95726380D01*
X128813714Y-95750190D01*
X128837523Y-95726380D01*
X128861333Y-95678761D01*
X128861333Y-95559714D01*
X128837523Y-95512095D01*
X128813714Y-95488285D01*
X128766095Y-95464476D01*
X128647047Y-95464476D01*
X128599428Y-95488285D01*
X128575619Y-95512095D01*
X128551809Y-95559714D01*
X128551809Y-95678761D01*
X128575619Y-95726380D01*
X128599428Y-95750190D01*
%TO.C,SOT23*%
X129210619Y-90225428D02*
X129186809Y-90154000D01*
X129186809Y-90034952D01*
X129210619Y-89987333D01*
X129234428Y-89963523D01*
X129282047Y-89939714D01*
X129329666Y-89939714D01*
X129377285Y-89963523D01*
X129401095Y-89987333D01*
X129424904Y-90034952D01*
X129448714Y-90130190D01*
X129472523Y-90177809D01*
X129496333Y-90201619D01*
X129543952Y-90225428D01*
X129591571Y-90225428D01*
X129639190Y-90201619D01*
X129663000Y-90177809D01*
X129686809Y-90130190D01*
X129686809Y-90011142D01*
X129663000Y-89939714D01*
X129686809Y-89630190D02*
X129686809Y-89534952D01*
X129663000Y-89487333D01*
X129615380Y-89439714D01*
X129520142Y-89415904D01*
X129353476Y-89415904D01*
X129258238Y-89439714D01*
X129210619Y-89487333D01*
X129186809Y-89534952D01*
X129186809Y-89630190D01*
X129210619Y-89677809D01*
X129258238Y-89725428D01*
X129353476Y-89749238D01*
X129520142Y-89749238D01*
X129615380Y-89725428D01*
X129663000Y-89677809D01*
X129686809Y-89630190D01*
X129686809Y-89273047D02*
X129686809Y-88987333D01*
X129186809Y-89130190D02*
X129686809Y-89130190D01*
X129639190Y-88844476D02*
X129663000Y-88820666D01*
X129686809Y-88773047D01*
X129686809Y-88654000D01*
X129663000Y-88606380D01*
X129639190Y-88582571D01*
X129591571Y-88558761D01*
X129543952Y-88558761D01*
X129472523Y-88582571D01*
X129186809Y-88868285D01*
X129186809Y-88558761D01*
X129686809Y-88392095D02*
X129686809Y-88082571D01*
X129496333Y-88249238D01*
X129496333Y-88177809D01*
X129472523Y-88130190D01*
X129448714Y-88106380D01*
X129401095Y-88082571D01*
X129282047Y-88082571D01*
X129234428Y-88106380D01*
X129210619Y-88130190D01*
X129186809Y-88177809D01*
X129186809Y-88320666D01*
X129210619Y-88368285D01*
X129234428Y-88392095D01*
%TO.C,TSSOP24*%
D11*
X94146285Y-122388380D02*
X93574857Y-122388380D01*
X93860571Y-123388380D02*
X93860571Y-122388380D01*
X93289142Y-123340761D02*
X93146285Y-123388380D01*
X92908190Y-123388380D01*
X92812952Y-123340761D01*
X92765333Y-123293142D01*
X92717714Y-123197904D01*
X92717714Y-123102666D01*
X92765333Y-123007428D01*
X92812952Y-122959809D01*
X92908190Y-122912190D01*
X93098666Y-122864571D01*
X93193904Y-122816952D01*
X93241523Y-122769333D01*
X93289142Y-122674095D01*
X93289142Y-122578857D01*
X93241523Y-122483619D01*
X93193904Y-122436000D01*
X93098666Y-122388380D01*
X92860571Y-122388380D01*
X92717714Y-122436000D01*
X92336761Y-123340761D02*
X92193904Y-123388380D01*
X91955809Y-123388380D01*
X91860571Y-123340761D01*
X91812952Y-123293142D01*
X91765333Y-123197904D01*
X91765333Y-123102666D01*
X91812952Y-123007428D01*
X91860571Y-122959809D01*
X91955809Y-122912190D01*
X92146285Y-122864571D01*
X92241523Y-122816952D01*
X92289142Y-122769333D01*
X92336761Y-122674095D01*
X92336761Y-122578857D01*
X92289142Y-122483619D01*
X92241523Y-122436000D01*
X92146285Y-122388380D01*
X91908190Y-122388380D01*
X91765333Y-122436000D01*
X91146285Y-122388380D02*
X90955809Y-122388380D01*
X90860571Y-122436000D01*
X90765333Y-122531238D01*
X90717714Y-122721714D01*
X90717714Y-123055047D01*
X90765333Y-123245523D01*
X90860571Y-123340761D01*
X90955809Y-123388380D01*
X91146285Y-123388380D01*
X91241523Y-123340761D01*
X91336761Y-123245523D01*
X91384380Y-123055047D01*
X91384380Y-122721714D01*
X91336761Y-122531238D01*
X91241523Y-122436000D01*
X91146285Y-122388380D01*
X90289142Y-123388380D02*
X90289142Y-122388380D01*
X89908190Y-122388380D01*
X89812952Y-122436000D01*
X89765333Y-122483619D01*
X89717714Y-122578857D01*
X89717714Y-122721714D01*
X89765333Y-122816952D01*
X89812952Y-122864571D01*
X89908190Y-122912190D01*
X90289142Y-122912190D01*
X89336761Y-122483619D02*
X89289142Y-122436000D01*
X89193904Y-122388380D01*
X88955809Y-122388380D01*
X88860571Y-122436000D01*
X88812952Y-122483619D01*
X88765333Y-122578857D01*
X88765333Y-122674095D01*
X88812952Y-122816952D01*
X89384380Y-123388380D01*
X88765333Y-123388380D01*
X87908190Y-122721714D02*
X87908190Y-123388380D01*
X88146285Y-122340761D02*
X88384380Y-123055047D01*
X87765333Y-123055047D01*
%TO.C,TSSOP20*%
X105576285Y-122388380D02*
X105004857Y-122388380D01*
X105290571Y-123388380D02*
X105290571Y-122388380D01*
X104719142Y-123340761D02*
X104576285Y-123388380D01*
X104338190Y-123388380D01*
X104242952Y-123340761D01*
X104195333Y-123293142D01*
X104147714Y-123197904D01*
X104147714Y-123102666D01*
X104195333Y-123007428D01*
X104242952Y-122959809D01*
X104338190Y-122912190D01*
X104528666Y-122864571D01*
X104623904Y-122816952D01*
X104671523Y-122769333D01*
X104719142Y-122674095D01*
X104719142Y-122578857D01*
X104671523Y-122483619D01*
X104623904Y-122436000D01*
X104528666Y-122388380D01*
X104290571Y-122388380D01*
X104147714Y-122436000D01*
X103766761Y-123340761D02*
X103623904Y-123388380D01*
X103385809Y-123388380D01*
X103290571Y-123340761D01*
X103242952Y-123293142D01*
X103195333Y-123197904D01*
X103195333Y-123102666D01*
X103242952Y-123007428D01*
X103290571Y-122959809D01*
X103385809Y-122912190D01*
X103576285Y-122864571D01*
X103671523Y-122816952D01*
X103719142Y-122769333D01*
X103766761Y-122674095D01*
X103766761Y-122578857D01*
X103719142Y-122483619D01*
X103671523Y-122436000D01*
X103576285Y-122388380D01*
X103338190Y-122388380D01*
X103195333Y-122436000D01*
X102576285Y-122388380D02*
X102385809Y-122388380D01*
X102290571Y-122436000D01*
X102195333Y-122531238D01*
X102147714Y-122721714D01*
X102147714Y-123055047D01*
X102195333Y-123245523D01*
X102290571Y-123340761D01*
X102385809Y-123388380D01*
X102576285Y-123388380D01*
X102671523Y-123340761D01*
X102766761Y-123245523D01*
X102814380Y-123055047D01*
X102814380Y-122721714D01*
X102766761Y-122531238D01*
X102671523Y-122436000D01*
X102576285Y-122388380D01*
X101719142Y-123388380D02*
X101719142Y-122388380D01*
X101338190Y-122388380D01*
X101242952Y-122436000D01*
X101195333Y-122483619D01*
X101147714Y-122578857D01*
X101147714Y-122721714D01*
X101195333Y-122816952D01*
X101242952Y-122864571D01*
X101338190Y-122912190D01*
X101719142Y-122912190D01*
X100766761Y-122483619D02*
X100719142Y-122436000D01*
X100623904Y-122388380D01*
X100385809Y-122388380D01*
X100290571Y-122436000D01*
X100242952Y-122483619D01*
X100195333Y-122578857D01*
X100195333Y-122674095D01*
X100242952Y-122816952D01*
X100814380Y-123388380D01*
X100195333Y-123388380D01*
X99576285Y-122388380D02*
X99481047Y-122388380D01*
X99385809Y-122436000D01*
X99338190Y-122483619D01*
X99290571Y-122578857D01*
X99242952Y-122769333D01*
X99242952Y-123007428D01*
X99290571Y-123197904D01*
X99338190Y-123293142D01*
X99385809Y-123340761D01*
X99481047Y-123388380D01*
X99576285Y-123388380D01*
X99671523Y-123340761D01*
X99719142Y-123293142D01*
X99766761Y-123197904D01*
X99814380Y-123007428D01*
X99814380Y-122769333D01*
X99766761Y-122578857D01*
X99719142Y-122483619D01*
X99671523Y-122436000D01*
X99576285Y-122388380D01*
%TO.C,TSSOP16*%
X94146285Y-114768380D02*
X93574857Y-114768380D01*
X93860571Y-115768380D02*
X93860571Y-114768380D01*
X93289142Y-115720761D02*
X93146285Y-115768380D01*
X92908190Y-115768380D01*
X92812952Y-115720761D01*
X92765333Y-115673142D01*
X92717714Y-115577904D01*
X92717714Y-115482666D01*
X92765333Y-115387428D01*
X92812952Y-115339809D01*
X92908190Y-115292190D01*
X93098666Y-115244571D01*
X93193904Y-115196952D01*
X93241523Y-115149333D01*
X93289142Y-115054095D01*
X93289142Y-114958857D01*
X93241523Y-114863619D01*
X93193904Y-114816000D01*
X93098666Y-114768380D01*
X92860571Y-114768380D01*
X92717714Y-114816000D01*
X92336761Y-115720761D02*
X92193904Y-115768380D01*
X91955809Y-115768380D01*
X91860571Y-115720761D01*
X91812952Y-115673142D01*
X91765333Y-115577904D01*
X91765333Y-115482666D01*
X91812952Y-115387428D01*
X91860571Y-115339809D01*
X91955809Y-115292190D01*
X92146285Y-115244571D01*
X92241523Y-115196952D01*
X92289142Y-115149333D01*
X92336761Y-115054095D01*
X92336761Y-114958857D01*
X92289142Y-114863619D01*
X92241523Y-114816000D01*
X92146285Y-114768380D01*
X91908190Y-114768380D01*
X91765333Y-114816000D01*
X91146285Y-114768380D02*
X90955809Y-114768380D01*
X90860571Y-114816000D01*
X90765333Y-114911238D01*
X90717714Y-115101714D01*
X90717714Y-115435047D01*
X90765333Y-115625523D01*
X90860571Y-115720761D01*
X90955809Y-115768380D01*
X91146285Y-115768380D01*
X91241523Y-115720761D01*
X91336761Y-115625523D01*
X91384380Y-115435047D01*
X91384380Y-115101714D01*
X91336761Y-114911238D01*
X91241523Y-114816000D01*
X91146285Y-114768380D01*
X90289142Y-115768380D02*
X90289142Y-114768380D01*
X89908190Y-114768380D01*
X89812952Y-114816000D01*
X89765333Y-114863619D01*
X89717714Y-114958857D01*
X89717714Y-115101714D01*
X89765333Y-115196952D01*
X89812952Y-115244571D01*
X89908190Y-115292190D01*
X90289142Y-115292190D01*
X88765333Y-115768380D02*
X89336761Y-115768380D01*
X89051047Y-115768380D02*
X89051047Y-114768380D01*
X89146285Y-114911238D01*
X89241523Y-115006476D01*
X89336761Y-115054095D01*
X87908190Y-114768380D02*
X88098666Y-114768380D01*
X88193904Y-114816000D01*
X88241523Y-114863619D01*
X88336761Y-115006476D01*
X88384380Y-115196952D01*
X88384380Y-115577904D01*
X88336761Y-115673142D01*
X88289142Y-115720761D01*
X88193904Y-115768380D01*
X88003428Y-115768380D01*
X87908190Y-115720761D01*
X87860571Y-115673142D01*
X87812952Y-115577904D01*
X87812952Y-115339809D01*
X87860571Y-115244571D01*
X87908190Y-115196952D01*
X88003428Y-115149333D01*
X88193904Y-115149333D01*
X88289142Y-115196952D01*
X88336761Y-115244571D01*
X88384380Y-115339809D01*
%TO.C,TSSOP14*%
X105576285Y-114768380D02*
X105004857Y-114768380D01*
X105290571Y-115768380D02*
X105290571Y-114768380D01*
X104719142Y-115720761D02*
X104576285Y-115768380D01*
X104338190Y-115768380D01*
X104242952Y-115720761D01*
X104195333Y-115673142D01*
X104147714Y-115577904D01*
X104147714Y-115482666D01*
X104195333Y-115387428D01*
X104242952Y-115339809D01*
X104338190Y-115292190D01*
X104528666Y-115244571D01*
X104623904Y-115196952D01*
X104671523Y-115149333D01*
X104719142Y-115054095D01*
X104719142Y-114958857D01*
X104671523Y-114863619D01*
X104623904Y-114816000D01*
X104528666Y-114768380D01*
X104290571Y-114768380D01*
X104147714Y-114816000D01*
X103766761Y-115720761D02*
X103623904Y-115768380D01*
X103385809Y-115768380D01*
X103290571Y-115720761D01*
X103242952Y-115673142D01*
X103195333Y-115577904D01*
X103195333Y-115482666D01*
X103242952Y-115387428D01*
X103290571Y-115339809D01*
X103385809Y-115292190D01*
X103576285Y-115244571D01*
X103671523Y-115196952D01*
X103719142Y-115149333D01*
X103766761Y-115054095D01*
X103766761Y-114958857D01*
X103719142Y-114863619D01*
X103671523Y-114816000D01*
X103576285Y-114768380D01*
X103338190Y-114768380D01*
X103195333Y-114816000D01*
X102576285Y-114768380D02*
X102385809Y-114768380D01*
X102290571Y-114816000D01*
X102195333Y-114911238D01*
X102147714Y-115101714D01*
X102147714Y-115435047D01*
X102195333Y-115625523D01*
X102290571Y-115720761D01*
X102385809Y-115768380D01*
X102576285Y-115768380D01*
X102671523Y-115720761D01*
X102766761Y-115625523D01*
X102814380Y-115435047D01*
X102814380Y-115101714D01*
X102766761Y-114911238D01*
X102671523Y-114816000D01*
X102576285Y-114768380D01*
X101719142Y-115768380D02*
X101719142Y-114768380D01*
X101338190Y-114768380D01*
X101242952Y-114816000D01*
X101195333Y-114863619D01*
X101147714Y-114958857D01*
X101147714Y-115101714D01*
X101195333Y-115196952D01*
X101242952Y-115244571D01*
X101338190Y-115292190D01*
X101719142Y-115292190D01*
X100195333Y-115768380D02*
X100766761Y-115768380D01*
X100481047Y-115768380D02*
X100481047Y-114768380D01*
X100576285Y-114911238D01*
X100671523Y-115006476D01*
X100766761Y-115054095D01*
X99338190Y-115101714D02*
X99338190Y-115768380D01*
X99576285Y-114720761D02*
X99814380Y-115435047D01*
X99195333Y-115435047D01*
%TO.C,SOD123*%
X150058095Y-126864761D02*
X149915238Y-126912380D01*
X149677142Y-126912380D01*
X149581904Y-126864761D01*
X149534285Y-126817142D01*
X149486666Y-126721904D01*
X149486666Y-126626666D01*
X149534285Y-126531428D01*
X149581904Y-126483809D01*
X149677142Y-126436190D01*
X149867619Y-126388571D01*
X149962857Y-126340952D01*
X150010476Y-126293333D01*
X150058095Y-126198095D01*
X150058095Y-126102857D01*
X150010476Y-126007619D01*
X149962857Y-125960000D01*
X149867619Y-125912380D01*
X149629523Y-125912380D01*
X149486666Y-125960000D01*
X148867619Y-125912380D02*
X148677142Y-125912380D01*
X148581904Y-125960000D01*
X148486666Y-126055238D01*
X148439047Y-126245714D01*
X148439047Y-126579047D01*
X148486666Y-126769523D01*
X148581904Y-126864761D01*
X148677142Y-126912380D01*
X148867619Y-126912380D01*
X148962857Y-126864761D01*
X149058095Y-126769523D01*
X149105714Y-126579047D01*
X149105714Y-126245714D01*
X149058095Y-126055238D01*
X148962857Y-125960000D01*
X148867619Y-125912380D01*
X148010476Y-126912380D02*
X148010476Y-125912380D01*
X147772380Y-125912380D01*
X147629523Y-125960000D01*
X147534285Y-126055238D01*
X147486666Y-126150476D01*
X147439047Y-126340952D01*
X147439047Y-126483809D01*
X147486666Y-126674285D01*
X147534285Y-126769523D01*
X147629523Y-126864761D01*
X147772380Y-126912380D01*
X148010476Y-126912380D01*
X146486666Y-126912380D02*
X147058095Y-126912380D01*
X146772380Y-126912380D02*
X146772380Y-125912380D01*
X146867619Y-126055238D01*
X146962857Y-126150476D01*
X147058095Y-126198095D01*
X146105714Y-126007619D02*
X146058095Y-125960000D01*
X145962857Y-125912380D01*
X145724761Y-125912380D01*
X145629523Y-125960000D01*
X145581904Y-126007619D01*
X145534285Y-126102857D01*
X145534285Y-126198095D01*
X145581904Y-126340952D01*
X146153333Y-126912380D01*
X145534285Y-126912380D01*
X145200952Y-125912380D02*
X144581904Y-125912380D01*
X144915238Y-126293333D01*
X144772380Y-126293333D01*
X144677142Y-126340952D01*
X144629523Y-126388571D01*
X144581904Y-126483809D01*
X144581904Y-126721904D01*
X144629523Y-126817142D01*
X144677142Y-126864761D01*
X144772380Y-126912380D01*
X145058095Y-126912380D01*
X145153333Y-126864761D01*
X145200952Y-126817142D01*
%TO.C,SOD323*%
X150058095Y-122904761D02*
X149915238Y-122952380D01*
X149677142Y-122952380D01*
X149581904Y-122904761D01*
X149534285Y-122857142D01*
X149486666Y-122761904D01*
X149486666Y-122666666D01*
X149534285Y-122571428D01*
X149581904Y-122523809D01*
X149677142Y-122476190D01*
X149867619Y-122428571D01*
X149962857Y-122380952D01*
X150010476Y-122333333D01*
X150058095Y-122238095D01*
X150058095Y-122142857D01*
X150010476Y-122047619D01*
X149962857Y-122000000D01*
X149867619Y-121952380D01*
X149629523Y-121952380D01*
X149486666Y-122000000D01*
X148867619Y-121952380D02*
X148677142Y-121952380D01*
X148581904Y-122000000D01*
X148486666Y-122095238D01*
X148439047Y-122285714D01*
X148439047Y-122619047D01*
X148486666Y-122809523D01*
X148581904Y-122904761D01*
X148677142Y-122952380D01*
X148867619Y-122952380D01*
X148962857Y-122904761D01*
X149058095Y-122809523D01*
X149105714Y-122619047D01*
X149105714Y-122285714D01*
X149058095Y-122095238D01*
X148962857Y-122000000D01*
X148867619Y-121952380D01*
X148010476Y-122952380D02*
X148010476Y-121952380D01*
X147772380Y-121952380D01*
X147629523Y-122000000D01*
X147534285Y-122095238D01*
X147486666Y-122190476D01*
X147439047Y-122380952D01*
X147439047Y-122523809D01*
X147486666Y-122714285D01*
X147534285Y-122809523D01*
X147629523Y-122904761D01*
X147772380Y-122952380D01*
X148010476Y-122952380D01*
X147105714Y-121952380D02*
X146486666Y-121952380D01*
X146820000Y-122333333D01*
X146677142Y-122333333D01*
X146581904Y-122380952D01*
X146534285Y-122428571D01*
X146486666Y-122523809D01*
X146486666Y-122761904D01*
X146534285Y-122857142D01*
X146581904Y-122904761D01*
X146677142Y-122952380D01*
X146962857Y-122952380D01*
X147058095Y-122904761D01*
X147105714Y-122857142D01*
X146105714Y-122047619D02*
X146058095Y-122000000D01*
X145962857Y-121952380D01*
X145724761Y-121952380D01*
X145629523Y-122000000D01*
X145581904Y-122047619D01*
X145534285Y-122142857D01*
X145534285Y-122238095D01*
X145581904Y-122380952D01*
X146153333Y-122952380D01*
X145534285Y-122952380D01*
X145200952Y-121952380D02*
X144581904Y-121952380D01*
X144915238Y-122333333D01*
X144772380Y-122333333D01*
X144677142Y-122380952D01*
X144629523Y-122428571D01*
X144581904Y-122523809D01*
X144581904Y-122761904D01*
X144629523Y-122857142D01*
X144677142Y-122904761D01*
X144772380Y-122952380D01*
X145058095Y-122952380D01*
X145153333Y-122904761D01*
X145200952Y-122857142D01*
%TO.C,SOD523*%
X150058095Y-119306761D02*
X149915238Y-119354380D01*
X149677142Y-119354380D01*
X149581904Y-119306761D01*
X149534285Y-119259142D01*
X149486666Y-119163904D01*
X149486666Y-119068666D01*
X149534285Y-118973428D01*
X149581904Y-118925809D01*
X149677142Y-118878190D01*
X149867619Y-118830571D01*
X149962857Y-118782952D01*
X150010476Y-118735333D01*
X150058095Y-118640095D01*
X150058095Y-118544857D01*
X150010476Y-118449619D01*
X149962857Y-118402000D01*
X149867619Y-118354380D01*
X149629523Y-118354380D01*
X149486666Y-118402000D01*
X148867619Y-118354380D02*
X148677142Y-118354380D01*
X148581904Y-118402000D01*
X148486666Y-118497238D01*
X148439047Y-118687714D01*
X148439047Y-119021047D01*
X148486666Y-119211523D01*
X148581904Y-119306761D01*
X148677142Y-119354380D01*
X148867619Y-119354380D01*
X148962857Y-119306761D01*
X149058095Y-119211523D01*
X149105714Y-119021047D01*
X149105714Y-118687714D01*
X149058095Y-118497238D01*
X148962857Y-118402000D01*
X148867619Y-118354380D01*
X148010476Y-119354380D02*
X148010476Y-118354380D01*
X147772380Y-118354380D01*
X147629523Y-118402000D01*
X147534285Y-118497238D01*
X147486666Y-118592476D01*
X147439047Y-118782952D01*
X147439047Y-118925809D01*
X147486666Y-119116285D01*
X147534285Y-119211523D01*
X147629523Y-119306761D01*
X147772380Y-119354380D01*
X148010476Y-119354380D01*
X146534285Y-118354380D02*
X147010476Y-118354380D01*
X147058095Y-118830571D01*
X147010476Y-118782952D01*
X146915238Y-118735333D01*
X146677142Y-118735333D01*
X146581904Y-118782952D01*
X146534285Y-118830571D01*
X146486666Y-118925809D01*
X146486666Y-119163904D01*
X146534285Y-119259142D01*
X146581904Y-119306761D01*
X146677142Y-119354380D01*
X146915238Y-119354380D01*
X147010476Y-119306761D01*
X147058095Y-119259142D01*
X146105714Y-118449619D02*
X146058095Y-118402000D01*
X145962857Y-118354380D01*
X145724761Y-118354380D01*
X145629523Y-118402000D01*
X145581904Y-118449619D01*
X145534285Y-118544857D01*
X145534285Y-118640095D01*
X145581904Y-118782952D01*
X146153333Y-119354380D01*
X145534285Y-119354380D01*
X145200952Y-118354380D02*
X144581904Y-118354380D01*
X144915238Y-118735333D01*
X144772380Y-118735333D01*
X144677142Y-118782952D01*
X144629523Y-118830571D01*
X144581904Y-118925809D01*
X144581904Y-119163904D01*
X144629523Y-119259142D01*
X144677142Y-119306761D01*
X144772380Y-119354380D01*
X145058095Y-119354380D01*
X145153333Y-119306761D01*
X145200952Y-119259142D01*
%TO.C,SOD923*%
X150058095Y-116412761D02*
X149915238Y-116460380D01*
X149677142Y-116460380D01*
X149581904Y-116412761D01*
X149534285Y-116365142D01*
X149486666Y-116269904D01*
X149486666Y-116174666D01*
X149534285Y-116079428D01*
X149581904Y-116031809D01*
X149677142Y-115984190D01*
X149867619Y-115936571D01*
X149962857Y-115888952D01*
X150010476Y-115841333D01*
X150058095Y-115746095D01*
X150058095Y-115650857D01*
X150010476Y-115555619D01*
X149962857Y-115508000D01*
X149867619Y-115460380D01*
X149629523Y-115460380D01*
X149486666Y-115508000D01*
X148867619Y-115460380D02*
X148677142Y-115460380D01*
X148581904Y-115508000D01*
X148486666Y-115603238D01*
X148439047Y-115793714D01*
X148439047Y-116127047D01*
X148486666Y-116317523D01*
X148581904Y-116412761D01*
X148677142Y-116460380D01*
X148867619Y-116460380D01*
X148962857Y-116412761D01*
X149058095Y-116317523D01*
X149105714Y-116127047D01*
X149105714Y-115793714D01*
X149058095Y-115603238D01*
X148962857Y-115508000D01*
X148867619Y-115460380D01*
X148010476Y-116460380D02*
X148010476Y-115460380D01*
X147772380Y-115460380D01*
X147629523Y-115508000D01*
X147534285Y-115603238D01*
X147486666Y-115698476D01*
X147439047Y-115888952D01*
X147439047Y-116031809D01*
X147486666Y-116222285D01*
X147534285Y-116317523D01*
X147629523Y-116412761D01*
X147772380Y-116460380D01*
X148010476Y-116460380D01*
X146962857Y-116460380D02*
X146772380Y-116460380D01*
X146677142Y-116412761D01*
X146629523Y-116365142D01*
X146534285Y-116222285D01*
X146486666Y-116031809D01*
X146486666Y-115650857D01*
X146534285Y-115555619D01*
X146581904Y-115508000D01*
X146677142Y-115460380D01*
X146867619Y-115460380D01*
X146962857Y-115508000D01*
X147010476Y-115555619D01*
X147058095Y-115650857D01*
X147058095Y-115888952D01*
X147010476Y-115984190D01*
X146962857Y-116031809D01*
X146867619Y-116079428D01*
X146677142Y-116079428D01*
X146581904Y-116031809D01*
X146534285Y-115984190D01*
X146486666Y-115888952D01*
X146105714Y-115555619D02*
X146058095Y-115508000D01*
X145962857Y-115460380D01*
X145724761Y-115460380D01*
X145629523Y-115508000D01*
X145581904Y-115555619D01*
X145534285Y-115650857D01*
X145534285Y-115746095D01*
X145581904Y-115888952D01*
X146153333Y-116460380D01*
X145534285Y-116460380D01*
X145200952Y-115460380D02*
X144581904Y-115460380D01*
X144915238Y-115841333D01*
X144772380Y-115841333D01*
X144677142Y-115888952D01*
X144629523Y-115936571D01*
X144581904Y-116031809D01*
X144581904Y-116269904D01*
X144629523Y-116365142D01*
X144677142Y-116412761D01*
X144772380Y-116460380D01*
X145058095Y-116460380D01*
X145153333Y-116412761D01*
X145200952Y-116365142D01*
%TO.C,2010R*%
X149788285Y-97845619D02*
X149740666Y-97798000D01*
X149645428Y-97750380D01*
X149407333Y-97750380D01*
X149312095Y-97798000D01*
X149264476Y-97845619D01*
X149216857Y-97940857D01*
X149216857Y-98036095D01*
X149264476Y-98178952D01*
X149835904Y-98750380D01*
X149216857Y-98750380D01*
X148597809Y-97750380D02*
X148502571Y-97750380D01*
X148407333Y-97798000D01*
X148359714Y-97845619D01*
X148312095Y-97940857D01*
X148264476Y-98131333D01*
X148264476Y-98369428D01*
X148312095Y-98559904D01*
X148359714Y-98655142D01*
X148407333Y-98702761D01*
X148502571Y-98750380D01*
X148597809Y-98750380D01*
X148693047Y-98702761D01*
X148740666Y-98655142D01*
X148788285Y-98559904D01*
X148835904Y-98369428D01*
X148835904Y-98131333D01*
X148788285Y-97940857D01*
X148740666Y-97845619D01*
X148693047Y-97798000D01*
X148597809Y-97750380D01*
X147312095Y-98750380D02*
X147883523Y-98750380D01*
X147597809Y-98750380D02*
X147597809Y-97750380D01*
X147693047Y-97893238D01*
X147788285Y-97988476D01*
X147883523Y-98036095D01*
X146693047Y-97750380D02*
X146597809Y-97750380D01*
X146502571Y-97798000D01*
X146454952Y-97845619D01*
X146407333Y-97940857D01*
X146359714Y-98131333D01*
X146359714Y-98369428D01*
X146407333Y-98559904D01*
X146454952Y-98655142D01*
X146502571Y-98702761D01*
X146597809Y-98750380D01*
X146693047Y-98750380D01*
X146788285Y-98702761D01*
X146835904Y-98655142D01*
X146883523Y-98559904D01*
X146931142Y-98369428D01*
X146931142Y-98131333D01*
X146883523Y-97940857D01*
X146835904Y-97845619D01*
X146788285Y-97798000D01*
X146693047Y-97750380D01*
X145359714Y-98750380D02*
X145693047Y-98274190D01*
X145931142Y-98750380D02*
X145931142Y-97750380D01*
X145550190Y-97750380D01*
X145454952Y-97798000D01*
X145407333Y-97845619D01*
X145359714Y-97940857D01*
X145359714Y-98083714D01*
X145407333Y-98178952D01*
X145454952Y-98226571D01*
X145550190Y-98274190D01*
X145931142Y-98274190D01*
%TO.C,1210R*%
D12*
X139744285Y-92563904D02*
X140201428Y-92563904D01*
X139972857Y-92563904D02*
X139972857Y-91763904D01*
X140049047Y-91878190D01*
X140125238Y-91954380D01*
X140201428Y-91992476D01*
X139439523Y-91840095D02*
X139401428Y-91802000D01*
X139325238Y-91763904D01*
X139134761Y-91763904D01*
X139058571Y-91802000D01*
X139020476Y-91840095D01*
X138982380Y-91916285D01*
X138982380Y-91992476D01*
X139020476Y-92106761D01*
X139477619Y-92563904D01*
X138982380Y-92563904D01*
X138220476Y-92563904D02*
X138677619Y-92563904D01*
X138449047Y-92563904D02*
X138449047Y-91763904D01*
X138525238Y-91878190D01*
X138601428Y-91954380D01*
X138677619Y-91992476D01*
X137725238Y-91763904D02*
X137649047Y-91763904D01*
X137572857Y-91802000D01*
X137534761Y-91840095D01*
X137496666Y-91916285D01*
X137458571Y-92068666D01*
X137458571Y-92259142D01*
X137496666Y-92411523D01*
X137534761Y-92487714D01*
X137572857Y-92525809D01*
X137649047Y-92563904D01*
X137725238Y-92563904D01*
X137801428Y-92525809D01*
X137839523Y-92487714D01*
X137877619Y-92411523D01*
X137915714Y-92259142D01*
X137915714Y-92068666D01*
X137877619Y-91916285D01*
X137839523Y-91840095D01*
X137801428Y-91802000D01*
X137725238Y-91763904D01*
X136658571Y-92563904D02*
X136925238Y-92182952D01*
X137115714Y-92563904D02*
X137115714Y-91763904D01*
X136810952Y-91763904D01*
X136734761Y-91802000D01*
X136696666Y-91840095D01*
X136658571Y-91916285D01*
X136658571Y-92030571D01*
X136696666Y-92106761D01*
X136734761Y-92144857D01*
X136810952Y-92182952D01*
X137115714Y-92182952D01*
%TO.C,LQFP32*%
D11*
X85915238Y-91130380D02*
X86391428Y-91130380D01*
X86391428Y-90130380D01*
X84915238Y-91225619D02*
X85010476Y-91178000D01*
X85105714Y-91082761D01*
X85248571Y-90939904D01*
X85343809Y-90892285D01*
X85439047Y-90892285D01*
X85391428Y-91130380D02*
X85486666Y-91082761D01*
X85581904Y-90987523D01*
X85629523Y-90797047D01*
X85629523Y-90463714D01*
X85581904Y-90273238D01*
X85486666Y-90178000D01*
X85391428Y-90130380D01*
X85200952Y-90130380D01*
X85105714Y-90178000D01*
X85010476Y-90273238D01*
X84962857Y-90463714D01*
X84962857Y-90797047D01*
X85010476Y-90987523D01*
X85105714Y-91082761D01*
X85200952Y-91130380D01*
X85391428Y-91130380D01*
X84200952Y-90606571D02*
X84534285Y-90606571D01*
X84534285Y-91130380D02*
X84534285Y-90130380D01*
X84058095Y-90130380D01*
X83677142Y-91130380D02*
X83677142Y-90130380D01*
X83296190Y-90130380D01*
X83200952Y-90178000D01*
X83153333Y-90225619D01*
X83105714Y-90320857D01*
X83105714Y-90463714D01*
X83153333Y-90558952D01*
X83200952Y-90606571D01*
X83296190Y-90654190D01*
X83677142Y-90654190D01*
X82772380Y-90130380D02*
X82153333Y-90130380D01*
X82486666Y-90511333D01*
X82343809Y-90511333D01*
X82248571Y-90558952D01*
X82200952Y-90606571D01*
X82153333Y-90701809D01*
X82153333Y-90939904D01*
X82200952Y-91035142D01*
X82248571Y-91082761D01*
X82343809Y-91130380D01*
X82629523Y-91130380D01*
X82724761Y-91082761D01*
X82772380Y-91035142D01*
X81772380Y-90225619D02*
X81724761Y-90178000D01*
X81629523Y-90130380D01*
X81391428Y-90130380D01*
X81296190Y-90178000D01*
X81248571Y-90225619D01*
X81200952Y-90320857D01*
X81200952Y-90416095D01*
X81248571Y-90558952D01*
X81820000Y-91130380D01*
X81200952Y-91130380D01*
%TO.C,TQFP32*%
X85494476Y-102068380D02*
X84923047Y-102068380D01*
X85208761Y-103068380D02*
X85208761Y-102068380D01*
X83923047Y-103163619D02*
X84018285Y-103116000D01*
X84113523Y-103020761D01*
X84256380Y-102877904D01*
X84351619Y-102830285D01*
X84446857Y-102830285D01*
X84399238Y-103068380D02*
X84494476Y-103020761D01*
X84589714Y-102925523D01*
X84637333Y-102735047D01*
X84637333Y-102401714D01*
X84589714Y-102211238D01*
X84494476Y-102116000D01*
X84399238Y-102068380D01*
X84208761Y-102068380D01*
X84113523Y-102116000D01*
X84018285Y-102211238D01*
X83970666Y-102401714D01*
X83970666Y-102735047D01*
X84018285Y-102925523D01*
X84113523Y-103020761D01*
X84208761Y-103068380D01*
X84399238Y-103068380D01*
X83208761Y-102544571D02*
X83542095Y-102544571D01*
X83542095Y-103068380D02*
X83542095Y-102068380D01*
X83065904Y-102068380D01*
X82684952Y-103068380D02*
X82684952Y-102068380D01*
X82304000Y-102068380D01*
X82208761Y-102116000D01*
X82161142Y-102163619D01*
X82113523Y-102258857D01*
X82113523Y-102401714D01*
X82161142Y-102496952D01*
X82208761Y-102544571D01*
X82304000Y-102592190D01*
X82684952Y-102592190D01*
X81780190Y-102068380D02*
X81161142Y-102068380D01*
X81494476Y-102449333D01*
X81351619Y-102449333D01*
X81256380Y-102496952D01*
X81208761Y-102544571D01*
X81161142Y-102639809D01*
X81161142Y-102877904D01*
X81208761Y-102973142D01*
X81256380Y-103020761D01*
X81351619Y-103068380D01*
X81637333Y-103068380D01*
X81732571Y-103020761D01*
X81780190Y-102973142D01*
X80780190Y-102163619D02*
X80732571Y-102116000D01*
X80637333Y-102068380D01*
X80399238Y-102068380D01*
X80304000Y-102116000D01*
X80256380Y-102163619D01*
X80208761Y-102258857D01*
X80208761Y-102354095D01*
X80256380Y-102496952D01*
X80827809Y-103068380D01*
X80208761Y-103068380D01*
%TO.C,QFN40*%
X76961809Y-91225619D02*
X77057047Y-91178000D01*
X77152285Y-91082761D01*
X77295142Y-90939904D01*
X77390380Y-90892285D01*
X77485619Y-90892285D01*
X77438000Y-91130380D02*
X77533238Y-91082761D01*
X77628476Y-90987523D01*
X77676095Y-90797047D01*
X77676095Y-90463714D01*
X77628476Y-90273238D01*
X77533238Y-90178000D01*
X77438000Y-90130380D01*
X77247523Y-90130380D01*
X77152285Y-90178000D01*
X77057047Y-90273238D01*
X77009428Y-90463714D01*
X77009428Y-90797047D01*
X77057047Y-90987523D01*
X77152285Y-91082761D01*
X77247523Y-91130380D01*
X77438000Y-91130380D01*
X76247523Y-90606571D02*
X76580857Y-90606571D01*
X76580857Y-91130380D02*
X76580857Y-90130380D01*
X76104666Y-90130380D01*
X75723714Y-91130380D02*
X75723714Y-90130380D01*
X75152285Y-91130380D01*
X75152285Y-90130380D01*
X74247523Y-90463714D02*
X74247523Y-91130380D01*
X74485619Y-90082761D02*
X74723714Y-90797047D01*
X74104666Y-90797047D01*
X73533238Y-90130380D02*
X73438000Y-90130380D01*
X73342761Y-90178000D01*
X73295142Y-90225619D01*
X73247523Y-90320857D01*
X73199904Y-90511333D01*
X73199904Y-90749428D01*
X73247523Y-90939904D01*
X73295142Y-91035142D01*
X73342761Y-91082761D01*
X73438000Y-91130380D01*
X73533238Y-91130380D01*
X73628476Y-91082761D01*
X73676095Y-91035142D01*
X73723714Y-90939904D01*
X73771333Y-90749428D01*
X73771333Y-90511333D01*
X73723714Y-90320857D01*
X73676095Y-90225619D01*
X73628476Y-90178000D01*
X73533238Y-90130380D01*
%TO.C,QFN28*%
X70103809Y-91225619D02*
X70199047Y-91178000D01*
X70294285Y-91082761D01*
X70437142Y-90939904D01*
X70532380Y-90892285D01*
X70627619Y-90892285D01*
X70580000Y-91130380D02*
X70675238Y-91082761D01*
X70770476Y-90987523D01*
X70818095Y-90797047D01*
X70818095Y-90463714D01*
X70770476Y-90273238D01*
X70675238Y-90178000D01*
X70580000Y-90130380D01*
X70389523Y-90130380D01*
X70294285Y-90178000D01*
X70199047Y-90273238D01*
X70151428Y-90463714D01*
X70151428Y-90797047D01*
X70199047Y-90987523D01*
X70294285Y-91082761D01*
X70389523Y-91130380D01*
X70580000Y-91130380D01*
X69389523Y-90606571D02*
X69722857Y-90606571D01*
X69722857Y-91130380D02*
X69722857Y-90130380D01*
X69246666Y-90130380D01*
X68865714Y-91130380D02*
X68865714Y-90130380D01*
X68294285Y-91130380D01*
X68294285Y-90130380D01*
X67865714Y-90225619D02*
X67818095Y-90178000D01*
X67722857Y-90130380D01*
X67484761Y-90130380D01*
X67389523Y-90178000D01*
X67341904Y-90225619D01*
X67294285Y-90320857D01*
X67294285Y-90416095D01*
X67341904Y-90558952D01*
X67913333Y-91130380D01*
X67294285Y-91130380D01*
X66722857Y-90558952D02*
X66818095Y-90511333D01*
X66865714Y-90463714D01*
X66913333Y-90368476D01*
X66913333Y-90320857D01*
X66865714Y-90225619D01*
X66818095Y-90178000D01*
X66722857Y-90130380D01*
X66532380Y-90130380D01*
X66437142Y-90178000D01*
X66389523Y-90225619D01*
X66341904Y-90320857D01*
X66341904Y-90368476D01*
X66389523Y-90463714D01*
X66437142Y-90511333D01*
X66532380Y-90558952D01*
X66722857Y-90558952D01*
X66818095Y-90606571D01*
X66865714Y-90654190D01*
X66913333Y-90749428D01*
X66913333Y-90939904D01*
X66865714Y-91035142D01*
X66818095Y-91082761D01*
X66722857Y-91130380D01*
X66532380Y-91130380D01*
X66437142Y-91082761D01*
X66389523Y-91035142D01*
X66341904Y-90939904D01*
X66341904Y-90749428D01*
X66389523Y-90654190D01*
X66437142Y-90606571D01*
X66532380Y-90558952D01*
%TO.C,QFN64*%
X72643809Y-103163619D02*
X72739047Y-103116000D01*
X72834285Y-103020761D01*
X72977142Y-102877904D01*
X73072380Y-102830285D01*
X73167619Y-102830285D01*
X73120000Y-103068380D02*
X73215238Y-103020761D01*
X73310476Y-102925523D01*
X73358095Y-102735047D01*
X73358095Y-102401714D01*
X73310476Y-102211238D01*
X73215238Y-102116000D01*
X73120000Y-102068380D01*
X72929523Y-102068380D01*
X72834285Y-102116000D01*
X72739047Y-102211238D01*
X72691428Y-102401714D01*
X72691428Y-102735047D01*
X72739047Y-102925523D01*
X72834285Y-103020761D01*
X72929523Y-103068380D01*
X73120000Y-103068380D01*
X71929523Y-102544571D02*
X72262857Y-102544571D01*
X72262857Y-103068380D02*
X72262857Y-102068380D01*
X71786666Y-102068380D01*
X71405714Y-103068380D02*
X71405714Y-102068380D01*
X70834285Y-103068380D01*
X70834285Y-102068380D01*
X69929523Y-102068380D02*
X70120000Y-102068380D01*
X70215238Y-102116000D01*
X70262857Y-102163619D01*
X70358095Y-102306476D01*
X70405714Y-102496952D01*
X70405714Y-102877904D01*
X70358095Y-102973142D01*
X70310476Y-103020761D01*
X70215238Y-103068380D01*
X70024761Y-103068380D01*
X69929523Y-103020761D01*
X69881904Y-102973142D01*
X69834285Y-102877904D01*
X69834285Y-102639809D01*
X69881904Y-102544571D01*
X69929523Y-102496952D01*
X70024761Y-102449333D01*
X70215238Y-102449333D01*
X70310476Y-102496952D01*
X70358095Y-102544571D01*
X70405714Y-102639809D01*
X68977142Y-102401714D02*
X68977142Y-103068380D01*
X69215238Y-102020761D02*
X69453333Y-102735047D01*
X68834285Y-102735047D01*
%TO.C,2512*%
X141668285Y-97845619D02*
X141620666Y-97798000D01*
X141525428Y-97750380D01*
X141287333Y-97750380D01*
X141192095Y-97798000D01*
X141144476Y-97845619D01*
X141096857Y-97940857D01*
X141096857Y-98036095D01*
X141144476Y-98178952D01*
X141715904Y-98750380D01*
X141096857Y-98750380D01*
X140192095Y-97750380D02*
X140668285Y-97750380D01*
X140715904Y-98226571D01*
X140668285Y-98178952D01*
X140573047Y-98131333D01*
X140334952Y-98131333D01*
X140239714Y-98178952D01*
X140192095Y-98226571D01*
X140144476Y-98321809D01*
X140144476Y-98559904D01*
X140192095Y-98655142D01*
X140239714Y-98702761D01*
X140334952Y-98750380D01*
X140573047Y-98750380D01*
X140668285Y-98702761D01*
X140715904Y-98655142D01*
X139192095Y-98750380D02*
X139763523Y-98750380D01*
X139477809Y-98750380D02*
X139477809Y-97750380D01*
X139573047Y-97893238D01*
X139668285Y-97988476D01*
X139763523Y-98036095D01*
X138811142Y-97845619D02*
X138763523Y-97798000D01*
X138668285Y-97750380D01*
X138430190Y-97750380D01*
X138334952Y-97798000D01*
X138287333Y-97845619D01*
X138239714Y-97940857D01*
X138239714Y-98036095D01*
X138287333Y-98178952D01*
X138858761Y-98750380D01*
X138239714Y-98750380D01*
%TO.C,1206R*%
D12*
X145078285Y-93071904D02*
X145535428Y-93071904D01*
X145306857Y-93071904D02*
X145306857Y-92271904D01*
X145383047Y-92386190D01*
X145459238Y-92462380D01*
X145535428Y-92500476D01*
X144773523Y-92348095D02*
X144735428Y-92310000D01*
X144659238Y-92271904D01*
X144468761Y-92271904D01*
X144392571Y-92310000D01*
X144354476Y-92348095D01*
X144316380Y-92424285D01*
X144316380Y-92500476D01*
X144354476Y-92614761D01*
X144811619Y-93071904D01*
X144316380Y-93071904D01*
X143821142Y-92271904D02*
X143744952Y-92271904D01*
X143668761Y-92310000D01*
X143630666Y-92348095D01*
X143592571Y-92424285D01*
X143554476Y-92576666D01*
X143554476Y-92767142D01*
X143592571Y-92919523D01*
X143630666Y-92995714D01*
X143668761Y-93033809D01*
X143744952Y-93071904D01*
X143821142Y-93071904D01*
X143897333Y-93033809D01*
X143935428Y-92995714D01*
X143973523Y-92919523D01*
X144011619Y-92767142D01*
X144011619Y-92576666D01*
X143973523Y-92424285D01*
X143935428Y-92348095D01*
X143897333Y-92310000D01*
X143821142Y-92271904D01*
X142868761Y-92271904D02*
X143021142Y-92271904D01*
X143097333Y-92310000D01*
X143135428Y-92348095D01*
X143211619Y-92462380D01*
X143249714Y-92614761D01*
X143249714Y-92919523D01*
X143211619Y-92995714D01*
X143173523Y-93033809D01*
X143097333Y-93071904D01*
X142944952Y-93071904D01*
X142868761Y-93033809D01*
X142830666Y-92995714D01*
X142792571Y-92919523D01*
X142792571Y-92729047D01*
X142830666Y-92652857D01*
X142868761Y-92614761D01*
X142944952Y-92576666D01*
X143097333Y-92576666D01*
X143173523Y-92614761D01*
X143211619Y-92652857D01*
X143249714Y-92729047D01*
X141992571Y-93071904D02*
X142259238Y-92690952D01*
X142449714Y-93071904D02*
X142449714Y-92271904D01*
X142144952Y-92271904D01*
X142068761Y-92310000D01*
X142030666Y-92348095D01*
X141992571Y-92424285D01*
X141992571Y-92538571D01*
X142030666Y-92614761D01*
X142068761Y-92652857D01*
X142144952Y-92690952D01*
X142449714Y-92690952D01*
%TO.C,0603R*%
D14*
X138966476Y-87664952D02*
X138928380Y-87664952D01*
X138890285Y-87684000D01*
X138871238Y-87703047D01*
X138852190Y-87741142D01*
X138833142Y-87817333D01*
X138833142Y-87912571D01*
X138852190Y-87988761D01*
X138871238Y-88026857D01*
X138890285Y-88045904D01*
X138928380Y-88064952D01*
X138966476Y-88064952D01*
X139004571Y-88045904D01*
X139023619Y-88026857D01*
X139042666Y-87988761D01*
X139061714Y-87912571D01*
X139061714Y-87817333D01*
X139042666Y-87741142D01*
X139023619Y-87703047D01*
X139004571Y-87684000D01*
X138966476Y-87664952D01*
X138490285Y-87664952D02*
X138566476Y-87664952D01*
X138604571Y-87684000D01*
X138623619Y-87703047D01*
X138661714Y-87760190D01*
X138680761Y-87836380D01*
X138680761Y-87988761D01*
X138661714Y-88026857D01*
X138642666Y-88045904D01*
X138604571Y-88064952D01*
X138528380Y-88064952D01*
X138490285Y-88045904D01*
X138471238Y-88026857D01*
X138452190Y-87988761D01*
X138452190Y-87893523D01*
X138471238Y-87855428D01*
X138490285Y-87836380D01*
X138528380Y-87817333D01*
X138604571Y-87817333D01*
X138642666Y-87836380D01*
X138661714Y-87855428D01*
X138680761Y-87893523D01*
X138204571Y-87664952D02*
X138166476Y-87664952D01*
X138128380Y-87684000D01*
X138109333Y-87703047D01*
X138090285Y-87741142D01*
X138071238Y-87817333D01*
X138071238Y-87912571D01*
X138090285Y-87988761D01*
X138109333Y-88026857D01*
X138128380Y-88045904D01*
X138166476Y-88064952D01*
X138204571Y-88064952D01*
X138242666Y-88045904D01*
X138261714Y-88026857D01*
X138280761Y-87988761D01*
X138299809Y-87912571D01*
X138299809Y-87817333D01*
X138280761Y-87741142D01*
X138261714Y-87703047D01*
X138242666Y-87684000D01*
X138204571Y-87664952D01*
X137937904Y-87664952D02*
X137690285Y-87664952D01*
X137823619Y-87817333D01*
X137766476Y-87817333D01*
X137728380Y-87836380D01*
X137709333Y-87855428D01*
X137690285Y-87893523D01*
X137690285Y-87988761D01*
X137709333Y-88026857D01*
X137728380Y-88045904D01*
X137766476Y-88064952D01*
X137880761Y-88064952D01*
X137918857Y-88045904D01*
X137937904Y-88026857D01*
X137290285Y-88064952D02*
X137423619Y-87874476D01*
X137518857Y-88064952D02*
X137518857Y-87664952D01*
X137366476Y-87664952D01*
X137328380Y-87684000D01*
X137309333Y-87703047D01*
X137290285Y-87741142D01*
X137290285Y-87798285D01*
X137309333Y-87836380D01*
X137328380Y-87855428D01*
X137366476Y-87874476D01*
X137518857Y-87874476D01*
%TO.C,0805R*%
D15*
X149578095Y-92436190D02*
X149530476Y-92436190D01*
X149482857Y-92460000D01*
X149459047Y-92483809D01*
X149435238Y-92531428D01*
X149411428Y-92626666D01*
X149411428Y-92745714D01*
X149435238Y-92840952D01*
X149459047Y-92888571D01*
X149482857Y-92912380D01*
X149530476Y-92936190D01*
X149578095Y-92936190D01*
X149625714Y-92912380D01*
X149649523Y-92888571D01*
X149673333Y-92840952D01*
X149697142Y-92745714D01*
X149697142Y-92626666D01*
X149673333Y-92531428D01*
X149649523Y-92483809D01*
X149625714Y-92460000D01*
X149578095Y-92436190D01*
X149125714Y-92650476D02*
X149173333Y-92626666D01*
X149197142Y-92602857D01*
X149220952Y-92555238D01*
X149220952Y-92531428D01*
X149197142Y-92483809D01*
X149173333Y-92460000D01*
X149125714Y-92436190D01*
X149030476Y-92436190D01*
X148982857Y-92460000D01*
X148959047Y-92483809D01*
X148935238Y-92531428D01*
X148935238Y-92555238D01*
X148959047Y-92602857D01*
X148982857Y-92626666D01*
X149030476Y-92650476D01*
X149125714Y-92650476D01*
X149173333Y-92674285D01*
X149197142Y-92698095D01*
X149220952Y-92745714D01*
X149220952Y-92840952D01*
X149197142Y-92888571D01*
X149173333Y-92912380D01*
X149125714Y-92936190D01*
X149030476Y-92936190D01*
X148982857Y-92912380D01*
X148959047Y-92888571D01*
X148935238Y-92840952D01*
X148935238Y-92745714D01*
X148959047Y-92698095D01*
X148982857Y-92674285D01*
X149030476Y-92650476D01*
X148625714Y-92436190D02*
X148578095Y-92436190D01*
X148530476Y-92460000D01*
X148506666Y-92483809D01*
X148482857Y-92531428D01*
X148459047Y-92626666D01*
X148459047Y-92745714D01*
X148482857Y-92840952D01*
X148506666Y-92888571D01*
X148530476Y-92912380D01*
X148578095Y-92936190D01*
X148625714Y-92936190D01*
X148673333Y-92912380D01*
X148697142Y-92888571D01*
X148720952Y-92840952D01*
X148744761Y-92745714D01*
X148744761Y-92626666D01*
X148720952Y-92531428D01*
X148697142Y-92483809D01*
X148673333Y-92460000D01*
X148625714Y-92436190D01*
X148006666Y-92436190D02*
X148244761Y-92436190D01*
X148268571Y-92674285D01*
X148244761Y-92650476D01*
X148197142Y-92626666D01*
X148078095Y-92626666D01*
X148030476Y-92650476D01*
X148006666Y-92674285D01*
X147982857Y-92721904D01*
X147982857Y-92840952D01*
X148006666Y-92888571D01*
X148030476Y-92912380D01*
X148078095Y-92936190D01*
X148197142Y-92936190D01*
X148244761Y-92912380D01*
X148268571Y-92888571D01*
X147482857Y-92936190D02*
X147649523Y-92698095D01*
X147768571Y-92936190D02*
X147768571Y-92436190D01*
X147578095Y-92436190D01*
X147530476Y-92460000D01*
X147506666Y-92483809D01*
X147482857Y-92531428D01*
X147482857Y-92602857D01*
X147506666Y-92650476D01*
X147530476Y-92674285D01*
X147578095Y-92698095D01*
X147768571Y-92698095D01*
%TO.C,0201R*%
D16*
X149084047Y-87747095D02*
X149060238Y-87747095D01*
X149036428Y-87759000D01*
X149024523Y-87770904D01*
X149012619Y-87794714D01*
X149000714Y-87842333D01*
X149000714Y-87901857D01*
X149012619Y-87949476D01*
X149024523Y-87973285D01*
X149036428Y-87985190D01*
X149060238Y-87997095D01*
X149084047Y-87997095D01*
X149107857Y-87985190D01*
X149119761Y-87973285D01*
X149131666Y-87949476D01*
X149143571Y-87901857D01*
X149143571Y-87842333D01*
X149131666Y-87794714D01*
X149119761Y-87770904D01*
X149107857Y-87759000D01*
X149084047Y-87747095D01*
X148905476Y-87770904D02*
X148893571Y-87759000D01*
X148869761Y-87747095D01*
X148810238Y-87747095D01*
X148786428Y-87759000D01*
X148774523Y-87770904D01*
X148762619Y-87794714D01*
X148762619Y-87818523D01*
X148774523Y-87854238D01*
X148917380Y-87997095D01*
X148762619Y-87997095D01*
X148607857Y-87747095D02*
X148584047Y-87747095D01*
X148560238Y-87759000D01*
X148548333Y-87770904D01*
X148536428Y-87794714D01*
X148524523Y-87842333D01*
X148524523Y-87901857D01*
X148536428Y-87949476D01*
X148548333Y-87973285D01*
X148560238Y-87985190D01*
X148584047Y-87997095D01*
X148607857Y-87997095D01*
X148631666Y-87985190D01*
X148643571Y-87973285D01*
X148655476Y-87949476D01*
X148667380Y-87901857D01*
X148667380Y-87842333D01*
X148655476Y-87794714D01*
X148643571Y-87770904D01*
X148631666Y-87759000D01*
X148607857Y-87747095D01*
X148286428Y-87997095D02*
X148429285Y-87997095D01*
X148357857Y-87997095D02*
X148357857Y-87747095D01*
X148381666Y-87782809D01*
X148405476Y-87806619D01*
X148429285Y-87818523D01*
X148036428Y-87997095D02*
X148119761Y-87878047D01*
X148179285Y-87997095D02*
X148179285Y-87747095D01*
X148084047Y-87747095D01*
X148060238Y-87759000D01*
X148048333Y-87770904D01*
X148036428Y-87794714D01*
X148036428Y-87830428D01*
X148048333Y-87854238D01*
X148060238Y-87866142D01*
X148084047Y-87878047D01*
X148179285Y-87878047D01*
%TO.C,0402R*%
X144277809Y-87741619D02*
X144253047Y-87741619D01*
X144228285Y-87754000D01*
X144215904Y-87766380D01*
X144203523Y-87791142D01*
X144191142Y-87840666D01*
X144191142Y-87902571D01*
X144203523Y-87952095D01*
X144215904Y-87976857D01*
X144228285Y-87989238D01*
X144253047Y-88001619D01*
X144277809Y-88001619D01*
X144302571Y-87989238D01*
X144314952Y-87976857D01*
X144327333Y-87952095D01*
X144339714Y-87902571D01*
X144339714Y-87840666D01*
X144327333Y-87791142D01*
X144314952Y-87766380D01*
X144302571Y-87754000D01*
X144277809Y-87741619D01*
X143968285Y-87828285D02*
X143968285Y-88001619D01*
X144030190Y-87729238D02*
X144092095Y-87914952D01*
X143931142Y-87914952D01*
X143782571Y-87741619D02*
X143757809Y-87741619D01*
X143733047Y-87754000D01*
X143720666Y-87766380D01*
X143708285Y-87791142D01*
X143695904Y-87840666D01*
X143695904Y-87902571D01*
X143708285Y-87952095D01*
X143720666Y-87976857D01*
X143733047Y-87989238D01*
X143757809Y-88001619D01*
X143782571Y-88001619D01*
X143807333Y-87989238D01*
X143819714Y-87976857D01*
X143832095Y-87952095D01*
X143844476Y-87902571D01*
X143844476Y-87840666D01*
X143832095Y-87791142D01*
X143819714Y-87766380D01*
X143807333Y-87754000D01*
X143782571Y-87741619D01*
X143596857Y-87766380D02*
X143584476Y-87754000D01*
X143559714Y-87741619D01*
X143497809Y-87741619D01*
X143473047Y-87754000D01*
X143460666Y-87766380D01*
X143448285Y-87791142D01*
X143448285Y-87815904D01*
X143460666Y-87853047D01*
X143609238Y-88001619D01*
X143448285Y-88001619D01*
X143188285Y-88001619D02*
X143274952Y-87877809D01*
X143336857Y-88001619D02*
X143336857Y-87741619D01*
X143237809Y-87741619D01*
X143213047Y-87754000D01*
X143200666Y-87766380D01*
X143188285Y-87791142D01*
X143188285Y-87828285D01*
X143200666Y-87853047D01*
X143213047Y-87865428D01*
X143237809Y-87877809D01*
X143336857Y-87877809D01*
%TD*%
M02*
