%TF.GenerationSoftware,KiCad,Pcbnew,5.1.8-db9833491~88~ubuntu20.04.1*%
%TF.CreationDate,2020-12-22T00:38:32+08:00*%
%TF.ProjectId,Ingress_BioCard,496e6772-6573-4735-9f42-696f43617264,1.0*%
%TF.SameCoordinates,Original*%
%TF.FileFunction,Legend,Bot*%
%TF.FilePolarity,Positive*%
%FSLAX46Y46*%
G04 Gerber Fmt 4.6, Leading zero omitted, Abs format (unit mm)*
G04 Created by KiCad (PCBNEW 5.1.8-db9833491~88~ubuntu20.04.1) date 2020-12-22 00:38:32*
%MOMM*%
%LPD*%
G01*
G04 APERTURE LIST*
%ADD10C,0.120000*%
%ADD11C,0.150000*%
%ADD12C,0.140000*%
%ADD13C,0.130000*%
G04 APERTURE END LIST*
D10*
%TO.C,4020R*%
X139623748Y-108324000D02*
X147396252Y-108324000D01*
X139623748Y-103004000D02*
X147396252Y-103004000D01*
%TO.C,BGA64*%
X110770000Y-124496000D02*
X110770000Y-125196000D01*
X110770000Y-125196000D02*
X111470000Y-125196000D01*
X110970000Y-115796000D02*
X120170000Y-115796000D01*
X120170000Y-115796000D02*
X120170000Y-124996000D01*
X120170000Y-124996000D02*
X110970000Y-124996000D01*
X110970000Y-124996000D02*
X110970000Y-115796000D01*
D11*
%TO.C,BGA36*%
X125205000Y-108309000D02*
X126054000Y-108309000D01*
X126054000Y-108309000D02*
X126054000Y-107442500D01*
X125205000Y-108309000D02*
X126054000Y-108309000D01*
X126054000Y-108309000D02*
X126054000Y-107442500D01*
X125205000Y-104543000D02*
X126054000Y-104543000D01*
X126054000Y-104543000D02*
X126054000Y-105409500D01*
X125205000Y-108309000D02*
X126054000Y-108309000D01*
X126054000Y-108309000D02*
X126054000Y-107442500D01*
X123207000Y-104543000D02*
X122358000Y-104543000D01*
X122358000Y-104543000D02*
X122358000Y-105409500D01*
X123408000Y-108309000D02*
X122358000Y-107259000D01*
D10*
%TO.C,BGA25*%
X112870000Y-111958000D02*
X112070000Y-111958000D01*
X112070000Y-111958000D02*
X112070000Y-111158000D01*
X118870000Y-111758000D02*
X118870000Y-105158000D01*
X118870000Y-105158000D02*
X112270000Y-105158000D01*
X112270000Y-105158000D02*
X112270000Y-111758000D01*
X112270000Y-111758000D02*
X118870000Y-111758000D01*
%TO.C,BGA9*%
X131760000Y-107376000D02*
X129860000Y-107376000D01*
X129860000Y-107376000D02*
X129860000Y-105476000D01*
X129860000Y-105476000D02*
X131760000Y-105476000D01*
X131760000Y-105476000D02*
X131760000Y-107376000D01*
X131960000Y-107576000D02*
X131160000Y-107576000D01*
X131960000Y-107576000D02*
X131960000Y-106776000D01*
%TO.C,SMA Amphenol*%
X102161000Y-101168000D02*
X102161000Y-103048000D01*
X95451000Y-101168000D02*
X95451000Y-103048000D01*
%TO.C,SOT89*%
X122003000Y-94414000D02*
X122003000Y-94644000D01*
X122003000Y-99134000D02*
X122003000Y-98904000D01*
X122003000Y-99134000D02*
X124723000Y-99134000D01*
X124723000Y-99134000D02*
X124723000Y-97824000D01*
X120863000Y-98904000D02*
X122003000Y-98904000D01*
X124723000Y-94414000D02*
X122003000Y-94414000D01*
X124723000Y-95724000D02*
X124723000Y-94414000D01*
%TO.C,SOT223*%
X111343000Y-99549000D02*
X117353000Y-99549000D01*
X113593000Y-92729000D02*
X117353000Y-92729000D01*
X117353000Y-99549000D02*
X117353000Y-98289000D01*
X117353000Y-92729000D02*
X117353000Y-93989000D01*
%TO.C,SOT238*%
X116343000Y-90764000D02*
X113893000Y-90764000D01*
X114543000Y-87544000D02*
X116343000Y-87544000D01*
%TO.C,SOT236*%
X124598000Y-90764000D02*
X122148000Y-90764000D01*
X122798000Y-87544000D02*
X124598000Y-87544000D01*
%TO.C,SOT235*%
X129678000Y-98384000D02*
X127228000Y-98384000D01*
X127878000Y-95164000D02*
X129678000Y-95164000D01*
%TO.C,SOT23*%
X130173000Y-87574000D02*
X128713000Y-87574000D01*
X130173000Y-90734000D02*
X128013000Y-90734000D01*
X130173000Y-90734000D02*
X130173000Y-89804000D01*
X130173000Y-87574000D02*
X130173000Y-88504000D01*
%TO.C,TSSOP24*%
X90932000Y-125546000D02*
X87332000Y-125546000D01*
X90932000Y-125546000D02*
X93132000Y-125546000D01*
X90932000Y-120326000D02*
X88732000Y-120326000D01*
X90932000Y-120326000D02*
X93132000Y-120326000D01*
%TO.C,TSSOP20*%
X102362000Y-125596000D02*
X98762000Y-125596000D01*
X102362000Y-125596000D02*
X104562000Y-125596000D01*
X102362000Y-120276000D02*
X100162000Y-120276000D01*
X102362000Y-120276000D02*
X104562000Y-120276000D01*
%TO.C,TSSOP16*%
X90932000Y-118051000D02*
X87332000Y-118051000D01*
X90932000Y-118051000D02*
X93132000Y-118051000D01*
X90932000Y-112581000D02*
X88732000Y-112581000D01*
X90932000Y-112581000D02*
X93132000Y-112581000D01*
%TO.C,TSSOP14*%
X102362000Y-117926000D02*
X98762000Y-117926000D01*
X102362000Y-117926000D02*
X104562000Y-117926000D01*
X102362000Y-112706000D02*
X100162000Y-112706000D01*
X102362000Y-112706000D02*
X104562000Y-112706000D01*
%TO.C,SOD123*%
X145070000Y-125460000D02*
X145070000Y-123460000D01*
X145070000Y-123460000D02*
X148970000Y-123460000D01*
X145070000Y-125460000D02*
X148970000Y-125460000D01*
%TO.C,SOD323*%
X145820000Y-121500000D02*
X145820000Y-119800000D01*
X145820000Y-119800000D02*
X148370000Y-119800000D01*
X145820000Y-121500000D02*
X148370000Y-121500000D01*
%TO.C,SOD523*%
X146170000Y-118202000D02*
X146170000Y-117002000D01*
X148020000Y-118202000D02*
X146170000Y-118202000D01*
X148020000Y-117002000D02*
X146170000Y-117002000D01*
%TO.C,SOD923*%
X147820000Y-114408000D02*
X146520000Y-114408000D01*
X147820000Y-115208000D02*
X146520000Y-115208000D01*
X146520000Y-115208000D02*
X146520000Y-114408000D01*
%TO.C,SMC*%
X124994000Y-116892000D02*
X124994000Y-123392000D01*
X124994000Y-116892000D02*
X133394000Y-116892000D01*
X124994000Y-123392000D02*
X133394000Y-123392000D01*
%TO.C,SMB*%
X135642000Y-125340000D02*
X135642000Y-121040000D01*
X135642000Y-121040000D02*
X141342000Y-121040000D01*
X135642000Y-125340000D02*
X141342000Y-125340000D01*
%TO.C,SMA*%
X135538000Y-117728000D02*
X135538000Y-114428000D01*
X135538000Y-114428000D02*
X140938000Y-114428000D01*
X135538000Y-117728000D02*
X140938000Y-117728000D01*
%TO.C,2010R*%
X146046936Y-99658000D02*
X149101064Y-99658000D01*
X146046936Y-96938000D02*
X149101064Y-96938000D01*
%TO.C,1210R*%
X137706263Y-93557000D02*
X139153737Y-93557000D01*
X137706263Y-90847000D02*
X139153737Y-90847000D01*
%TO.C,LQFP32*%
X85980000Y-88068000D02*
X86430000Y-88068000D01*
X86430000Y-88068000D02*
X86430000Y-88518000D01*
X81660000Y-88068000D02*
X81210000Y-88068000D01*
X81210000Y-88068000D02*
X81210000Y-88518000D01*
X85980000Y-93288000D02*
X86430000Y-93288000D01*
X86430000Y-93288000D02*
X86430000Y-92838000D01*
X81660000Y-93288000D02*
X81210000Y-93288000D01*
X81210000Y-93288000D02*
X81210000Y-92838000D01*
X81210000Y-92838000D02*
X79895000Y-92838000D01*
D11*
%TO.C,TQFP32*%
X79179000Y-106241000D02*
X79179000Y-106016000D01*
X86429000Y-106241000D02*
X86429000Y-105916000D01*
X86429000Y-98991000D02*
X86429000Y-99316000D01*
X79179000Y-98991000D02*
X79179000Y-99316000D01*
X79179000Y-106241000D02*
X79504000Y-106241000D01*
X79179000Y-98991000D02*
X79504000Y-98991000D01*
X86429000Y-98991000D02*
X86104000Y-98991000D01*
X86429000Y-106241000D02*
X86104000Y-106241000D01*
X79179000Y-106016000D02*
X77754000Y-106016000D01*
D10*
%TO.C,QFN40*%
X77623000Y-93288000D02*
X78048000Y-93288000D01*
X78048000Y-93288000D02*
X78048000Y-92863000D01*
X73253000Y-88068000D02*
X72828000Y-88068000D01*
X72828000Y-88068000D02*
X72828000Y-88493000D01*
X77623000Y-88068000D02*
X78048000Y-88068000D01*
X78048000Y-88068000D02*
X78048000Y-88493000D01*
X73253000Y-93288000D02*
X72828000Y-93288000D01*
%TO.C,QFN28*%
X70140000Y-92788000D02*
X70690000Y-92788000D01*
X70690000Y-92788000D02*
X70690000Y-92238000D01*
X67020000Y-88568000D02*
X66470000Y-88568000D01*
X66470000Y-88568000D02*
X66470000Y-89118000D01*
X70140000Y-88568000D02*
X70690000Y-88568000D01*
X70690000Y-88568000D02*
X70690000Y-89118000D01*
X67020000Y-92788000D02*
X66470000Y-92788000D01*
%TO.C,QFN64*%
X66985000Y-107226000D02*
X66510000Y-107226000D01*
X75730000Y-98006000D02*
X75730000Y-98481000D01*
X75255000Y-98006000D02*
X75730000Y-98006000D01*
X66510000Y-98006000D02*
X66510000Y-98481000D01*
X66985000Y-98006000D02*
X66510000Y-98006000D01*
X75730000Y-107226000D02*
X75730000Y-106751000D01*
X75255000Y-107226000D02*
X75730000Y-107226000D01*
%TO.C,2512*%
X137776936Y-96588000D02*
X142131064Y-96588000D01*
X137776936Y-100008000D02*
X142131064Y-100008000D01*
%TO.C,1206R*%
X143036936Y-91800000D02*
X144491064Y-91800000D01*
X143036936Y-93620000D02*
X144491064Y-93620000D01*
%TO.C,0603R*%
X137938742Y-87361500D02*
X138413258Y-87361500D01*
X137938742Y-88406500D02*
X138413258Y-88406500D01*
%TO.C,0805R*%
X148362936Y-91975000D02*
X148817064Y-91975000D01*
X148362936Y-93445000D02*
X148817064Y-93445000D01*
%TO.C,0402R*%
X143610359Y-87504000D02*
X143917641Y-87504000D01*
X143610359Y-88264000D02*
X143917641Y-88264000D01*
%TO.C,4020R*%
D11*
X145248095Y-109049714D02*
X145248095Y-109716380D01*
X145486190Y-108668761D02*
X145724285Y-109383047D01*
X145105238Y-109383047D01*
X144533809Y-108716380D02*
X144438571Y-108716380D01*
X144343333Y-108764000D01*
X144295714Y-108811619D01*
X144248095Y-108906857D01*
X144200476Y-109097333D01*
X144200476Y-109335428D01*
X144248095Y-109525904D01*
X144295714Y-109621142D01*
X144343333Y-109668761D01*
X144438571Y-109716380D01*
X144533809Y-109716380D01*
X144629047Y-109668761D01*
X144676666Y-109621142D01*
X144724285Y-109525904D01*
X144771904Y-109335428D01*
X144771904Y-109097333D01*
X144724285Y-108906857D01*
X144676666Y-108811619D01*
X144629047Y-108764000D01*
X144533809Y-108716380D01*
X143819523Y-108811619D02*
X143771904Y-108764000D01*
X143676666Y-108716380D01*
X143438571Y-108716380D01*
X143343333Y-108764000D01*
X143295714Y-108811619D01*
X143248095Y-108906857D01*
X143248095Y-109002095D01*
X143295714Y-109144952D01*
X143867142Y-109716380D01*
X143248095Y-109716380D01*
X142629047Y-108716380D02*
X142533809Y-108716380D01*
X142438571Y-108764000D01*
X142390952Y-108811619D01*
X142343333Y-108906857D01*
X142295714Y-109097333D01*
X142295714Y-109335428D01*
X142343333Y-109525904D01*
X142390952Y-109621142D01*
X142438571Y-109668761D01*
X142533809Y-109716380D01*
X142629047Y-109716380D01*
X142724285Y-109668761D01*
X142771904Y-109621142D01*
X142819523Y-109525904D01*
X142867142Y-109335428D01*
X142867142Y-109097333D01*
X142819523Y-108906857D01*
X142771904Y-108811619D01*
X142724285Y-108764000D01*
X142629047Y-108716380D01*
X141295714Y-109716380D02*
X141629047Y-109240190D01*
X141867142Y-109716380D02*
X141867142Y-108716380D01*
X141486190Y-108716380D01*
X141390952Y-108764000D01*
X141343333Y-108811619D01*
X141295714Y-108906857D01*
X141295714Y-109049714D01*
X141343333Y-109144952D01*
X141390952Y-109192571D01*
X141486190Y-109240190D01*
X141867142Y-109240190D01*
%TO.C,BGA64*%
X117379523Y-125724571D02*
X117236666Y-125772190D01*
X117189047Y-125819809D01*
X117141428Y-125915047D01*
X117141428Y-126057904D01*
X117189047Y-126153142D01*
X117236666Y-126200761D01*
X117331904Y-126248380D01*
X117712857Y-126248380D01*
X117712857Y-125248380D01*
X117379523Y-125248380D01*
X117284285Y-125296000D01*
X117236666Y-125343619D01*
X117189047Y-125438857D01*
X117189047Y-125534095D01*
X117236666Y-125629333D01*
X117284285Y-125676952D01*
X117379523Y-125724571D01*
X117712857Y-125724571D01*
X116189047Y-125296000D02*
X116284285Y-125248380D01*
X116427142Y-125248380D01*
X116570000Y-125296000D01*
X116665238Y-125391238D01*
X116712857Y-125486476D01*
X116760476Y-125676952D01*
X116760476Y-125819809D01*
X116712857Y-126010285D01*
X116665238Y-126105523D01*
X116570000Y-126200761D01*
X116427142Y-126248380D01*
X116331904Y-126248380D01*
X116189047Y-126200761D01*
X116141428Y-126153142D01*
X116141428Y-125819809D01*
X116331904Y-125819809D01*
X115760476Y-125962666D02*
X115284285Y-125962666D01*
X115855714Y-126248380D02*
X115522380Y-125248380D01*
X115189047Y-126248380D01*
X114427142Y-125248380D02*
X114617619Y-125248380D01*
X114712857Y-125296000D01*
X114760476Y-125343619D01*
X114855714Y-125486476D01*
X114903333Y-125676952D01*
X114903333Y-126057904D01*
X114855714Y-126153142D01*
X114808095Y-126200761D01*
X114712857Y-126248380D01*
X114522380Y-126248380D01*
X114427142Y-126200761D01*
X114379523Y-126153142D01*
X114331904Y-126057904D01*
X114331904Y-125819809D01*
X114379523Y-125724571D01*
X114427142Y-125676952D01*
X114522380Y-125629333D01*
X114712857Y-125629333D01*
X114808095Y-125676952D01*
X114855714Y-125724571D01*
X114903333Y-125819809D01*
X113474761Y-125581714D02*
X113474761Y-126248380D01*
X113712857Y-125200761D02*
X113950952Y-125915047D01*
X113331904Y-125915047D01*
%TO.C,BGA36*%
X126015523Y-109087571D02*
X125872666Y-109135190D01*
X125825047Y-109182809D01*
X125777428Y-109278047D01*
X125777428Y-109420904D01*
X125825047Y-109516142D01*
X125872666Y-109563761D01*
X125967904Y-109611380D01*
X126348857Y-109611380D01*
X126348857Y-108611380D01*
X126015523Y-108611380D01*
X125920285Y-108659000D01*
X125872666Y-108706619D01*
X125825047Y-108801857D01*
X125825047Y-108897095D01*
X125872666Y-108992333D01*
X125920285Y-109039952D01*
X126015523Y-109087571D01*
X126348857Y-109087571D01*
X124825047Y-108659000D02*
X124920285Y-108611380D01*
X125063142Y-108611380D01*
X125206000Y-108659000D01*
X125301238Y-108754238D01*
X125348857Y-108849476D01*
X125396476Y-109039952D01*
X125396476Y-109182809D01*
X125348857Y-109373285D01*
X125301238Y-109468523D01*
X125206000Y-109563761D01*
X125063142Y-109611380D01*
X124967904Y-109611380D01*
X124825047Y-109563761D01*
X124777428Y-109516142D01*
X124777428Y-109182809D01*
X124967904Y-109182809D01*
X124396476Y-109325666D02*
X123920285Y-109325666D01*
X124491714Y-109611380D02*
X124158380Y-108611380D01*
X123825047Y-109611380D01*
X123586952Y-108611380D02*
X122967904Y-108611380D01*
X123301238Y-108992333D01*
X123158380Y-108992333D01*
X123063142Y-109039952D01*
X123015523Y-109087571D01*
X122967904Y-109182809D01*
X122967904Y-109420904D01*
X123015523Y-109516142D01*
X123063142Y-109563761D01*
X123158380Y-109611380D01*
X123444095Y-109611380D01*
X123539333Y-109563761D01*
X123586952Y-109516142D01*
X122110761Y-108611380D02*
X122301238Y-108611380D01*
X122396476Y-108659000D01*
X122444095Y-108706619D01*
X122539333Y-108849476D01*
X122586952Y-109039952D01*
X122586952Y-109420904D01*
X122539333Y-109516142D01*
X122491714Y-109563761D01*
X122396476Y-109611380D01*
X122206000Y-109611380D01*
X122110761Y-109563761D01*
X122063142Y-109516142D01*
X122015523Y-109420904D01*
X122015523Y-109182809D01*
X122063142Y-109087571D01*
X122110761Y-109039952D01*
X122206000Y-108992333D01*
X122396476Y-108992333D01*
X122491714Y-109039952D01*
X122539333Y-109087571D01*
X122586952Y-109182809D01*
%TO.C,BGA25*%
X117379523Y-112586571D02*
X117236666Y-112634190D01*
X117189047Y-112681809D01*
X117141428Y-112777047D01*
X117141428Y-112919904D01*
X117189047Y-113015142D01*
X117236666Y-113062761D01*
X117331904Y-113110380D01*
X117712857Y-113110380D01*
X117712857Y-112110380D01*
X117379523Y-112110380D01*
X117284285Y-112158000D01*
X117236666Y-112205619D01*
X117189047Y-112300857D01*
X117189047Y-112396095D01*
X117236666Y-112491333D01*
X117284285Y-112538952D01*
X117379523Y-112586571D01*
X117712857Y-112586571D01*
X116189047Y-112158000D02*
X116284285Y-112110380D01*
X116427142Y-112110380D01*
X116570000Y-112158000D01*
X116665238Y-112253238D01*
X116712857Y-112348476D01*
X116760476Y-112538952D01*
X116760476Y-112681809D01*
X116712857Y-112872285D01*
X116665238Y-112967523D01*
X116570000Y-113062761D01*
X116427142Y-113110380D01*
X116331904Y-113110380D01*
X116189047Y-113062761D01*
X116141428Y-113015142D01*
X116141428Y-112681809D01*
X116331904Y-112681809D01*
X115760476Y-112824666D02*
X115284285Y-112824666D01*
X115855714Y-113110380D02*
X115522380Y-112110380D01*
X115189047Y-113110380D01*
X114903333Y-112205619D02*
X114855714Y-112158000D01*
X114760476Y-112110380D01*
X114522380Y-112110380D01*
X114427142Y-112158000D01*
X114379523Y-112205619D01*
X114331904Y-112300857D01*
X114331904Y-112396095D01*
X114379523Y-112538952D01*
X114950952Y-113110380D01*
X114331904Y-113110380D01*
X113427142Y-112110380D02*
X113903333Y-112110380D01*
X113950952Y-112586571D01*
X113903333Y-112538952D01*
X113808095Y-112491333D01*
X113570000Y-112491333D01*
X113474761Y-112538952D01*
X113427142Y-112586571D01*
X113379523Y-112681809D01*
X113379523Y-112919904D01*
X113427142Y-113015142D01*
X113474761Y-113062761D01*
X113570000Y-113110380D01*
X113808095Y-113110380D01*
X113903333Y-113062761D01*
X113950952Y-113015142D01*
%TO.C,BGA9*%
X132143333Y-109148571D02*
X132000476Y-109196190D01*
X131952857Y-109243809D01*
X131905238Y-109339047D01*
X131905238Y-109481904D01*
X131952857Y-109577142D01*
X132000476Y-109624761D01*
X132095714Y-109672380D01*
X132476666Y-109672380D01*
X132476666Y-108672380D01*
X132143333Y-108672380D01*
X132048095Y-108720000D01*
X132000476Y-108767619D01*
X131952857Y-108862857D01*
X131952857Y-108958095D01*
X132000476Y-109053333D01*
X132048095Y-109100952D01*
X132143333Y-109148571D01*
X132476666Y-109148571D01*
X130952857Y-108720000D02*
X131048095Y-108672380D01*
X131190952Y-108672380D01*
X131333809Y-108720000D01*
X131429047Y-108815238D01*
X131476666Y-108910476D01*
X131524285Y-109100952D01*
X131524285Y-109243809D01*
X131476666Y-109434285D01*
X131429047Y-109529523D01*
X131333809Y-109624761D01*
X131190952Y-109672380D01*
X131095714Y-109672380D01*
X130952857Y-109624761D01*
X130905238Y-109577142D01*
X130905238Y-109243809D01*
X131095714Y-109243809D01*
X130524285Y-109386666D02*
X130048095Y-109386666D01*
X130619523Y-109672380D02*
X130286190Y-108672380D01*
X129952857Y-109672380D01*
X129571904Y-109672380D02*
X129381428Y-109672380D01*
X129286190Y-109624761D01*
X129238571Y-109577142D01*
X129143333Y-109434285D01*
X129095714Y-109243809D01*
X129095714Y-108862857D01*
X129143333Y-108767619D01*
X129190952Y-108720000D01*
X129286190Y-108672380D01*
X129476666Y-108672380D01*
X129571904Y-108720000D01*
X129619523Y-108767619D01*
X129667142Y-108862857D01*
X129667142Y-109100952D01*
X129619523Y-109196190D01*
X129571904Y-109243809D01*
X129476666Y-109291428D01*
X129286190Y-109291428D01*
X129190952Y-109243809D01*
X129143333Y-109196190D01*
X129095714Y-109100952D01*
%TO.C,SMA Amphenol*%
X104067904Y-107592761D02*
X103925047Y-107640380D01*
X103686952Y-107640380D01*
X103591714Y-107592761D01*
X103544095Y-107545142D01*
X103496476Y-107449904D01*
X103496476Y-107354666D01*
X103544095Y-107259428D01*
X103591714Y-107211809D01*
X103686952Y-107164190D01*
X103877428Y-107116571D01*
X103972666Y-107068952D01*
X104020285Y-107021333D01*
X104067904Y-106926095D01*
X104067904Y-106830857D01*
X104020285Y-106735619D01*
X103972666Y-106688000D01*
X103877428Y-106640380D01*
X103639333Y-106640380D01*
X103496476Y-106688000D01*
X103067904Y-107640380D02*
X103067904Y-106640380D01*
X102734571Y-107354666D01*
X102401238Y-106640380D01*
X102401238Y-107640380D01*
X101972666Y-107354666D02*
X101496476Y-107354666D01*
X102067904Y-107640380D02*
X101734571Y-106640380D01*
X101401238Y-107640380D01*
X100353619Y-107354666D02*
X99877428Y-107354666D01*
X100448857Y-107640380D02*
X100115523Y-106640380D01*
X99782190Y-107640380D01*
X99448857Y-107640380D02*
X99448857Y-106973714D01*
X99448857Y-107068952D02*
X99401238Y-107021333D01*
X99306000Y-106973714D01*
X99163142Y-106973714D01*
X99067904Y-107021333D01*
X99020285Y-107116571D01*
X99020285Y-107640380D01*
X99020285Y-107116571D02*
X98972666Y-107021333D01*
X98877428Y-106973714D01*
X98734571Y-106973714D01*
X98639333Y-107021333D01*
X98591714Y-107116571D01*
X98591714Y-107640380D01*
X98115523Y-106973714D02*
X98115523Y-107973714D01*
X98115523Y-107021333D02*
X98020285Y-106973714D01*
X97829809Y-106973714D01*
X97734571Y-107021333D01*
X97686952Y-107068952D01*
X97639333Y-107164190D01*
X97639333Y-107449904D01*
X97686952Y-107545142D01*
X97734571Y-107592761D01*
X97829809Y-107640380D01*
X98020285Y-107640380D01*
X98115523Y-107592761D01*
X97210761Y-107640380D02*
X97210761Y-106640380D01*
X96782190Y-107640380D02*
X96782190Y-107116571D01*
X96829809Y-107021333D01*
X96925047Y-106973714D01*
X97067904Y-106973714D01*
X97163142Y-107021333D01*
X97210761Y-107068952D01*
X95925047Y-107592761D02*
X96020285Y-107640380D01*
X96210761Y-107640380D01*
X96306000Y-107592761D01*
X96353619Y-107497523D01*
X96353619Y-107116571D01*
X96306000Y-107021333D01*
X96210761Y-106973714D01*
X96020285Y-106973714D01*
X95925047Y-107021333D01*
X95877428Y-107116571D01*
X95877428Y-107211809D01*
X96353619Y-107307047D01*
X95448857Y-106973714D02*
X95448857Y-107640380D01*
X95448857Y-107068952D02*
X95401238Y-107021333D01*
X95306000Y-106973714D01*
X95163142Y-106973714D01*
X95067904Y-107021333D01*
X95020285Y-107116571D01*
X95020285Y-107640380D01*
X94401238Y-107640380D02*
X94496476Y-107592761D01*
X94544095Y-107545142D01*
X94591714Y-107449904D01*
X94591714Y-107164190D01*
X94544095Y-107068952D01*
X94496476Y-107021333D01*
X94401238Y-106973714D01*
X94258380Y-106973714D01*
X94163142Y-107021333D01*
X94115523Y-107068952D01*
X94067904Y-107164190D01*
X94067904Y-107449904D01*
X94115523Y-107545142D01*
X94163142Y-107592761D01*
X94258380Y-107640380D01*
X94401238Y-107640380D01*
X93496476Y-107640380D02*
X93591714Y-107592761D01*
X93639333Y-107497523D01*
X93639333Y-106640380D01*
%TO.C,2.4GHz Left*%
X103020285Y-93781619D02*
X102972666Y-93734000D01*
X102877428Y-93686380D01*
X102639333Y-93686380D01*
X102544095Y-93734000D01*
X102496476Y-93781619D01*
X102448857Y-93876857D01*
X102448857Y-93972095D01*
X102496476Y-94114952D01*
X103067904Y-94686380D01*
X102448857Y-94686380D01*
X102020285Y-94591142D02*
X101972666Y-94638761D01*
X102020285Y-94686380D01*
X102067904Y-94638761D01*
X102020285Y-94591142D01*
X102020285Y-94686380D01*
X101115523Y-94019714D02*
X101115523Y-94686380D01*
X101353619Y-93638761D02*
X101591714Y-94353047D01*
X100972666Y-94353047D01*
X100067904Y-93734000D02*
X100163142Y-93686380D01*
X100306000Y-93686380D01*
X100448857Y-93734000D01*
X100544095Y-93829238D01*
X100591714Y-93924476D01*
X100639333Y-94114952D01*
X100639333Y-94257809D01*
X100591714Y-94448285D01*
X100544095Y-94543523D01*
X100448857Y-94638761D01*
X100306000Y-94686380D01*
X100210761Y-94686380D01*
X100067904Y-94638761D01*
X100020285Y-94591142D01*
X100020285Y-94257809D01*
X100210761Y-94257809D01*
X99591714Y-94686380D02*
X99591714Y-93686380D01*
X99591714Y-94162571D02*
X99020285Y-94162571D01*
X99020285Y-94686380D02*
X99020285Y-93686380D01*
X98639333Y-94019714D02*
X98115523Y-94019714D01*
X98639333Y-94686380D01*
X98115523Y-94686380D01*
X96496476Y-94686380D02*
X96972666Y-94686380D01*
X96972666Y-93686380D01*
X95782190Y-94638761D02*
X95877428Y-94686380D01*
X96067904Y-94686380D01*
X96163142Y-94638761D01*
X96210761Y-94543523D01*
X96210761Y-94162571D01*
X96163142Y-94067333D01*
X96067904Y-94019714D01*
X95877428Y-94019714D01*
X95782190Y-94067333D01*
X95734571Y-94162571D01*
X95734571Y-94257809D01*
X96210761Y-94353047D01*
X95448857Y-94019714D02*
X95067904Y-94019714D01*
X95306000Y-94686380D02*
X95306000Y-93829238D01*
X95258380Y-93734000D01*
X95163142Y-93686380D01*
X95067904Y-93686380D01*
X94877428Y-94019714D02*
X94496476Y-94019714D01*
X94734571Y-93686380D02*
X94734571Y-94543523D01*
X94686952Y-94638761D01*
X94591714Y-94686380D01*
X94496476Y-94686380D01*
%TO.C,SOT89*%
X125505857Y-100988761D02*
X125363000Y-101036380D01*
X125124904Y-101036380D01*
X125029666Y-100988761D01*
X124982047Y-100941142D01*
X124934428Y-100845904D01*
X124934428Y-100750666D01*
X124982047Y-100655428D01*
X125029666Y-100607809D01*
X125124904Y-100560190D01*
X125315380Y-100512571D01*
X125410619Y-100464952D01*
X125458238Y-100417333D01*
X125505857Y-100322095D01*
X125505857Y-100226857D01*
X125458238Y-100131619D01*
X125410619Y-100084000D01*
X125315380Y-100036380D01*
X125077285Y-100036380D01*
X124934428Y-100084000D01*
X124315380Y-100036380D02*
X124124904Y-100036380D01*
X124029666Y-100084000D01*
X123934428Y-100179238D01*
X123886809Y-100369714D01*
X123886809Y-100703047D01*
X123934428Y-100893523D01*
X124029666Y-100988761D01*
X124124904Y-101036380D01*
X124315380Y-101036380D01*
X124410619Y-100988761D01*
X124505857Y-100893523D01*
X124553476Y-100703047D01*
X124553476Y-100369714D01*
X124505857Y-100179238D01*
X124410619Y-100084000D01*
X124315380Y-100036380D01*
X123601095Y-100036380D02*
X123029666Y-100036380D01*
X123315380Y-101036380D02*
X123315380Y-100036380D01*
X122553476Y-100464952D02*
X122648714Y-100417333D01*
X122696333Y-100369714D01*
X122743952Y-100274476D01*
X122743952Y-100226857D01*
X122696333Y-100131619D01*
X122648714Y-100084000D01*
X122553476Y-100036380D01*
X122363000Y-100036380D01*
X122267761Y-100084000D01*
X122220142Y-100131619D01*
X122172523Y-100226857D01*
X122172523Y-100274476D01*
X122220142Y-100369714D01*
X122267761Y-100417333D01*
X122363000Y-100464952D01*
X122553476Y-100464952D01*
X122648714Y-100512571D01*
X122696333Y-100560190D01*
X122743952Y-100655428D01*
X122743952Y-100845904D01*
X122696333Y-100941142D01*
X122648714Y-100988761D01*
X122553476Y-101036380D01*
X122363000Y-101036380D01*
X122267761Y-100988761D01*
X122220142Y-100941142D01*
X122172523Y-100845904D01*
X122172523Y-100655428D01*
X122220142Y-100560190D01*
X122267761Y-100512571D01*
X122363000Y-100464952D01*
X121696333Y-101036380D02*
X121505857Y-101036380D01*
X121410619Y-100988761D01*
X121363000Y-100941142D01*
X121267761Y-100798285D01*
X121220142Y-100607809D01*
X121220142Y-100226857D01*
X121267761Y-100131619D01*
X121315380Y-100084000D01*
X121410619Y-100036380D01*
X121601095Y-100036380D01*
X121696333Y-100084000D01*
X121743952Y-100131619D01*
X121791571Y-100226857D01*
X121791571Y-100464952D01*
X121743952Y-100560190D01*
X121696333Y-100607809D01*
X121601095Y-100655428D01*
X121410619Y-100655428D01*
X121315380Y-100607809D01*
X121267761Y-100560190D01*
X121220142Y-100464952D01*
%TO.C,SOT223*%
X118062047Y-101043761D02*
X117919190Y-101091380D01*
X117681095Y-101091380D01*
X117585857Y-101043761D01*
X117538238Y-100996142D01*
X117490619Y-100900904D01*
X117490619Y-100805666D01*
X117538238Y-100710428D01*
X117585857Y-100662809D01*
X117681095Y-100615190D01*
X117871571Y-100567571D01*
X117966809Y-100519952D01*
X118014428Y-100472333D01*
X118062047Y-100377095D01*
X118062047Y-100281857D01*
X118014428Y-100186619D01*
X117966809Y-100139000D01*
X117871571Y-100091380D01*
X117633476Y-100091380D01*
X117490619Y-100139000D01*
X116871571Y-100091380D02*
X116681095Y-100091380D01*
X116585857Y-100139000D01*
X116490619Y-100234238D01*
X116443000Y-100424714D01*
X116443000Y-100758047D01*
X116490619Y-100948523D01*
X116585857Y-101043761D01*
X116681095Y-101091380D01*
X116871571Y-101091380D01*
X116966809Y-101043761D01*
X117062047Y-100948523D01*
X117109666Y-100758047D01*
X117109666Y-100424714D01*
X117062047Y-100234238D01*
X116966809Y-100139000D01*
X116871571Y-100091380D01*
X116157285Y-100091380D02*
X115585857Y-100091380D01*
X115871571Y-101091380D02*
X115871571Y-100091380D01*
X115300142Y-100186619D02*
X115252523Y-100139000D01*
X115157285Y-100091380D01*
X114919190Y-100091380D01*
X114823952Y-100139000D01*
X114776333Y-100186619D01*
X114728714Y-100281857D01*
X114728714Y-100377095D01*
X114776333Y-100519952D01*
X115347761Y-101091380D01*
X114728714Y-101091380D01*
X114347761Y-100186619D02*
X114300142Y-100139000D01*
X114204904Y-100091380D01*
X113966809Y-100091380D01*
X113871571Y-100139000D01*
X113823952Y-100186619D01*
X113776333Y-100281857D01*
X113776333Y-100377095D01*
X113823952Y-100519952D01*
X114395380Y-101091380D01*
X113776333Y-101091380D01*
X113443000Y-100091380D02*
X112823952Y-100091380D01*
X113157285Y-100472333D01*
X113014428Y-100472333D01*
X112919190Y-100519952D01*
X112871571Y-100567571D01*
X112823952Y-100662809D01*
X112823952Y-100900904D01*
X112871571Y-100996142D01*
X112919190Y-101043761D01*
X113014428Y-101091380D01*
X113300142Y-101091380D01*
X113395380Y-101043761D01*
X113443000Y-100996142D01*
%TO.C,SOT238*%
X118062047Y-92058761D02*
X117919190Y-92106380D01*
X117681095Y-92106380D01*
X117585857Y-92058761D01*
X117538238Y-92011142D01*
X117490619Y-91915904D01*
X117490619Y-91820666D01*
X117538238Y-91725428D01*
X117585857Y-91677809D01*
X117681095Y-91630190D01*
X117871571Y-91582571D01*
X117966809Y-91534952D01*
X118014428Y-91487333D01*
X118062047Y-91392095D01*
X118062047Y-91296857D01*
X118014428Y-91201619D01*
X117966809Y-91154000D01*
X117871571Y-91106380D01*
X117633476Y-91106380D01*
X117490619Y-91154000D01*
X116871571Y-91106380D02*
X116681095Y-91106380D01*
X116585857Y-91154000D01*
X116490619Y-91249238D01*
X116443000Y-91439714D01*
X116443000Y-91773047D01*
X116490619Y-91963523D01*
X116585857Y-92058761D01*
X116681095Y-92106380D01*
X116871571Y-92106380D01*
X116966809Y-92058761D01*
X117062047Y-91963523D01*
X117109666Y-91773047D01*
X117109666Y-91439714D01*
X117062047Y-91249238D01*
X116966809Y-91154000D01*
X116871571Y-91106380D01*
X116157285Y-91106380D02*
X115585857Y-91106380D01*
X115871571Y-92106380D02*
X115871571Y-91106380D01*
X115300142Y-91201619D02*
X115252523Y-91154000D01*
X115157285Y-91106380D01*
X114919190Y-91106380D01*
X114823952Y-91154000D01*
X114776333Y-91201619D01*
X114728714Y-91296857D01*
X114728714Y-91392095D01*
X114776333Y-91534952D01*
X115347761Y-92106380D01*
X114728714Y-92106380D01*
X114395380Y-91106380D02*
X113776333Y-91106380D01*
X114109666Y-91487333D01*
X113966809Y-91487333D01*
X113871571Y-91534952D01*
X113823952Y-91582571D01*
X113776333Y-91677809D01*
X113776333Y-91915904D01*
X113823952Y-92011142D01*
X113871571Y-92058761D01*
X113966809Y-92106380D01*
X114252523Y-92106380D01*
X114347761Y-92058761D01*
X114395380Y-92011142D01*
X113204904Y-91534952D02*
X113300142Y-91487333D01*
X113347761Y-91439714D01*
X113395380Y-91344476D01*
X113395380Y-91296857D01*
X113347761Y-91201619D01*
X113300142Y-91154000D01*
X113204904Y-91106380D01*
X113014428Y-91106380D01*
X112919190Y-91154000D01*
X112871571Y-91201619D01*
X112823952Y-91296857D01*
X112823952Y-91344476D01*
X112871571Y-91439714D01*
X112919190Y-91487333D01*
X113014428Y-91534952D01*
X113204904Y-91534952D01*
X113300142Y-91582571D01*
X113347761Y-91630190D01*
X113395380Y-91725428D01*
X113395380Y-91915904D01*
X113347761Y-92011142D01*
X113300142Y-92058761D01*
X113204904Y-92106380D01*
X113014428Y-92106380D01*
X112919190Y-92058761D01*
X112871571Y-92011142D01*
X112823952Y-91915904D01*
X112823952Y-91725428D01*
X112871571Y-91630190D01*
X112919190Y-91582571D01*
X113014428Y-91534952D01*
%TO.C,SOT236*%
X126317047Y-92098761D02*
X126174190Y-92146380D01*
X125936095Y-92146380D01*
X125840857Y-92098761D01*
X125793238Y-92051142D01*
X125745619Y-91955904D01*
X125745619Y-91860666D01*
X125793238Y-91765428D01*
X125840857Y-91717809D01*
X125936095Y-91670190D01*
X126126571Y-91622571D01*
X126221809Y-91574952D01*
X126269428Y-91527333D01*
X126317047Y-91432095D01*
X126317047Y-91336857D01*
X126269428Y-91241619D01*
X126221809Y-91194000D01*
X126126571Y-91146380D01*
X125888476Y-91146380D01*
X125745619Y-91194000D01*
X125126571Y-91146380D02*
X124936095Y-91146380D01*
X124840857Y-91194000D01*
X124745619Y-91289238D01*
X124698000Y-91479714D01*
X124698000Y-91813047D01*
X124745619Y-92003523D01*
X124840857Y-92098761D01*
X124936095Y-92146380D01*
X125126571Y-92146380D01*
X125221809Y-92098761D01*
X125317047Y-92003523D01*
X125364666Y-91813047D01*
X125364666Y-91479714D01*
X125317047Y-91289238D01*
X125221809Y-91194000D01*
X125126571Y-91146380D01*
X124412285Y-91146380D02*
X123840857Y-91146380D01*
X124126571Y-92146380D02*
X124126571Y-91146380D01*
X123555142Y-91241619D02*
X123507523Y-91194000D01*
X123412285Y-91146380D01*
X123174190Y-91146380D01*
X123078952Y-91194000D01*
X123031333Y-91241619D01*
X122983714Y-91336857D01*
X122983714Y-91432095D01*
X123031333Y-91574952D01*
X123602761Y-92146380D01*
X122983714Y-92146380D01*
X122650380Y-91146380D02*
X122031333Y-91146380D01*
X122364666Y-91527333D01*
X122221809Y-91527333D01*
X122126571Y-91574952D01*
X122078952Y-91622571D01*
X122031333Y-91717809D01*
X122031333Y-91955904D01*
X122078952Y-92051142D01*
X122126571Y-92098761D01*
X122221809Y-92146380D01*
X122507523Y-92146380D01*
X122602761Y-92098761D01*
X122650380Y-92051142D01*
X121174190Y-91146380D02*
X121364666Y-91146380D01*
X121459904Y-91194000D01*
X121507523Y-91241619D01*
X121602761Y-91384476D01*
X121650380Y-91574952D01*
X121650380Y-91955904D01*
X121602761Y-92051142D01*
X121555142Y-92098761D01*
X121459904Y-92146380D01*
X121269428Y-92146380D01*
X121174190Y-92098761D01*
X121126571Y-92051142D01*
X121078952Y-91955904D01*
X121078952Y-91717809D01*
X121126571Y-91622571D01*
X121174190Y-91574952D01*
X121269428Y-91527333D01*
X121459904Y-91527333D01*
X121555142Y-91574952D01*
X121602761Y-91622571D01*
X121650380Y-91717809D01*
%TO.C,SOT235*%
X131397047Y-100988761D02*
X131254190Y-101036380D01*
X131016095Y-101036380D01*
X130920857Y-100988761D01*
X130873238Y-100941142D01*
X130825619Y-100845904D01*
X130825619Y-100750666D01*
X130873238Y-100655428D01*
X130920857Y-100607809D01*
X131016095Y-100560190D01*
X131206571Y-100512571D01*
X131301809Y-100464952D01*
X131349428Y-100417333D01*
X131397047Y-100322095D01*
X131397047Y-100226857D01*
X131349428Y-100131619D01*
X131301809Y-100084000D01*
X131206571Y-100036380D01*
X130968476Y-100036380D01*
X130825619Y-100084000D01*
X130206571Y-100036380D02*
X130016095Y-100036380D01*
X129920857Y-100084000D01*
X129825619Y-100179238D01*
X129778000Y-100369714D01*
X129778000Y-100703047D01*
X129825619Y-100893523D01*
X129920857Y-100988761D01*
X130016095Y-101036380D01*
X130206571Y-101036380D01*
X130301809Y-100988761D01*
X130397047Y-100893523D01*
X130444666Y-100703047D01*
X130444666Y-100369714D01*
X130397047Y-100179238D01*
X130301809Y-100084000D01*
X130206571Y-100036380D01*
X129492285Y-100036380D02*
X128920857Y-100036380D01*
X129206571Y-101036380D02*
X129206571Y-100036380D01*
X128635142Y-100131619D02*
X128587523Y-100084000D01*
X128492285Y-100036380D01*
X128254190Y-100036380D01*
X128158952Y-100084000D01*
X128111333Y-100131619D01*
X128063714Y-100226857D01*
X128063714Y-100322095D01*
X128111333Y-100464952D01*
X128682761Y-101036380D01*
X128063714Y-101036380D01*
X127730380Y-100036380D02*
X127111333Y-100036380D01*
X127444666Y-100417333D01*
X127301809Y-100417333D01*
X127206571Y-100464952D01*
X127158952Y-100512571D01*
X127111333Y-100607809D01*
X127111333Y-100845904D01*
X127158952Y-100941142D01*
X127206571Y-100988761D01*
X127301809Y-101036380D01*
X127587523Y-101036380D01*
X127682761Y-100988761D01*
X127730380Y-100941142D01*
X126206571Y-100036380D02*
X126682761Y-100036380D01*
X126730380Y-100512571D01*
X126682761Y-100464952D01*
X126587523Y-100417333D01*
X126349428Y-100417333D01*
X126254190Y-100464952D01*
X126206571Y-100512571D01*
X126158952Y-100607809D01*
X126158952Y-100845904D01*
X126206571Y-100941142D01*
X126254190Y-100988761D01*
X126349428Y-101036380D01*
X126587523Y-101036380D01*
X126682761Y-100988761D01*
X126730380Y-100941142D01*
%TO.C,SOT23*%
X131936857Y-92098761D02*
X131794000Y-92146380D01*
X131555904Y-92146380D01*
X131460666Y-92098761D01*
X131413047Y-92051142D01*
X131365428Y-91955904D01*
X131365428Y-91860666D01*
X131413047Y-91765428D01*
X131460666Y-91717809D01*
X131555904Y-91670190D01*
X131746380Y-91622571D01*
X131841619Y-91574952D01*
X131889238Y-91527333D01*
X131936857Y-91432095D01*
X131936857Y-91336857D01*
X131889238Y-91241619D01*
X131841619Y-91194000D01*
X131746380Y-91146380D01*
X131508285Y-91146380D01*
X131365428Y-91194000D01*
X130746380Y-91146380D02*
X130555904Y-91146380D01*
X130460666Y-91194000D01*
X130365428Y-91289238D01*
X130317809Y-91479714D01*
X130317809Y-91813047D01*
X130365428Y-92003523D01*
X130460666Y-92098761D01*
X130555904Y-92146380D01*
X130746380Y-92146380D01*
X130841619Y-92098761D01*
X130936857Y-92003523D01*
X130984476Y-91813047D01*
X130984476Y-91479714D01*
X130936857Y-91289238D01*
X130841619Y-91194000D01*
X130746380Y-91146380D01*
X130032095Y-91146380D02*
X129460666Y-91146380D01*
X129746380Y-92146380D02*
X129746380Y-91146380D01*
X129174952Y-91241619D02*
X129127333Y-91194000D01*
X129032095Y-91146380D01*
X128794000Y-91146380D01*
X128698761Y-91194000D01*
X128651142Y-91241619D01*
X128603523Y-91336857D01*
X128603523Y-91432095D01*
X128651142Y-91574952D01*
X129222571Y-92146380D01*
X128603523Y-92146380D01*
X128270190Y-91146380D02*
X127651142Y-91146380D01*
X127984476Y-91527333D01*
X127841619Y-91527333D01*
X127746380Y-91574952D01*
X127698761Y-91622571D01*
X127651142Y-91717809D01*
X127651142Y-91955904D01*
X127698761Y-92051142D01*
X127746380Y-92098761D01*
X127841619Y-92146380D01*
X128127333Y-92146380D01*
X128222571Y-92098761D01*
X128270190Y-92051142D01*
%TO.C,TSSOP24*%
X94146285Y-125838380D02*
X93574857Y-125838380D01*
X93860571Y-126838380D02*
X93860571Y-125838380D01*
X93289142Y-126790761D02*
X93146285Y-126838380D01*
X92908190Y-126838380D01*
X92812952Y-126790761D01*
X92765333Y-126743142D01*
X92717714Y-126647904D01*
X92717714Y-126552666D01*
X92765333Y-126457428D01*
X92812952Y-126409809D01*
X92908190Y-126362190D01*
X93098666Y-126314571D01*
X93193904Y-126266952D01*
X93241523Y-126219333D01*
X93289142Y-126124095D01*
X93289142Y-126028857D01*
X93241523Y-125933619D01*
X93193904Y-125886000D01*
X93098666Y-125838380D01*
X92860571Y-125838380D01*
X92717714Y-125886000D01*
X92336761Y-126790761D02*
X92193904Y-126838380D01*
X91955809Y-126838380D01*
X91860571Y-126790761D01*
X91812952Y-126743142D01*
X91765333Y-126647904D01*
X91765333Y-126552666D01*
X91812952Y-126457428D01*
X91860571Y-126409809D01*
X91955809Y-126362190D01*
X92146285Y-126314571D01*
X92241523Y-126266952D01*
X92289142Y-126219333D01*
X92336761Y-126124095D01*
X92336761Y-126028857D01*
X92289142Y-125933619D01*
X92241523Y-125886000D01*
X92146285Y-125838380D01*
X91908190Y-125838380D01*
X91765333Y-125886000D01*
X91146285Y-125838380D02*
X90955809Y-125838380D01*
X90860571Y-125886000D01*
X90765333Y-125981238D01*
X90717714Y-126171714D01*
X90717714Y-126505047D01*
X90765333Y-126695523D01*
X90860571Y-126790761D01*
X90955809Y-126838380D01*
X91146285Y-126838380D01*
X91241523Y-126790761D01*
X91336761Y-126695523D01*
X91384380Y-126505047D01*
X91384380Y-126171714D01*
X91336761Y-125981238D01*
X91241523Y-125886000D01*
X91146285Y-125838380D01*
X90289142Y-126838380D02*
X90289142Y-125838380D01*
X89908190Y-125838380D01*
X89812952Y-125886000D01*
X89765333Y-125933619D01*
X89717714Y-126028857D01*
X89717714Y-126171714D01*
X89765333Y-126266952D01*
X89812952Y-126314571D01*
X89908190Y-126362190D01*
X90289142Y-126362190D01*
X89336761Y-125933619D02*
X89289142Y-125886000D01*
X89193904Y-125838380D01*
X88955809Y-125838380D01*
X88860571Y-125886000D01*
X88812952Y-125933619D01*
X88765333Y-126028857D01*
X88765333Y-126124095D01*
X88812952Y-126266952D01*
X89384380Y-126838380D01*
X88765333Y-126838380D01*
X87908190Y-126171714D02*
X87908190Y-126838380D01*
X88146285Y-125790761D02*
X88384380Y-126505047D01*
X87765333Y-126505047D01*
%TO.C,TSSOP20*%
X105576285Y-125838380D02*
X105004857Y-125838380D01*
X105290571Y-126838380D02*
X105290571Y-125838380D01*
X104719142Y-126790761D02*
X104576285Y-126838380D01*
X104338190Y-126838380D01*
X104242952Y-126790761D01*
X104195333Y-126743142D01*
X104147714Y-126647904D01*
X104147714Y-126552666D01*
X104195333Y-126457428D01*
X104242952Y-126409809D01*
X104338190Y-126362190D01*
X104528666Y-126314571D01*
X104623904Y-126266952D01*
X104671523Y-126219333D01*
X104719142Y-126124095D01*
X104719142Y-126028857D01*
X104671523Y-125933619D01*
X104623904Y-125886000D01*
X104528666Y-125838380D01*
X104290571Y-125838380D01*
X104147714Y-125886000D01*
X103766761Y-126790761D02*
X103623904Y-126838380D01*
X103385809Y-126838380D01*
X103290571Y-126790761D01*
X103242952Y-126743142D01*
X103195333Y-126647904D01*
X103195333Y-126552666D01*
X103242952Y-126457428D01*
X103290571Y-126409809D01*
X103385809Y-126362190D01*
X103576285Y-126314571D01*
X103671523Y-126266952D01*
X103719142Y-126219333D01*
X103766761Y-126124095D01*
X103766761Y-126028857D01*
X103719142Y-125933619D01*
X103671523Y-125886000D01*
X103576285Y-125838380D01*
X103338190Y-125838380D01*
X103195333Y-125886000D01*
X102576285Y-125838380D02*
X102385809Y-125838380D01*
X102290571Y-125886000D01*
X102195333Y-125981238D01*
X102147714Y-126171714D01*
X102147714Y-126505047D01*
X102195333Y-126695523D01*
X102290571Y-126790761D01*
X102385809Y-126838380D01*
X102576285Y-126838380D01*
X102671523Y-126790761D01*
X102766761Y-126695523D01*
X102814380Y-126505047D01*
X102814380Y-126171714D01*
X102766761Y-125981238D01*
X102671523Y-125886000D01*
X102576285Y-125838380D01*
X101719142Y-126838380D02*
X101719142Y-125838380D01*
X101338190Y-125838380D01*
X101242952Y-125886000D01*
X101195333Y-125933619D01*
X101147714Y-126028857D01*
X101147714Y-126171714D01*
X101195333Y-126266952D01*
X101242952Y-126314571D01*
X101338190Y-126362190D01*
X101719142Y-126362190D01*
X100766761Y-125933619D02*
X100719142Y-125886000D01*
X100623904Y-125838380D01*
X100385809Y-125838380D01*
X100290571Y-125886000D01*
X100242952Y-125933619D01*
X100195333Y-126028857D01*
X100195333Y-126124095D01*
X100242952Y-126266952D01*
X100814380Y-126838380D01*
X100195333Y-126838380D01*
X99576285Y-125838380D02*
X99481047Y-125838380D01*
X99385809Y-125886000D01*
X99338190Y-125933619D01*
X99290571Y-126028857D01*
X99242952Y-126219333D01*
X99242952Y-126457428D01*
X99290571Y-126647904D01*
X99338190Y-126743142D01*
X99385809Y-126790761D01*
X99481047Y-126838380D01*
X99576285Y-126838380D01*
X99671523Y-126790761D01*
X99719142Y-126743142D01*
X99766761Y-126647904D01*
X99814380Y-126457428D01*
X99814380Y-126219333D01*
X99766761Y-126028857D01*
X99719142Y-125933619D01*
X99671523Y-125886000D01*
X99576285Y-125838380D01*
%TO.C,TSSOP16*%
X94146285Y-118218380D02*
X93574857Y-118218380D01*
X93860571Y-119218380D02*
X93860571Y-118218380D01*
X93289142Y-119170761D02*
X93146285Y-119218380D01*
X92908190Y-119218380D01*
X92812952Y-119170761D01*
X92765333Y-119123142D01*
X92717714Y-119027904D01*
X92717714Y-118932666D01*
X92765333Y-118837428D01*
X92812952Y-118789809D01*
X92908190Y-118742190D01*
X93098666Y-118694571D01*
X93193904Y-118646952D01*
X93241523Y-118599333D01*
X93289142Y-118504095D01*
X93289142Y-118408857D01*
X93241523Y-118313619D01*
X93193904Y-118266000D01*
X93098666Y-118218380D01*
X92860571Y-118218380D01*
X92717714Y-118266000D01*
X92336761Y-119170761D02*
X92193904Y-119218380D01*
X91955809Y-119218380D01*
X91860571Y-119170761D01*
X91812952Y-119123142D01*
X91765333Y-119027904D01*
X91765333Y-118932666D01*
X91812952Y-118837428D01*
X91860571Y-118789809D01*
X91955809Y-118742190D01*
X92146285Y-118694571D01*
X92241523Y-118646952D01*
X92289142Y-118599333D01*
X92336761Y-118504095D01*
X92336761Y-118408857D01*
X92289142Y-118313619D01*
X92241523Y-118266000D01*
X92146285Y-118218380D01*
X91908190Y-118218380D01*
X91765333Y-118266000D01*
X91146285Y-118218380D02*
X90955809Y-118218380D01*
X90860571Y-118266000D01*
X90765333Y-118361238D01*
X90717714Y-118551714D01*
X90717714Y-118885047D01*
X90765333Y-119075523D01*
X90860571Y-119170761D01*
X90955809Y-119218380D01*
X91146285Y-119218380D01*
X91241523Y-119170761D01*
X91336761Y-119075523D01*
X91384380Y-118885047D01*
X91384380Y-118551714D01*
X91336761Y-118361238D01*
X91241523Y-118266000D01*
X91146285Y-118218380D01*
X90289142Y-119218380D02*
X90289142Y-118218380D01*
X89908190Y-118218380D01*
X89812952Y-118266000D01*
X89765333Y-118313619D01*
X89717714Y-118408857D01*
X89717714Y-118551714D01*
X89765333Y-118646952D01*
X89812952Y-118694571D01*
X89908190Y-118742190D01*
X90289142Y-118742190D01*
X88765333Y-119218380D02*
X89336761Y-119218380D01*
X89051047Y-119218380D02*
X89051047Y-118218380D01*
X89146285Y-118361238D01*
X89241523Y-118456476D01*
X89336761Y-118504095D01*
X87908190Y-118218380D02*
X88098666Y-118218380D01*
X88193904Y-118266000D01*
X88241523Y-118313619D01*
X88336761Y-118456476D01*
X88384380Y-118646952D01*
X88384380Y-119027904D01*
X88336761Y-119123142D01*
X88289142Y-119170761D01*
X88193904Y-119218380D01*
X88003428Y-119218380D01*
X87908190Y-119170761D01*
X87860571Y-119123142D01*
X87812952Y-119027904D01*
X87812952Y-118789809D01*
X87860571Y-118694571D01*
X87908190Y-118646952D01*
X88003428Y-118599333D01*
X88193904Y-118599333D01*
X88289142Y-118646952D01*
X88336761Y-118694571D01*
X88384380Y-118789809D01*
%TO.C,TSSOP14*%
X105576285Y-118218380D02*
X105004857Y-118218380D01*
X105290571Y-119218380D02*
X105290571Y-118218380D01*
X104719142Y-119170761D02*
X104576285Y-119218380D01*
X104338190Y-119218380D01*
X104242952Y-119170761D01*
X104195333Y-119123142D01*
X104147714Y-119027904D01*
X104147714Y-118932666D01*
X104195333Y-118837428D01*
X104242952Y-118789809D01*
X104338190Y-118742190D01*
X104528666Y-118694571D01*
X104623904Y-118646952D01*
X104671523Y-118599333D01*
X104719142Y-118504095D01*
X104719142Y-118408857D01*
X104671523Y-118313619D01*
X104623904Y-118266000D01*
X104528666Y-118218380D01*
X104290571Y-118218380D01*
X104147714Y-118266000D01*
X103766761Y-119170761D02*
X103623904Y-119218380D01*
X103385809Y-119218380D01*
X103290571Y-119170761D01*
X103242952Y-119123142D01*
X103195333Y-119027904D01*
X103195333Y-118932666D01*
X103242952Y-118837428D01*
X103290571Y-118789809D01*
X103385809Y-118742190D01*
X103576285Y-118694571D01*
X103671523Y-118646952D01*
X103719142Y-118599333D01*
X103766761Y-118504095D01*
X103766761Y-118408857D01*
X103719142Y-118313619D01*
X103671523Y-118266000D01*
X103576285Y-118218380D01*
X103338190Y-118218380D01*
X103195333Y-118266000D01*
X102576285Y-118218380D02*
X102385809Y-118218380D01*
X102290571Y-118266000D01*
X102195333Y-118361238D01*
X102147714Y-118551714D01*
X102147714Y-118885047D01*
X102195333Y-119075523D01*
X102290571Y-119170761D01*
X102385809Y-119218380D01*
X102576285Y-119218380D01*
X102671523Y-119170761D01*
X102766761Y-119075523D01*
X102814380Y-118885047D01*
X102814380Y-118551714D01*
X102766761Y-118361238D01*
X102671523Y-118266000D01*
X102576285Y-118218380D01*
X101719142Y-119218380D02*
X101719142Y-118218380D01*
X101338190Y-118218380D01*
X101242952Y-118266000D01*
X101195333Y-118313619D01*
X101147714Y-118408857D01*
X101147714Y-118551714D01*
X101195333Y-118646952D01*
X101242952Y-118694571D01*
X101338190Y-118742190D01*
X101719142Y-118742190D01*
X100195333Y-119218380D02*
X100766761Y-119218380D01*
X100481047Y-119218380D02*
X100481047Y-118218380D01*
X100576285Y-118361238D01*
X100671523Y-118456476D01*
X100766761Y-118504095D01*
X99338190Y-118551714D02*
X99338190Y-119218380D01*
X99576285Y-118170761D02*
X99814380Y-118885047D01*
X99195333Y-118885047D01*
%TO.C,SOD123*%
X150058095Y-126864761D02*
X149915238Y-126912380D01*
X149677142Y-126912380D01*
X149581904Y-126864761D01*
X149534285Y-126817142D01*
X149486666Y-126721904D01*
X149486666Y-126626666D01*
X149534285Y-126531428D01*
X149581904Y-126483809D01*
X149677142Y-126436190D01*
X149867619Y-126388571D01*
X149962857Y-126340952D01*
X150010476Y-126293333D01*
X150058095Y-126198095D01*
X150058095Y-126102857D01*
X150010476Y-126007619D01*
X149962857Y-125960000D01*
X149867619Y-125912380D01*
X149629523Y-125912380D01*
X149486666Y-125960000D01*
X148867619Y-125912380D02*
X148677142Y-125912380D01*
X148581904Y-125960000D01*
X148486666Y-126055238D01*
X148439047Y-126245714D01*
X148439047Y-126579047D01*
X148486666Y-126769523D01*
X148581904Y-126864761D01*
X148677142Y-126912380D01*
X148867619Y-126912380D01*
X148962857Y-126864761D01*
X149058095Y-126769523D01*
X149105714Y-126579047D01*
X149105714Y-126245714D01*
X149058095Y-126055238D01*
X148962857Y-125960000D01*
X148867619Y-125912380D01*
X148010476Y-126912380D02*
X148010476Y-125912380D01*
X147772380Y-125912380D01*
X147629523Y-125960000D01*
X147534285Y-126055238D01*
X147486666Y-126150476D01*
X147439047Y-126340952D01*
X147439047Y-126483809D01*
X147486666Y-126674285D01*
X147534285Y-126769523D01*
X147629523Y-126864761D01*
X147772380Y-126912380D01*
X148010476Y-126912380D01*
X146486666Y-126912380D02*
X147058095Y-126912380D01*
X146772380Y-126912380D02*
X146772380Y-125912380D01*
X146867619Y-126055238D01*
X146962857Y-126150476D01*
X147058095Y-126198095D01*
X146105714Y-126007619D02*
X146058095Y-125960000D01*
X145962857Y-125912380D01*
X145724761Y-125912380D01*
X145629523Y-125960000D01*
X145581904Y-126007619D01*
X145534285Y-126102857D01*
X145534285Y-126198095D01*
X145581904Y-126340952D01*
X146153333Y-126912380D01*
X145534285Y-126912380D01*
X145200952Y-125912380D02*
X144581904Y-125912380D01*
X144915238Y-126293333D01*
X144772380Y-126293333D01*
X144677142Y-126340952D01*
X144629523Y-126388571D01*
X144581904Y-126483809D01*
X144581904Y-126721904D01*
X144629523Y-126817142D01*
X144677142Y-126864761D01*
X144772380Y-126912380D01*
X145058095Y-126912380D01*
X145153333Y-126864761D01*
X145200952Y-126817142D01*
%TO.C,SOD323*%
X150058095Y-122904761D02*
X149915238Y-122952380D01*
X149677142Y-122952380D01*
X149581904Y-122904761D01*
X149534285Y-122857142D01*
X149486666Y-122761904D01*
X149486666Y-122666666D01*
X149534285Y-122571428D01*
X149581904Y-122523809D01*
X149677142Y-122476190D01*
X149867619Y-122428571D01*
X149962857Y-122380952D01*
X150010476Y-122333333D01*
X150058095Y-122238095D01*
X150058095Y-122142857D01*
X150010476Y-122047619D01*
X149962857Y-122000000D01*
X149867619Y-121952380D01*
X149629523Y-121952380D01*
X149486666Y-122000000D01*
X148867619Y-121952380D02*
X148677142Y-121952380D01*
X148581904Y-122000000D01*
X148486666Y-122095238D01*
X148439047Y-122285714D01*
X148439047Y-122619047D01*
X148486666Y-122809523D01*
X148581904Y-122904761D01*
X148677142Y-122952380D01*
X148867619Y-122952380D01*
X148962857Y-122904761D01*
X149058095Y-122809523D01*
X149105714Y-122619047D01*
X149105714Y-122285714D01*
X149058095Y-122095238D01*
X148962857Y-122000000D01*
X148867619Y-121952380D01*
X148010476Y-122952380D02*
X148010476Y-121952380D01*
X147772380Y-121952380D01*
X147629523Y-122000000D01*
X147534285Y-122095238D01*
X147486666Y-122190476D01*
X147439047Y-122380952D01*
X147439047Y-122523809D01*
X147486666Y-122714285D01*
X147534285Y-122809523D01*
X147629523Y-122904761D01*
X147772380Y-122952380D01*
X148010476Y-122952380D01*
X147105714Y-121952380D02*
X146486666Y-121952380D01*
X146820000Y-122333333D01*
X146677142Y-122333333D01*
X146581904Y-122380952D01*
X146534285Y-122428571D01*
X146486666Y-122523809D01*
X146486666Y-122761904D01*
X146534285Y-122857142D01*
X146581904Y-122904761D01*
X146677142Y-122952380D01*
X146962857Y-122952380D01*
X147058095Y-122904761D01*
X147105714Y-122857142D01*
X146105714Y-122047619D02*
X146058095Y-122000000D01*
X145962857Y-121952380D01*
X145724761Y-121952380D01*
X145629523Y-122000000D01*
X145581904Y-122047619D01*
X145534285Y-122142857D01*
X145534285Y-122238095D01*
X145581904Y-122380952D01*
X146153333Y-122952380D01*
X145534285Y-122952380D01*
X145200952Y-121952380D02*
X144581904Y-121952380D01*
X144915238Y-122333333D01*
X144772380Y-122333333D01*
X144677142Y-122380952D01*
X144629523Y-122428571D01*
X144581904Y-122523809D01*
X144581904Y-122761904D01*
X144629523Y-122857142D01*
X144677142Y-122904761D01*
X144772380Y-122952380D01*
X145058095Y-122952380D01*
X145153333Y-122904761D01*
X145200952Y-122857142D01*
%TO.C,SOD523*%
X150058095Y-119306761D02*
X149915238Y-119354380D01*
X149677142Y-119354380D01*
X149581904Y-119306761D01*
X149534285Y-119259142D01*
X149486666Y-119163904D01*
X149486666Y-119068666D01*
X149534285Y-118973428D01*
X149581904Y-118925809D01*
X149677142Y-118878190D01*
X149867619Y-118830571D01*
X149962857Y-118782952D01*
X150010476Y-118735333D01*
X150058095Y-118640095D01*
X150058095Y-118544857D01*
X150010476Y-118449619D01*
X149962857Y-118402000D01*
X149867619Y-118354380D01*
X149629523Y-118354380D01*
X149486666Y-118402000D01*
X148867619Y-118354380D02*
X148677142Y-118354380D01*
X148581904Y-118402000D01*
X148486666Y-118497238D01*
X148439047Y-118687714D01*
X148439047Y-119021047D01*
X148486666Y-119211523D01*
X148581904Y-119306761D01*
X148677142Y-119354380D01*
X148867619Y-119354380D01*
X148962857Y-119306761D01*
X149058095Y-119211523D01*
X149105714Y-119021047D01*
X149105714Y-118687714D01*
X149058095Y-118497238D01*
X148962857Y-118402000D01*
X148867619Y-118354380D01*
X148010476Y-119354380D02*
X148010476Y-118354380D01*
X147772380Y-118354380D01*
X147629523Y-118402000D01*
X147534285Y-118497238D01*
X147486666Y-118592476D01*
X147439047Y-118782952D01*
X147439047Y-118925809D01*
X147486666Y-119116285D01*
X147534285Y-119211523D01*
X147629523Y-119306761D01*
X147772380Y-119354380D01*
X148010476Y-119354380D01*
X146534285Y-118354380D02*
X147010476Y-118354380D01*
X147058095Y-118830571D01*
X147010476Y-118782952D01*
X146915238Y-118735333D01*
X146677142Y-118735333D01*
X146581904Y-118782952D01*
X146534285Y-118830571D01*
X146486666Y-118925809D01*
X146486666Y-119163904D01*
X146534285Y-119259142D01*
X146581904Y-119306761D01*
X146677142Y-119354380D01*
X146915238Y-119354380D01*
X147010476Y-119306761D01*
X147058095Y-119259142D01*
X146105714Y-118449619D02*
X146058095Y-118402000D01*
X145962857Y-118354380D01*
X145724761Y-118354380D01*
X145629523Y-118402000D01*
X145581904Y-118449619D01*
X145534285Y-118544857D01*
X145534285Y-118640095D01*
X145581904Y-118782952D01*
X146153333Y-119354380D01*
X145534285Y-119354380D01*
X145200952Y-118354380D02*
X144581904Y-118354380D01*
X144915238Y-118735333D01*
X144772380Y-118735333D01*
X144677142Y-118782952D01*
X144629523Y-118830571D01*
X144581904Y-118925809D01*
X144581904Y-119163904D01*
X144629523Y-119259142D01*
X144677142Y-119306761D01*
X144772380Y-119354380D01*
X145058095Y-119354380D01*
X145153333Y-119306761D01*
X145200952Y-119259142D01*
%TO.C,SOD923*%
X150058095Y-116412761D02*
X149915238Y-116460380D01*
X149677142Y-116460380D01*
X149581904Y-116412761D01*
X149534285Y-116365142D01*
X149486666Y-116269904D01*
X149486666Y-116174666D01*
X149534285Y-116079428D01*
X149581904Y-116031809D01*
X149677142Y-115984190D01*
X149867619Y-115936571D01*
X149962857Y-115888952D01*
X150010476Y-115841333D01*
X150058095Y-115746095D01*
X150058095Y-115650857D01*
X150010476Y-115555619D01*
X149962857Y-115508000D01*
X149867619Y-115460380D01*
X149629523Y-115460380D01*
X149486666Y-115508000D01*
X148867619Y-115460380D02*
X148677142Y-115460380D01*
X148581904Y-115508000D01*
X148486666Y-115603238D01*
X148439047Y-115793714D01*
X148439047Y-116127047D01*
X148486666Y-116317523D01*
X148581904Y-116412761D01*
X148677142Y-116460380D01*
X148867619Y-116460380D01*
X148962857Y-116412761D01*
X149058095Y-116317523D01*
X149105714Y-116127047D01*
X149105714Y-115793714D01*
X149058095Y-115603238D01*
X148962857Y-115508000D01*
X148867619Y-115460380D01*
X148010476Y-116460380D02*
X148010476Y-115460380D01*
X147772380Y-115460380D01*
X147629523Y-115508000D01*
X147534285Y-115603238D01*
X147486666Y-115698476D01*
X147439047Y-115888952D01*
X147439047Y-116031809D01*
X147486666Y-116222285D01*
X147534285Y-116317523D01*
X147629523Y-116412761D01*
X147772380Y-116460380D01*
X148010476Y-116460380D01*
X146962857Y-116460380D02*
X146772380Y-116460380D01*
X146677142Y-116412761D01*
X146629523Y-116365142D01*
X146534285Y-116222285D01*
X146486666Y-116031809D01*
X146486666Y-115650857D01*
X146534285Y-115555619D01*
X146581904Y-115508000D01*
X146677142Y-115460380D01*
X146867619Y-115460380D01*
X146962857Y-115508000D01*
X147010476Y-115555619D01*
X147058095Y-115650857D01*
X147058095Y-115888952D01*
X147010476Y-115984190D01*
X146962857Y-116031809D01*
X146867619Y-116079428D01*
X146677142Y-116079428D01*
X146581904Y-116031809D01*
X146534285Y-115984190D01*
X146486666Y-115888952D01*
X146105714Y-115555619D02*
X146058095Y-115508000D01*
X145962857Y-115460380D01*
X145724761Y-115460380D01*
X145629523Y-115508000D01*
X145581904Y-115555619D01*
X145534285Y-115650857D01*
X145534285Y-115746095D01*
X145581904Y-115888952D01*
X146153333Y-116460380D01*
X145534285Y-116460380D01*
X145200952Y-115460380D02*
X144581904Y-115460380D01*
X144915238Y-115841333D01*
X144772380Y-115841333D01*
X144677142Y-115888952D01*
X144629523Y-115936571D01*
X144581904Y-116031809D01*
X144581904Y-116269904D01*
X144629523Y-116365142D01*
X144677142Y-116412761D01*
X144772380Y-116460380D01*
X145058095Y-116460380D01*
X145153333Y-116412761D01*
X145200952Y-116365142D01*
%TO.C,SMC*%
X131151142Y-124646761D02*
X131008285Y-124694380D01*
X130770190Y-124694380D01*
X130674952Y-124646761D01*
X130627333Y-124599142D01*
X130579714Y-124503904D01*
X130579714Y-124408666D01*
X130627333Y-124313428D01*
X130674952Y-124265809D01*
X130770190Y-124218190D01*
X130960666Y-124170571D01*
X131055904Y-124122952D01*
X131103523Y-124075333D01*
X131151142Y-123980095D01*
X131151142Y-123884857D01*
X131103523Y-123789619D01*
X131055904Y-123742000D01*
X130960666Y-123694380D01*
X130722571Y-123694380D01*
X130579714Y-123742000D01*
X130151142Y-124694380D02*
X130151142Y-123694380D01*
X129817809Y-124408666D01*
X129484476Y-123694380D01*
X129484476Y-124694380D01*
X128436857Y-124599142D02*
X128484476Y-124646761D01*
X128627333Y-124694380D01*
X128722571Y-124694380D01*
X128865428Y-124646761D01*
X128960666Y-124551523D01*
X129008285Y-124456285D01*
X129055904Y-124265809D01*
X129055904Y-124122952D01*
X129008285Y-123932476D01*
X128960666Y-123837238D01*
X128865428Y-123742000D01*
X128722571Y-123694380D01*
X128627333Y-123694380D01*
X128484476Y-123742000D01*
X128436857Y-123789619D01*
%TO.C,SMB*%
X140549142Y-126896761D02*
X140406285Y-126944380D01*
X140168190Y-126944380D01*
X140072952Y-126896761D01*
X140025333Y-126849142D01*
X139977714Y-126753904D01*
X139977714Y-126658666D01*
X140025333Y-126563428D01*
X140072952Y-126515809D01*
X140168190Y-126468190D01*
X140358666Y-126420571D01*
X140453904Y-126372952D01*
X140501523Y-126325333D01*
X140549142Y-126230095D01*
X140549142Y-126134857D01*
X140501523Y-126039619D01*
X140453904Y-125992000D01*
X140358666Y-125944380D01*
X140120571Y-125944380D01*
X139977714Y-125992000D01*
X139549142Y-126944380D02*
X139549142Y-125944380D01*
X139215809Y-126658666D01*
X138882476Y-125944380D01*
X138882476Y-126944380D01*
X138072952Y-126420571D02*
X137930095Y-126468190D01*
X137882476Y-126515809D01*
X137834857Y-126611047D01*
X137834857Y-126753904D01*
X137882476Y-126849142D01*
X137930095Y-126896761D01*
X138025333Y-126944380D01*
X138406285Y-126944380D01*
X138406285Y-125944380D01*
X138072952Y-125944380D01*
X137977714Y-125992000D01*
X137930095Y-126039619D01*
X137882476Y-126134857D01*
X137882476Y-126230095D01*
X137930095Y-126325333D01*
X137977714Y-126372952D01*
X138072952Y-126420571D01*
X138406285Y-126420571D01*
%TO.C,SMA*%
X140223714Y-119276761D02*
X140080857Y-119324380D01*
X139842761Y-119324380D01*
X139747523Y-119276761D01*
X139699904Y-119229142D01*
X139652285Y-119133904D01*
X139652285Y-119038666D01*
X139699904Y-118943428D01*
X139747523Y-118895809D01*
X139842761Y-118848190D01*
X140033238Y-118800571D01*
X140128476Y-118752952D01*
X140176095Y-118705333D01*
X140223714Y-118610095D01*
X140223714Y-118514857D01*
X140176095Y-118419619D01*
X140128476Y-118372000D01*
X140033238Y-118324380D01*
X139795142Y-118324380D01*
X139652285Y-118372000D01*
X139223714Y-119324380D02*
X139223714Y-118324380D01*
X138890380Y-119038666D01*
X138557047Y-118324380D01*
X138557047Y-119324380D01*
X138128476Y-119038666D02*
X137652285Y-119038666D01*
X138223714Y-119324380D02*
X137890380Y-118324380D01*
X137557047Y-119324380D01*
%TO.C,2010R*%
X149788285Y-100639619D02*
X149740666Y-100592000D01*
X149645428Y-100544380D01*
X149407333Y-100544380D01*
X149312095Y-100592000D01*
X149264476Y-100639619D01*
X149216857Y-100734857D01*
X149216857Y-100830095D01*
X149264476Y-100972952D01*
X149835904Y-101544380D01*
X149216857Y-101544380D01*
X148597809Y-100544380D02*
X148502571Y-100544380D01*
X148407333Y-100592000D01*
X148359714Y-100639619D01*
X148312095Y-100734857D01*
X148264476Y-100925333D01*
X148264476Y-101163428D01*
X148312095Y-101353904D01*
X148359714Y-101449142D01*
X148407333Y-101496761D01*
X148502571Y-101544380D01*
X148597809Y-101544380D01*
X148693047Y-101496761D01*
X148740666Y-101449142D01*
X148788285Y-101353904D01*
X148835904Y-101163428D01*
X148835904Y-100925333D01*
X148788285Y-100734857D01*
X148740666Y-100639619D01*
X148693047Y-100592000D01*
X148597809Y-100544380D01*
X147312095Y-101544380D02*
X147883523Y-101544380D01*
X147597809Y-101544380D02*
X147597809Y-100544380D01*
X147693047Y-100687238D01*
X147788285Y-100782476D01*
X147883523Y-100830095D01*
X146693047Y-100544380D02*
X146597809Y-100544380D01*
X146502571Y-100592000D01*
X146454952Y-100639619D01*
X146407333Y-100734857D01*
X146359714Y-100925333D01*
X146359714Y-101163428D01*
X146407333Y-101353904D01*
X146454952Y-101449142D01*
X146502571Y-101496761D01*
X146597809Y-101544380D01*
X146693047Y-101544380D01*
X146788285Y-101496761D01*
X146835904Y-101449142D01*
X146883523Y-101353904D01*
X146931142Y-101163428D01*
X146931142Y-100925333D01*
X146883523Y-100734857D01*
X146835904Y-100639619D01*
X146788285Y-100592000D01*
X146693047Y-100544380D01*
X145359714Y-101544380D02*
X145693047Y-101068190D01*
X145931142Y-101544380D02*
X145931142Y-100544380D01*
X145550190Y-100544380D01*
X145454952Y-100592000D01*
X145407333Y-100639619D01*
X145359714Y-100734857D01*
X145359714Y-100877714D01*
X145407333Y-100972952D01*
X145454952Y-101020571D01*
X145550190Y-101068190D01*
X145931142Y-101068190D01*
%TO.C,1210R*%
X140072857Y-95194380D02*
X140644285Y-95194380D01*
X140358571Y-95194380D02*
X140358571Y-94194380D01*
X140453809Y-94337238D01*
X140549047Y-94432476D01*
X140644285Y-94480095D01*
X139691904Y-94289619D02*
X139644285Y-94242000D01*
X139549047Y-94194380D01*
X139310952Y-94194380D01*
X139215714Y-94242000D01*
X139168095Y-94289619D01*
X139120476Y-94384857D01*
X139120476Y-94480095D01*
X139168095Y-94622952D01*
X139739523Y-95194380D01*
X139120476Y-95194380D01*
X138168095Y-95194380D02*
X138739523Y-95194380D01*
X138453809Y-95194380D02*
X138453809Y-94194380D01*
X138549047Y-94337238D01*
X138644285Y-94432476D01*
X138739523Y-94480095D01*
X137549047Y-94194380D02*
X137453809Y-94194380D01*
X137358571Y-94242000D01*
X137310952Y-94289619D01*
X137263333Y-94384857D01*
X137215714Y-94575333D01*
X137215714Y-94813428D01*
X137263333Y-95003904D01*
X137310952Y-95099142D01*
X137358571Y-95146761D01*
X137453809Y-95194380D01*
X137549047Y-95194380D01*
X137644285Y-95146761D01*
X137691904Y-95099142D01*
X137739523Y-95003904D01*
X137787142Y-94813428D01*
X137787142Y-94575333D01*
X137739523Y-94384857D01*
X137691904Y-94289619D01*
X137644285Y-94242000D01*
X137549047Y-94194380D01*
X136215714Y-95194380D02*
X136549047Y-94718190D01*
X136787142Y-95194380D02*
X136787142Y-94194380D01*
X136406190Y-94194380D01*
X136310952Y-94242000D01*
X136263333Y-94289619D01*
X136215714Y-94384857D01*
X136215714Y-94527714D01*
X136263333Y-94622952D01*
X136310952Y-94670571D01*
X136406190Y-94718190D01*
X136787142Y-94718190D01*
%TO.C,LQFP32*%
X85915238Y-96210380D02*
X86391428Y-96210380D01*
X86391428Y-95210380D01*
X84915238Y-96305619D02*
X85010476Y-96258000D01*
X85105714Y-96162761D01*
X85248571Y-96019904D01*
X85343809Y-95972285D01*
X85439047Y-95972285D01*
X85391428Y-96210380D02*
X85486666Y-96162761D01*
X85581904Y-96067523D01*
X85629523Y-95877047D01*
X85629523Y-95543714D01*
X85581904Y-95353238D01*
X85486666Y-95258000D01*
X85391428Y-95210380D01*
X85200952Y-95210380D01*
X85105714Y-95258000D01*
X85010476Y-95353238D01*
X84962857Y-95543714D01*
X84962857Y-95877047D01*
X85010476Y-96067523D01*
X85105714Y-96162761D01*
X85200952Y-96210380D01*
X85391428Y-96210380D01*
X84200952Y-95686571D02*
X84534285Y-95686571D01*
X84534285Y-96210380D02*
X84534285Y-95210380D01*
X84058095Y-95210380D01*
X83677142Y-96210380D02*
X83677142Y-95210380D01*
X83296190Y-95210380D01*
X83200952Y-95258000D01*
X83153333Y-95305619D01*
X83105714Y-95400857D01*
X83105714Y-95543714D01*
X83153333Y-95638952D01*
X83200952Y-95686571D01*
X83296190Y-95734190D01*
X83677142Y-95734190D01*
X82772380Y-95210380D02*
X82153333Y-95210380D01*
X82486666Y-95591333D01*
X82343809Y-95591333D01*
X82248571Y-95638952D01*
X82200952Y-95686571D01*
X82153333Y-95781809D01*
X82153333Y-96019904D01*
X82200952Y-96115142D01*
X82248571Y-96162761D01*
X82343809Y-96210380D01*
X82629523Y-96210380D01*
X82724761Y-96162761D01*
X82772380Y-96115142D01*
X81772380Y-95305619D02*
X81724761Y-95258000D01*
X81629523Y-95210380D01*
X81391428Y-95210380D01*
X81296190Y-95258000D01*
X81248571Y-95305619D01*
X81200952Y-95400857D01*
X81200952Y-95496095D01*
X81248571Y-95638952D01*
X81820000Y-96210380D01*
X81200952Y-96210380D01*
%TO.C,TQFP32*%
X85494476Y-108164380D02*
X84923047Y-108164380D01*
X85208761Y-109164380D02*
X85208761Y-108164380D01*
X83923047Y-109259619D02*
X84018285Y-109212000D01*
X84113523Y-109116761D01*
X84256380Y-108973904D01*
X84351619Y-108926285D01*
X84446857Y-108926285D01*
X84399238Y-109164380D02*
X84494476Y-109116761D01*
X84589714Y-109021523D01*
X84637333Y-108831047D01*
X84637333Y-108497714D01*
X84589714Y-108307238D01*
X84494476Y-108212000D01*
X84399238Y-108164380D01*
X84208761Y-108164380D01*
X84113523Y-108212000D01*
X84018285Y-108307238D01*
X83970666Y-108497714D01*
X83970666Y-108831047D01*
X84018285Y-109021523D01*
X84113523Y-109116761D01*
X84208761Y-109164380D01*
X84399238Y-109164380D01*
X83208761Y-108640571D02*
X83542095Y-108640571D01*
X83542095Y-109164380D02*
X83542095Y-108164380D01*
X83065904Y-108164380D01*
X82684952Y-109164380D02*
X82684952Y-108164380D01*
X82304000Y-108164380D01*
X82208761Y-108212000D01*
X82161142Y-108259619D01*
X82113523Y-108354857D01*
X82113523Y-108497714D01*
X82161142Y-108592952D01*
X82208761Y-108640571D01*
X82304000Y-108688190D01*
X82684952Y-108688190D01*
X81780190Y-108164380D02*
X81161142Y-108164380D01*
X81494476Y-108545333D01*
X81351619Y-108545333D01*
X81256380Y-108592952D01*
X81208761Y-108640571D01*
X81161142Y-108735809D01*
X81161142Y-108973904D01*
X81208761Y-109069142D01*
X81256380Y-109116761D01*
X81351619Y-109164380D01*
X81637333Y-109164380D01*
X81732571Y-109116761D01*
X81780190Y-109069142D01*
X80780190Y-108259619D02*
X80732571Y-108212000D01*
X80637333Y-108164380D01*
X80399238Y-108164380D01*
X80304000Y-108212000D01*
X80256380Y-108259619D01*
X80208761Y-108354857D01*
X80208761Y-108450095D01*
X80256380Y-108592952D01*
X80827809Y-109164380D01*
X80208761Y-109164380D01*
%TO.C,QFN40*%
X76961809Y-96305619D02*
X77057047Y-96258000D01*
X77152285Y-96162761D01*
X77295142Y-96019904D01*
X77390380Y-95972285D01*
X77485619Y-95972285D01*
X77438000Y-96210380D02*
X77533238Y-96162761D01*
X77628476Y-96067523D01*
X77676095Y-95877047D01*
X77676095Y-95543714D01*
X77628476Y-95353238D01*
X77533238Y-95258000D01*
X77438000Y-95210380D01*
X77247523Y-95210380D01*
X77152285Y-95258000D01*
X77057047Y-95353238D01*
X77009428Y-95543714D01*
X77009428Y-95877047D01*
X77057047Y-96067523D01*
X77152285Y-96162761D01*
X77247523Y-96210380D01*
X77438000Y-96210380D01*
X76247523Y-95686571D02*
X76580857Y-95686571D01*
X76580857Y-96210380D02*
X76580857Y-95210380D01*
X76104666Y-95210380D01*
X75723714Y-96210380D02*
X75723714Y-95210380D01*
X75152285Y-96210380D01*
X75152285Y-95210380D01*
X74247523Y-95543714D02*
X74247523Y-96210380D01*
X74485619Y-95162761D02*
X74723714Y-95877047D01*
X74104666Y-95877047D01*
X73533238Y-95210380D02*
X73438000Y-95210380D01*
X73342761Y-95258000D01*
X73295142Y-95305619D01*
X73247523Y-95400857D01*
X73199904Y-95591333D01*
X73199904Y-95829428D01*
X73247523Y-96019904D01*
X73295142Y-96115142D01*
X73342761Y-96162761D01*
X73438000Y-96210380D01*
X73533238Y-96210380D01*
X73628476Y-96162761D01*
X73676095Y-96115142D01*
X73723714Y-96019904D01*
X73771333Y-95829428D01*
X73771333Y-95591333D01*
X73723714Y-95400857D01*
X73676095Y-95305619D01*
X73628476Y-95258000D01*
X73533238Y-95210380D01*
%TO.C,QFN28*%
X70103809Y-96305619D02*
X70199047Y-96258000D01*
X70294285Y-96162761D01*
X70437142Y-96019904D01*
X70532380Y-95972285D01*
X70627619Y-95972285D01*
X70580000Y-96210380D02*
X70675238Y-96162761D01*
X70770476Y-96067523D01*
X70818095Y-95877047D01*
X70818095Y-95543714D01*
X70770476Y-95353238D01*
X70675238Y-95258000D01*
X70580000Y-95210380D01*
X70389523Y-95210380D01*
X70294285Y-95258000D01*
X70199047Y-95353238D01*
X70151428Y-95543714D01*
X70151428Y-95877047D01*
X70199047Y-96067523D01*
X70294285Y-96162761D01*
X70389523Y-96210380D01*
X70580000Y-96210380D01*
X69389523Y-95686571D02*
X69722857Y-95686571D01*
X69722857Y-96210380D02*
X69722857Y-95210380D01*
X69246666Y-95210380D01*
X68865714Y-96210380D02*
X68865714Y-95210380D01*
X68294285Y-96210380D01*
X68294285Y-95210380D01*
X67865714Y-95305619D02*
X67818095Y-95258000D01*
X67722857Y-95210380D01*
X67484761Y-95210380D01*
X67389523Y-95258000D01*
X67341904Y-95305619D01*
X67294285Y-95400857D01*
X67294285Y-95496095D01*
X67341904Y-95638952D01*
X67913333Y-96210380D01*
X67294285Y-96210380D01*
X66722857Y-95638952D02*
X66818095Y-95591333D01*
X66865714Y-95543714D01*
X66913333Y-95448476D01*
X66913333Y-95400857D01*
X66865714Y-95305619D01*
X66818095Y-95258000D01*
X66722857Y-95210380D01*
X66532380Y-95210380D01*
X66437142Y-95258000D01*
X66389523Y-95305619D01*
X66341904Y-95400857D01*
X66341904Y-95448476D01*
X66389523Y-95543714D01*
X66437142Y-95591333D01*
X66532380Y-95638952D01*
X66722857Y-95638952D01*
X66818095Y-95686571D01*
X66865714Y-95734190D01*
X66913333Y-95829428D01*
X66913333Y-96019904D01*
X66865714Y-96115142D01*
X66818095Y-96162761D01*
X66722857Y-96210380D01*
X66532380Y-96210380D01*
X66437142Y-96162761D01*
X66389523Y-96115142D01*
X66341904Y-96019904D01*
X66341904Y-95829428D01*
X66389523Y-95734190D01*
X66437142Y-95686571D01*
X66532380Y-95638952D01*
%TO.C,QFN64*%
X72643809Y-109259619D02*
X72739047Y-109212000D01*
X72834285Y-109116761D01*
X72977142Y-108973904D01*
X73072380Y-108926285D01*
X73167619Y-108926285D01*
X73120000Y-109164380D02*
X73215238Y-109116761D01*
X73310476Y-109021523D01*
X73358095Y-108831047D01*
X73358095Y-108497714D01*
X73310476Y-108307238D01*
X73215238Y-108212000D01*
X73120000Y-108164380D01*
X72929523Y-108164380D01*
X72834285Y-108212000D01*
X72739047Y-108307238D01*
X72691428Y-108497714D01*
X72691428Y-108831047D01*
X72739047Y-109021523D01*
X72834285Y-109116761D01*
X72929523Y-109164380D01*
X73120000Y-109164380D01*
X71929523Y-108640571D02*
X72262857Y-108640571D01*
X72262857Y-109164380D02*
X72262857Y-108164380D01*
X71786666Y-108164380D01*
X71405714Y-109164380D02*
X71405714Y-108164380D01*
X70834285Y-109164380D01*
X70834285Y-108164380D01*
X69929523Y-108164380D02*
X70120000Y-108164380D01*
X70215238Y-108212000D01*
X70262857Y-108259619D01*
X70358095Y-108402476D01*
X70405714Y-108592952D01*
X70405714Y-108973904D01*
X70358095Y-109069142D01*
X70310476Y-109116761D01*
X70215238Y-109164380D01*
X70024761Y-109164380D01*
X69929523Y-109116761D01*
X69881904Y-109069142D01*
X69834285Y-108973904D01*
X69834285Y-108735809D01*
X69881904Y-108640571D01*
X69929523Y-108592952D01*
X70024761Y-108545333D01*
X70215238Y-108545333D01*
X70310476Y-108592952D01*
X70358095Y-108640571D01*
X70405714Y-108735809D01*
X68977142Y-108497714D02*
X68977142Y-109164380D01*
X69215238Y-108116761D02*
X69453333Y-108831047D01*
X68834285Y-108831047D01*
%TO.C,2512*%
X141668285Y-100639619D02*
X141620666Y-100592000D01*
X141525428Y-100544380D01*
X141287333Y-100544380D01*
X141192095Y-100592000D01*
X141144476Y-100639619D01*
X141096857Y-100734857D01*
X141096857Y-100830095D01*
X141144476Y-100972952D01*
X141715904Y-101544380D01*
X141096857Y-101544380D01*
X140192095Y-100544380D02*
X140668285Y-100544380D01*
X140715904Y-101020571D01*
X140668285Y-100972952D01*
X140573047Y-100925333D01*
X140334952Y-100925333D01*
X140239714Y-100972952D01*
X140192095Y-101020571D01*
X140144476Y-101115809D01*
X140144476Y-101353904D01*
X140192095Y-101449142D01*
X140239714Y-101496761D01*
X140334952Y-101544380D01*
X140573047Y-101544380D01*
X140668285Y-101496761D01*
X140715904Y-101449142D01*
X139192095Y-101544380D02*
X139763523Y-101544380D01*
X139477809Y-101544380D02*
X139477809Y-100544380D01*
X139573047Y-100687238D01*
X139668285Y-100782476D01*
X139763523Y-100830095D01*
X138811142Y-100639619D02*
X138763523Y-100592000D01*
X138668285Y-100544380D01*
X138430190Y-100544380D01*
X138334952Y-100592000D01*
X138287333Y-100639619D01*
X138239714Y-100734857D01*
X138239714Y-100830095D01*
X138287333Y-100972952D01*
X138858761Y-101544380D01*
X138239714Y-101544380D01*
%TO.C,1206R*%
X145324714Y-95194380D02*
X145867571Y-95194380D01*
X145596142Y-95194380D02*
X145596142Y-94194380D01*
X145686619Y-94337238D01*
X145777095Y-94432476D01*
X145867571Y-94480095D01*
X144962809Y-94289619D02*
X144917571Y-94242000D01*
X144827095Y-94194380D01*
X144600904Y-94194380D01*
X144510428Y-94242000D01*
X144465190Y-94289619D01*
X144419952Y-94384857D01*
X144419952Y-94480095D01*
X144465190Y-94622952D01*
X145008047Y-95194380D01*
X144419952Y-95194380D01*
X143831857Y-94194380D02*
X143741380Y-94194380D01*
X143650904Y-94242000D01*
X143605666Y-94289619D01*
X143560428Y-94384857D01*
X143515190Y-94575333D01*
X143515190Y-94813428D01*
X143560428Y-95003904D01*
X143605666Y-95099142D01*
X143650904Y-95146761D01*
X143741380Y-95194380D01*
X143831857Y-95194380D01*
X143922333Y-95146761D01*
X143967571Y-95099142D01*
X144012809Y-95003904D01*
X144058047Y-94813428D01*
X144058047Y-94575333D01*
X144012809Y-94384857D01*
X143967571Y-94289619D01*
X143922333Y-94242000D01*
X143831857Y-94194380D01*
X142700904Y-94194380D02*
X142881857Y-94194380D01*
X142972333Y-94242000D01*
X143017571Y-94289619D01*
X143108047Y-94432476D01*
X143153285Y-94622952D01*
X143153285Y-95003904D01*
X143108047Y-95099142D01*
X143062809Y-95146761D01*
X142972333Y-95194380D01*
X142791380Y-95194380D01*
X142700904Y-95146761D01*
X142655666Y-95099142D01*
X142610428Y-95003904D01*
X142610428Y-94765809D01*
X142655666Y-94670571D01*
X142700904Y-94622952D01*
X142791380Y-94575333D01*
X142972333Y-94575333D01*
X143062809Y-94622952D01*
X143108047Y-94670571D01*
X143153285Y-94765809D01*
X141660428Y-95194380D02*
X141977095Y-94718190D01*
X142203285Y-95194380D02*
X142203285Y-94194380D01*
X141841380Y-94194380D01*
X141750904Y-94242000D01*
X141705666Y-94289619D01*
X141660428Y-94384857D01*
X141660428Y-94527714D01*
X141705666Y-94622952D01*
X141750904Y-94670571D01*
X141841380Y-94718190D01*
X142203285Y-94718190D01*
%TO.C,0603R*%
D12*
X139954571Y-88915142D02*
X139868857Y-88915142D01*
X139783142Y-88958000D01*
X139740285Y-89000857D01*
X139697428Y-89086571D01*
X139654571Y-89258000D01*
X139654571Y-89472285D01*
X139697428Y-89643714D01*
X139740285Y-89729428D01*
X139783142Y-89772285D01*
X139868857Y-89815142D01*
X139954571Y-89815142D01*
X140040285Y-89772285D01*
X140083142Y-89729428D01*
X140126000Y-89643714D01*
X140168857Y-89472285D01*
X140168857Y-89258000D01*
X140126000Y-89086571D01*
X140083142Y-89000857D01*
X140040285Y-88958000D01*
X139954571Y-88915142D01*
X138883142Y-88915142D02*
X139054571Y-88915142D01*
X139140285Y-88958000D01*
X139183142Y-89000857D01*
X139268857Y-89129428D01*
X139311714Y-89300857D01*
X139311714Y-89643714D01*
X139268857Y-89729428D01*
X139226000Y-89772285D01*
X139140285Y-89815142D01*
X138968857Y-89815142D01*
X138883142Y-89772285D01*
X138840285Y-89729428D01*
X138797428Y-89643714D01*
X138797428Y-89429428D01*
X138840285Y-89343714D01*
X138883142Y-89300857D01*
X138968857Y-89258000D01*
X139140285Y-89258000D01*
X139226000Y-89300857D01*
X139268857Y-89343714D01*
X139311714Y-89429428D01*
X138240285Y-88915142D02*
X138154571Y-88915142D01*
X138068857Y-88958000D01*
X138026000Y-89000857D01*
X137983142Y-89086571D01*
X137940285Y-89258000D01*
X137940285Y-89472285D01*
X137983142Y-89643714D01*
X138026000Y-89729428D01*
X138068857Y-89772285D01*
X138154571Y-89815142D01*
X138240285Y-89815142D01*
X138326000Y-89772285D01*
X138368857Y-89729428D01*
X138411714Y-89643714D01*
X138454571Y-89472285D01*
X138454571Y-89258000D01*
X138411714Y-89086571D01*
X138368857Y-89000857D01*
X138326000Y-88958000D01*
X138240285Y-88915142D01*
X137640285Y-88915142D02*
X137083142Y-88915142D01*
X137383142Y-89258000D01*
X137254571Y-89258000D01*
X137168857Y-89300857D01*
X137126000Y-89343714D01*
X137083142Y-89429428D01*
X137083142Y-89643714D01*
X137126000Y-89729428D01*
X137168857Y-89772285D01*
X137254571Y-89815142D01*
X137511714Y-89815142D01*
X137597428Y-89772285D01*
X137640285Y-89729428D01*
X136183142Y-89815142D02*
X136483142Y-89386571D01*
X136697428Y-89815142D02*
X136697428Y-88915142D01*
X136354571Y-88915142D01*
X136268857Y-88958000D01*
X136226000Y-89000857D01*
X136183142Y-89086571D01*
X136183142Y-89215142D01*
X136226000Y-89300857D01*
X136268857Y-89343714D01*
X136354571Y-89386571D01*
X136697428Y-89386571D01*
%TO.C,0805R*%
D11*
X150368571Y-94194380D02*
X150282857Y-94194380D01*
X150197142Y-94242000D01*
X150154285Y-94289619D01*
X150111428Y-94384857D01*
X150068571Y-94575333D01*
X150068571Y-94813428D01*
X150111428Y-95003904D01*
X150154285Y-95099142D01*
X150197142Y-95146761D01*
X150282857Y-95194380D01*
X150368571Y-95194380D01*
X150454285Y-95146761D01*
X150497142Y-95099142D01*
X150540000Y-95003904D01*
X150582857Y-94813428D01*
X150582857Y-94575333D01*
X150540000Y-94384857D01*
X150497142Y-94289619D01*
X150454285Y-94242000D01*
X150368571Y-94194380D01*
X149554285Y-94622952D02*
X149640000Y-94575333D01*
X149682857Y-94527714D01*
X149725714Y-94432476D01*
X149725714Y-94384857D01*
X149682857Y-94289619D01*
X149640000Y-94242000D01*
X149554285Y-94194380D01*
X149382857Y-94194380D01*
X149297142Y-94242000D01*
X149254285Y-94289619D01*
X149211428Y-94384857D01*
X149211428Y-94432476D01*
X149254285Y-94527714D01*
X149297142Y-94575333D01*
X149382857Y-94622952D01*
X149554285Y-94622952D01*
X149640000Y-94670571D01*
X149682857Y-94718190D01*
X149725714Y-94813428D01*
X149725714Y-95003904D01*
X149682857Y-95099142D01*
X149640000Y-95146761D01*
X149554285Y-95194380D01*
X149382857Y-95194380D01*
X149297142Y-95146761D01*
X149254285Y-95099142D01*
X149211428Y-95003904D01*
X149211428Y-94813428D01*
X149254285Y-94718190D01*
X149297142Y-94670571D01*
X149382857Y-94622952D01*
X148654285Y-94194380D02*
X148568571Y-94194380D01*
X148482857Y-94242000D01*
X148440000Y-94289619D01*
X148397142Y-94384857D01*
X148354285Y-94575333D01*
X148354285Y-94813428D01*
X148397142Y-95003904D01*
X148440000Y-95099142D01*
X148482857Y-95146761D01*
X148568571Y-95194380D01*
X148654285Y-95194380D01*
X148740000Y-95146761D01*
X148782857Y-95099142D01*
X148825714Y-95003904D01*
X148868571Y-94813428D01*
X148868571Y-94575333D01*
X148825714Y-94384857D01*
X148782857Y-94289619D01*
X148740000Y-94242000D01*
X148654285Y-94194380D01*
X147540000Y-94194380D02*
X147968571Y-94194380D01*
X148011428Y-94670571D01*
X147968571Y-94622952D01*
X147882857Y-94575333D01*
X147668571Y-94575333D01*
X147582857Y-94622952D01*
X147540000Y-94670571D01*
X147497142Y-94765809D01*
X147497142Y-95003904D01*
X147540000Y-95099142D01*
X147582857Y-95146761D01*
X147668571Y-95194380D01*
X147882857Y-95194380D01*
X147968571Y-95146761D01*
X148011428Y-95099142D01*
X146597142Y-95194380D02*
X146897142Y-94718190D01*
X147111428Y-95194380D02*
X147111428Y-94194380D01*
X146768571Y-94194380D01*
X146682857Y-94242000D01*
X146640000Y-94289619D01*
X146597142Y-94384857D01*
X146597142Y-94527714D01*
X146640000Y-94622952D01*
X146682857Y-94670571D01*
X146768571Y-94718190D01*
X147111428Y-94718190D01*
%TO.C,0201R*%
D10*
X149973333Y-89024666D02*
X149906666Y-89024666D01*
X149840000Y-89058000D01*
X149806666Y-89091333D01*
X149773333Y-89158000D01*
X149740000Y-89291333D01*
X149740000Y-89458000D01*
X149773333Y-89591333D01*
X149806666Y-89658000D01*
X149840000Y-89691333D01*
X149906666Y-89724666D01*
X149973333Y-89724666D01*
X150040000Y-89691333D01*
X150073333Y-89658000D01*
X150106666Y-89591333D01*
X150140000Y-89458000D01*
X150140000Y-89291333D01*
X150106666Y-89158000D01*
X150073333Y-89091333D01*
X150040000Y-89058000D01*
X149973333Y-89024666D01*
X149473333Y-89091333D02*
X149440000Y-89058000D01*
X149373333Y-89024666D01*
X149206666Y-89024666D01*
X149140000Y-89058000D01*
X149106666Y-89091333D01*
X149073333Y-89158000D01*
X149073333Y-89224666D01*
X149106666Y-89324666D01*
X149506666Y-89724666D01*
X149073333Y-89724666D01*
X148640000Y-89024666D02*
X148573333Y-89024666D01*
X148506666Y-89058000D01*
X148473333Y-89091333D01*
X148440000Y-89158000D01*
X148406666Y-89291333D01*
X148406666Y-89458000D01*
X148440000Y-89591333D01*
X148473333Y-89658000D01*
X148506666Y-89691333D01*
X148573333Y-89724666D01*
X148640000Y-89724666D01*
X148706666Y-89691333D01*
X148740000Y-89658000D01*
X148773333Y-89591333D01*
X148806666Y-89458000D01*
X148806666Y-89291333D01*
X148773333Y-89158000D01*
X148740000Y-89091333D01*
X148706666Y-89058000D01*
X148640000Y-89024666D01*
X147740000Y-89724666D02*
X148140000Y-89724666D01*
X147940000Y-89724666D02*
X147940000Y-89024666D01*
X148006666Y-89124666D01*
X148073333Y-89191333D01*
X148140000Y-89224666D01*
X147040000Y-89724666D02*
X147273333Y-89391333D01*
X147440000Y-89724666D02*
X147440000Y-89024666D01*
X147173333Y-89024666D01*
X147106666Y-89058000D01*
X147073333Y-89091333D01*
X147040000Y-89158000D01*
X147040000Y-89258000D01*
X147073333Y-89324666D01*
X147106666Y-89358000D01*
X147173333Y-89391333D01*
X147440000Y-89391333D01*
%TO.C,0402R*%
D13*
X145344952Y-88969904D02*
X145268761Y-88969904D01*
X145192571Y-89008000D01*
X145154476Y-89046095D01*
X145116380Y-89122285D01*
X145078285Y-89274666D01*
X145078285Y-89465142D01*
X145116380Y-89617523D01*
X145154476Y-89693714D01*
X145192571Y-89731809D01*
X145268761Y-89769904D01*
X145344952Y-89769904D01*
X145421142Y-89731809D01*
X145459238Y-89693714D01*
X145497333Y-89617523D01*
X145535428Y-89465142D01*
X145535428Y-89274666D01*
X145497333Y-89122285D01*
X145459238Y-89046095D01*
X145421142Y-89008000D01*
X145344952Y-88969904D01*
X144392571Y-89236571D02*
X144392571Y-89769904D01*
X144583047Y-88931809D02*
X144773523Y-89503238D01*
X144278285Y-89503238D01*
X143821142Y-88969904D02*
X143744952Y-88969904D01*
X143668761Y-89008000D01*
X143630666Y-89046095D01*
X143592571Y-89122285D01*
X143554476Y-89274666D01*
X143554476Y-89465142D01*
X143592571Y-89617523D01*
X143630666Y-89693714D01*
X143668761Y-89731809D01*
X143744952Y-89769904D01*
X143821142Y-89769904D01*
X143897333Y-89731809D01*
X143935428Y-89693714D01*
X143973523Y-89617523D01*
X144011619Y-89465142D01*
X144011619Y-89274666D01*
X143973523Y-89122285D01*
X143935428Y-89046095D01*
X143897333Y-89008000D01*
X143821142Y-88969904D01*
X143249714Y-89046095D02*
X143211619Y-89008000D01*
X143135428Y-88969904D01*
X142944952Y-88969904D01*
X142868761Y-89008000D01*
X142830666Y-89046095D01*
X142792571Y-89122285D01*
X142792571Y-89198476D01*
X142830666Y-89312761D01*
X143287809Y-89769904D01*
X142792571Y-89769904D01*
X141992571Y-89769904D02*
X142259238Y-89388952D01*
X142449714Y-89769904D02*
X142449714Y-88969904D01*
X142144952Y-88969904D01*
X142068761Y-89008000D01*
X142030666Y-89046095D01*
X141992571Y-89122285D01*
X141992571Y-89236571D01*
X142030666Y-89312761D01*
X142068761Y-89350857D01*
X142144952Y-89388952D01*
X142449714Y-89388952D01*
%TD*%
M02*
